<?xml version="1.0" standalone="no"?>
<!DOCTYPE svg PUBLIC "-//W3C//DTD SVG 1.1//EN" "http://www.w3.org/Graphics/SVG/1.1/DTD/svg11.dtd" >
<svg>
<metadata>
Created by FontForge 20090622 at Mon Mar  9 13:01:07 2020
 By deploy user
Copyright (c) 1992 Image Club Graphics, Inc.
</metadata>
<defs>
<font id="GaramondLight" horiz-adv-x="670" >
  <font-face 
    font-family="Garamond Light"
    font-weight="5"
    font-stretch="normal"
    units-per-em="1057"
    panose-1="0 0 0 0 0 0 0 0 0 0"
    ascent="845"
    descent="-212"
    x-height="552"
    cap-height="776"
    bbox="-131 -284 1247 1035"
    underline-thickness="20"
    underline-position="-156"
    unicode-range="U+0020-U+25CA"
  />
<missing-glyph horiz-adv-x="776" 
d="M48 0v776h680v-776h-680zM680 48v680h-584v-680h584z" />
    <glyph glyph-name=".notdef" horiz-adv-x="776" 
d="M48 0v776h680v-776h-680zM680 48v680h-584v-680h584z" />
    <glyph glyph-name=".null" unicode="&#xd7;" horiz-adv-x="0" 
 />
    <glyph glyph-name=".null" unicode="&#x141;" horiz-adv-x="0" 
 />
    <glyph glyph-name=".null" unicode="&#xfd;" horiz-adv-x="0" 
 />
    <glyph glyph-name="nonmarkingreturn" horiz-adv-x="366" 
 />
    <glyph glyph-name="space" unicode=" " horiz-adv-x="366" 
 />
    <glyph glyph-name="exclam" unicode="!" horiz-adv-x="162" 
d="M138 742l-44 -514q0 -13 -12 -13q-11 0 -13 13l-39 514q0 16 16.5 35t37.5 19q22 0 38 -16t16 -38zM137 50q0 -26 -15 -45t-39 -19q-23 0 -37.5 19t-14.5 45q0 25 14.5 43.5t38.5 18.5q22 0 37.5 -18.5t15.5 -43.5z" />
    <glyph glyph-name="quotedbl" unicode="&#x22;" horiz-adv-x="318" 
d="M295 742l-33 -319q-2 -16 -14 -16q-13 0 -15 16l-22 320q0 17 9.5 36.5t30.5 19.5q20 0 32 -20t12 -37zM119 742l-33 -319q-2 -16 -14 -16q-13 0 -15 16l-22 320q0 17 9.5 36.5t30.5 19.5q20 0 32 -20t12 -37z" />
    <glyph glyph-name="numbersign" unicode="#" horiz-adv-x="678" 
d="M653 773q0 -2 -1 -8l-13 -40l-6 -6l-8 -2h-142q-4 0 -9 -3l-4 -7l-42 -116q-3 -12 -1 -14q3 -5 9 -5h133l6 -2l3 -8l-14 -40l-3 -6q-1 -2 -9 -4h-146l-7 -2l-3 -5l-60 -170l-3 -4l-6 -1h-15l-6 3q-2 2 -1 7l54 152q4 9 2 14q-2 7 -8 7h-128l-6 -3l-4 -6l-59 -167l-2 -5
l-5 -2h-17l-5 3v5l56 161q2 5 -1 9q-3 5 -9 5h-128q-5 2 -5 4t1 8l13 40l6 6l8 1h133q4 0 9 3l4 8l43 115q1 2 1 3q2 9 0 12q-3 5 -9 5h-128l-6 2l-3 8l14 40l3 6q1 2 9 4l138 -1l8 3l2 5l57 152l3 3q1 1 6 2h12l5 -3q2 -2 1 -7l-49 -134q-4 -9 -2 -14q2 -7 8 -7h131l6 3
q3 4 3 6l54 149l3 5l5 2h16l5 -3l1 -5l-52 -143q-2 -6 1 -9q2 -3 6 -5h3h139q5 -2 5 -4zM436 711q-1 2 -7 4h-131l-6 -1q-1 -1 -2 -5l-1 -1l-42 -116q-4 -11 -1 -17q4 -5 13 -5h124l6 3l3 5l43 123q2 8 1 10z" />
    <glyph glyph-name="dollar" unicode="$" horiz-adv-x="506" 
d="M441 618q0 -9 -10 -9q-11 0 -14.5 12.5l-6.5 22.5q-11 32 -31 60.5t-44 40t-44 11.5q-7 0 -11 -2q-4 1 -8 -5q-2 -2 -2 -9l1 -234q0 -16 6 -24l14 -12q32 -14 50 -23q55 -28 82 -54q63 -60 63 -146q0 -74 -49 -134q-41 -49 -101 -72q-20 -7 -52 -13l-9 -7q-5 -7 -5 -15
v-117l-3 -3h-20l-4 3v115q-1 10 -3 12q-3 5 -17 6t-38 3t-48 8.5t-59 22.5q-12 5 -32 16l-8 9l-3 14l-2 66q0 23 5 59q0 6 2.5 13.5t3.5 8.5q5 6 12 5q6 -1 10 -7q1 -2 3 -23.5t14.5 -62.5t35.5 -64q29 -29 73 -39q14 -3 38 -4q8 3 9 5l3 10v307l-3 11q-2 5 -9 9q-2 1 -7 3
q-20 7 -36 15q-26 13 -62 35.5t-58 62t-22 85.5q0 54 35 101q39 52 98 75q19 7 52 13l9 5q4 4 4 9v124l2 2l22 1l3 -3v-125q0 -5 6 -9l9 -3q16 -1 35 -3t45 -7t39 -8.5t19 -7.5q9 -3 13.5 -9.5t4.5 -18.5v-108zM243 503v229l-3 9q-1 2 -8 5h-14q-34 -4 -63 -33
q-39 -39 -39 -90q0 -40 28 -75q16 -19 51 -40l31 -17q8 0 11 1q5 1 6 6v5zM408 212q0 64 -61 113q-20 16 -61 36q-10 -2 -12 -4q-4 -5 -4 -13v-282q0 -7 4 -10q1 0 5 -1q2 0 8 -1q40 16 60 31q61 48 61 131z" />
    <glyph glyph-name="percent" unicode="%" horiz-adv-x="969" 
d="M373 556q2 -4 2 -15q0 -70 -34 -142q-48 -101 -136 -101q-84 0 -133 103q-36 76 -36 141q0 10 1 11q-15 24 29 126q50 116 135 116q96 0 145 -115q42 -98 27 -124zM780 785q1 -5 -5 -15l-530 -772l-9 -10q-4 -2 -12 -2h-21l-4 4q-1 6 4 13l530 775q9 11 13 13q3 2 13 2h9
q12 -3 12 -8zM945 237q2 -4 2 -14q0 -68 -35 -139q-49 -100 -137 -100q-84 0 -132 101q-35 74 -35 138q0 10 1 11q-15 24 29 126q50 116 135 116q97 0 146 -115q43 -99 26 -124zM307 558q-2 69 -9 103q-23 103 -94 103q-64 0 -90 -104q-8 -34 -13 -105v-14q0 -77 14 -127
q26 -91 89 -91t88 81q16 51 16 128v19q0 3 -1 7zM879 239v13q0 95 -27.5 148t-77.5 53q-66 0 -90 -108q-7 -36 -11 -109v-14q0 -75 14 -123q25 -87 89 -87q63 0 88 78q16 49 16 124v18q0 3 -1 7z" />
    <glyph glyph-name="ampersand" unicode="&#x26;" horiz-adv-x="891" 
d="M872 15q1 -5 -4 -9q-1 -1 -5 -3q-1 -1 -71 2.5t-91 3.5q-33 0 -124 -5q-35 -2 -36 -1q-5 0 -9 4t-4 10q2 12 15 12h14q20 2 29 4q30 8 30 28q0 13 -5 22q-1 3 -6 7l-44 53q-6 6 -12 6q-4 0 -12 -4l-37 -40q-47 -45 -96 -74q-69 -40 -131 -40q-13 0 -20 1q-99 9 -157 68.5
t-58 144.5v26q3 12 4 17q9 47 41 82q27 29 80 56l107 52q7 4 7 10q-4 8 -6 13q-31 30 -56 71.5t-27.5 65t-2.5 35.5q0 76 70 125q62 44 135 44q94 0 154 -47.5t60 -116.5q0 -37 -24 -66q-20 -24 -57 -42l-123 -58l-4 -6q-2 -7 1 -11l176 -191q3 -2 4 -3q6 -4 11 -5q4 -1 9 1
q1 0 5 3l59 84l16 26q13 24 13 41q0 7 -2 16.5t-26 14.5q-4 0 -12 2h-39q-4 0 -10.5 4.5t-6.5 9.5q0 14 16 14q2 1 49 -2.5t72 -3.5q20 0 73.5 3.5t54.5 1.5q3 -2 4 -3q4 -4 4 -10q-1 -11 -16 -15q-10 2 -16 2q-17 0 -34.5 -6t-37.5 -21q-11 -8 -28.5 -26.5t-24.5 -28.5
l-92 -126l-4 -9l2 -11l66 -76q40 -47 41 -48q21 -24 41.5 -39.5t57.5 -20.5q12 -1 33 -2q17 -4 17 -16zM525 644q0 68 -38 103.5t-95 35.5q-56 0 -93.5 -30t-37.5 -84q0 -64 59 -127q19 -21 60 -51l58 28q29 15 43 28q44 41 44 97zM523 176q0 6 -7 13l-204 227q-3 4 -12 6
q-7 1 -15 -2l-31 -15q-67 -32 -96.5 -76.5t-29.5 -96.5q0 -34 12.5 -66t34.5 -56q52 -58 137 -58q48 0 95 21t88 63l22 23q8 6 6 17z" />
    <glyph glyph-name="quotesingle" unicode="'" horiz-adv-x="141" 
d="M115 742l-33 -319q-2 -16 -14 -16q-14 0 -14 16l-23 320q0 17 8 33q12 23 33 23q20 0 32.5 -21t10.5 -36z" />
    <glyph glyph-name="parenleft" unicode="(" horiz-adv-x="448" 
d="M428 829l-7 -7l-77 -35q-88 -54 -141 -144q-75 -127 -75 -316t77 -312q53 -85 143 -135l77 -37q0 -4 -1 -8q-2 -4 -14 -1.5t-24 6.5q-17 0 -92 46q-103 63 -170 156q-93 128 -93 286q0 168 94 298q69 95 176 161q78 48 96 48q4 2 6 2q7 2 12 2q13 0 13 -10z" />
    <glyph glyph-name="parenright" unicode=")" horiz-adv-x="459" 
d="M434 325q0 -159 -92 -285q-64 -88 -172 -155q-77 -48 -92 -48q-6 -2 -10 -3q-25 -8 -27 -2q-2 4 -1 9l75 35q89 49 143 135q78 125 78 314q0 187 -75 314q-53 91 -141 144l-77 36q-7 6 -7 8q0 9 12 9q6 0 13 -2q2 0 6 -2q18 0 95 -47q109 -66 177 -161q95 -131 95 -299z
" />
    <glyph glyph-name="asterisk" unicode="*" horiz-adv-x="388" 
d="M359 706q4 -9 4 -18q0 -12 -6.5 -21.5t-16 -14t-20.5 -7.5t-22 -4l-63 -10q-16 -2 -16 -15q2 -11 16 -13l63 -9q24 -3 37.5 -10t20.5 -16t7 -22q0 -6 -5 -18q-10 -19 -32 -19q-13 0 -22.5 4t-16.5 11t-16 19l-41 50q-9 13 -19 6q-9 -4 -5 -16l28 -76q6 -18 6 -34
q0 -39 -40 -39q-18 0 -30.5 11.5t-12.5 28.5q0 15 8 34l27 74q5 13 -5 18q-5 3 -11 0q-5 -2 -10 -9l-34 -43q-14 -18 -16 -20q-8 -9 -17.5 -14t-22.5 -5q-24 0 -33 20q-4 8 -4 17q0 12 7 22t16.5 14.5t20 7.5t21.5 4l57 8q20 2 18 16q0 12 -18 14l-56 9q-19 2 -22 3
q-6 2 -18 8t-19 14.5t-7 20.5q0 10 5 19q10 20 33 20q12 0 21 -6q15 -10 32 -31l35 -47q2 -3 10 -6.5t13 -0.5q8 5 5 17l-28 74q-2 6 -4.5 15t-2.5 20q0 18 12 29t31 11t29.5 -10.5t10.5 -28.5q0 -7 -1 -13t-6 -22l-27 -75q-4 -11 4 -17q10 -5 20 7l40 50q12 14 16 18
q8 8 17.5 12t21.5 4q23 0 33 -20z" />
    <glyph glyph-name="plus" unicode="+" horiz-adv-x="608" 
d="M582 242h-236v-242h-70v242h-239v68h239v240h70v-240l236 2v-70z" />
    <glyph glyph-name="comma" unicode="," horiz-adv-x="193" 
d="M150 76q16 -33 16 -68q0 -25 -8.5 -53t-24.5 -60t-52 -70q-11 -12 -32 -30q-2 -2 -7 -3q-7 -2 -10 1q-7 7 2 18q15 17 23 27q27 32 40 52q25 38 25 75q0 24 -14 33q-16 3 -28 4q-46 6 -46 51q0 29 16.5 44.5t39.5 15.5q18 0 34.5 -9.5t25.5 -27.5z" />
    <glyph glyph-name="hyphen" unicode="-" horiz-adv-x="304" 
d="M275 265l-241 -1v66l241 1v-66z" />
    <glyph glyph-name="period" unicode="." horiz-adv-x="172" 
d="M146 49q0 -24 -15.5 -42.5t-39.5 -18.5t-40.5 16.5t-16.5 41.5q0 27 16.5 45.5t41.5 18.5q24 0 39 -18t15 -43z" />
    <glyph glyph-name="slash" unicode="/" horiz-adv-x="551" 
d="M528 802q0 -2 -5 -15l-440 -913q-3 -8 -8 -10l-12 -3h-21l-4 5q-1 3 3 12l444 914q6 13 10 16q6 2 12 2h8q1 0 3 -1q10 -2 10 -7z" />
    <glyph glyph-name="zero" unicode="0" horiz-adv-x="599" 
d="M578 399q0 -161 -69 -280q-78 -134 -203 -134q-111 0 -191 128.5t-80 290.5q0 147 77 270q82 131 193 131q130 0 206 -131q67 -116 67 -275zM482 394v7q0 10 1 20q0 124 -26 210q-44 145 -151 145q-82 0 -127 -96q-32 -67 -43 -179q-3 -49 -5 -97v-5v-15q0 -126 25 -215
q44 -155 152 -155q82 0 128 96.5t46 265.5v13v5z" />
    <glyph glyph-name="one" unicode="1" horiz-adv-x="462" 
d="M434 16q0 -15 -11 -15h-75h-94h-145q-40 0 -41 1q-3 1 -4 2q-5 5 -5 12q1 16 20 16h39h12q27 0 41 4t27 20q6 8 7.5 17.5t1.5 17.5v14v581q0 20 -6 24q-4 4 -11 4q-5 0 -13 -4l-122 -54q-6 -3 -14 -1t-8 13q0 9 5 14q1 1 6 4l229 104q14 6 22 2q7 -4 7 -15v-672
q0 -19 1.5 -29t10 -21.5t24.5 -17t35 -5.5h41q19 0 20 -16z" />
    <glyph glyph-name="two" unicode="2" horiz-adv-x="558" 
d="M531 16q0 -7 -6.5 -12t-17.5 -5h-447h-11q-11 0 -14 6q-4 9 6 21q3 7 93 118l90 108l78 91q47 58 76 109q37 66 42 122q1 6 1 19q0 66 -38 109q-41 47 -109 47q-101 0 -161 -64q-20 -21 -41 -65q-3 -3 -5 -4q-7 -4 -13 -2q-6 3 -6 12q0 2 1 8q13 31 25 49q72 109 198 109
q107 0 176 -48q76 -53 76 -145q0 -86 -89 -191q-9 -11 -121 -120l-124 -123l-26 -26.5t-18 -19.5q-8 -11 -4 -19q2 -4 13 -4h296q11 0 19.5 5.5t18 16t13.5 36.5l3 24q4 14 13 14q12 1 12 -14z" />
    <glyph glyph-name="three" unicode="3" horiz-adv-x="537" 
d="M492 323q7 -17 11 -40t4 -42q0 -79 -49.5 -157.5t-131.5 -131.5q-52 -34 -107 -54t-106 -20q-33 0 -60 9.5t-49 31.5q-13 13 -13 38q0 20 10 34.5t31 14.5q38 0 57 -34q24 -42 40.5 -48t31.5 -6q69 0 146 61q84 66 101 150q6 33 6 65q0 95 -53 154t-139 59q-14 0 -22 -1
t-26 -4q-38 -8 -82 -28q-14 -6 -35 -18q-6 -3 -13 -3q-5 0 -9 4t-4 11q0 10 8 15l143 91q75 48 107 78q50 48 50 98q0 13 -5 31q-11 36 -42.5 54.5t-73.5 18.5q-68 0 -115 -47q-15 -15 -34 -48l-6 -6q-8 -6 -13 -4q-6 2 -7 12v10q21 40 39 59q57 59 144 59q77 0 130 -25
q63 -30 76 -90q2 -6 2 -12v-11q0 -48 -45 -89q-15 -13 -46 -32l-132 -75q5 1 9 1q31 5 52 5q67 0 117 -24q71 -34 103 -114z" />
    <glyph glyph-name="four" unicode="4" horiz-adv-x="611" 
d="M587 260l-2 -5q-1 -2 -10 -2h-86q-13 0 -16 -3t-3 -18v-136v-17q0 -13 1 -17q2 -7 9 -15.5t13.5 -12.5t14.5 -4l39 -1q20 0 20 -16q2 -13 -8 -13q-9 -1 -15 -1q-22 0 -56 1l-67 2q-46 0 -76 -0.5t-61 -2.5q-3 1 -4 2q-5 5 -5 12q0 15 19 15l42 2q20 0 32 16q4 5 6 14
t2 16v21v134q0 13 -3 17q-5 5 -12 5h-312q-8 0 -12 2q-6 2 -6 15q0 10 1 15t3 9l437 578q14 18 32 18q11 0 13 -7q1 -5 -7 -17l-423 -555q-8 -10 -5 -17q3 -6 19 -6l261 1q7 0 11 5q5 4 5 16l-1 243q0 12 3 17q4 6 13 10l50 20q11 4 18 0q5 -3 7 -9q1 -4 1 -13v-266
q0 -12 5 -17t13 -5h87q8 0 10 -3l3 -6v-21z" />
    <glyph glyph-name="five" unicode="5" horiz-adv-x="544" 
d="M476 781l-18 -61q-2 -9 -6 -11q-4 -4 -11 -4l-307 -40l-10 -5l-6 -9l-32 -104q-2 -12 1 -17q1 -3 6 -6q1 -1 5 -2q65 -5 103 -9q112 -14 169 -40q66 -30 106.5 -91t40.5 -133q0 -49 -20.5 -98.5t-64.5 -94.5q-61 -64 -160 -106q-71 -30 -154 -47q-55 -11 -70 -11h-9
q-9 1 -9 9q-1 4 12 15q32 0 101 17q118 29 189 83q102 78 102 198q0 107 -93 164q-66 41 -178 54q-55 4 -109 9l-18 6q-4 5 0 18l80 268q1 8 7 14l13 6l325 45q12 0 14 -2q3 -3 1 -15z" />
    <glyph glyph-name="six" unicode="6" horiz-adv-x="600" 
d="M572 247q0 -105 -73.5 -186.5t-170.5 -81.5q-135 0 -220 114q-77 103 -77 239q0 93 42 193q50 120 148 217q54 53 128 99q53 33 117 62q46 21 51 21q7 3 11 4q13 4 21 4q12 0 13 -7q2 -10 -10 -18q-6 0 -49 -19q-64 -28 -116 -64q-76 -52 -134.5 -123.5t-93 -170
t-34.5 -207.5q0 -125 48 -213q57 -104 158 -104q75 0 116 76q34 64 34 157q0 98 -32 168q-38 83 -108 83q-14 1 -18 1q-36 0 -66 -23q-10 -7 -23 -24q-2 -3 -4 -3q-7 -3 -13 0q-4 2 -4 10q0 2 1 7q20 24 35 36q48 36 111 36q121 0 176 -112q36 -74 36 -171z" />
    <glyph glyph-name="seven" unicode="7" horiz-adv-x="611" 
d="M585 752l-360 -808l-4 -6l-6 -1h-28l-4 2q-1 2 1 9l314 710q3 11 1 15q-6 8 -14 8h-381l-22 -1q-8 -2 -20 -7l-6 -3q-6 -2 -9 -1q-4 1 -4 4v5q-6 12 -6 29q1 14 1 22q0 5 -2 13t-2 12q0 6 4 11q4 6 6 7q4 4 8 4h518q4 -1 6 -1q7 -2 9 -6q4 -5 0 -17z" />
    <glyph glyph-name="eight" unicode="8" horiz-adv-x="600" 
d="M577 223q0 -94 -77 -166q-82 -76 -202 -76q-118 0 -192 65.5t-74 174.5q0 72 99 130q33 19 99 43q-57 23 -85 42q-86 58 -86 138q0 101 72 164.5t178 63.5q100 0 168 -44q76 -49 76 -131q0 -66 -56 -118q-18 -17 -57 -39l-65 -32q12 0 52 -18q59 -26 97 -67
q53 -56 53 -130zM477 609q0 71 -47 120t-123 49q-79 0 -125 -43t-46 -108v-12q2 -8 2 -12q12 -87 109 -127q32 -13 95 -23q59 11 97 53.5t38 102.5zM491 191q0 74 -58 123q-42 36 -110 56q-44 13 -59 13q-51 -23 -76 -42q-76 -59 -76 -145q0 -82 44 -134q50 -58 142 -58
q90 0 141.5 53.5t51.5 133.5z" />
    <glyph glyph-name="nine" unicode="9" horiz-adv-x="599" 
d="M579 455q0 -91 -53 -193q-59 -113 -167 -205q-81 -69 -166 -115q-28 -15 -70 -32q-3 -1 -5 -1q-16 -4 -24 -4q-14 0 -16 6q-3 7 0 12q1 3 8 6q21 6 36 12q86 39 181 138q76 81 122 167q59 111 59 218q0 123 -48 211q-57 104 -157 104q-73 0 -114 -75q-36 -66 -36 -157
q0 -89 44 -155t106 -66q36 0 65 13q10 4 23 14q3 3 4 3q5 2 12 -1q4 -2 4 -10v-7q-23 -16 -39 -24q-50 -25 -95 -25q-114 0 -172 91q-45 71 -45 170q0 100 74.5 178.5t170.5 78.5q136 0 221 -111q77 -101 77 -241z" />
    <glyph glyph-name="colon" unicode=":" horiz-adv-x="173" 
d="M145 407q0 -25 -15.5 -44.5t-39.5 -19.5q-25 0 -40 19t-15 45q0 24 16.5 41.5t39.5 17.5t38.5 -17.5t15.5 -41.5zM145 53q0 -26 -15.5 -45.5t-39.5 -19.5q-25 0 -40 19t-15 46q0 24 16.5 41.5t39.5 17.5t38.5 -17.5t15.5 -41.5z" />
    <glyph glyph-name="semicolon" unicode=";" horiz-adv-x="200" 
d="M149 409q0 -24 -15.5 -42.5t-39.5 -18.5t-39 18.5t-15 44.5q0 23 16 41t39 18t38.5 -18.5t15.5 -42.5zM155 76q16 -33 16 -68q0 -25 -8.5 -53t-24.5 -60t-53 -70q-11 -12 -32 -30q-4 -2 -6 -2q-8 -2 -10 0q-7 7 2 18q15 17 23 27q27 32 40 52q25 38 25 75q0 24 -14 33
q-17 3 -29 4q-45 6 -45 51q0 29 16.5 44.5t39.5 15.5q18 0 34.5 -9.5t25.5 -27.5z" />
    <glyph glyph-name="less" unicode="&#x3c;" horiz-adv-x="641" 
d="M616 -7l-584 267v64l584 267v-69l-509 -232l509 -227v-70z" />
    <glyph glyph-name="equal" unicode="=" horiz-adv-x="611" 
d="M586 340h-551v66h551v-66zM586 176h-551v66h551v-66z" />
    <glyph glyph-name="greater" unicode="&#x3e;" horiz-adv-x="641" 
d="M617 266l-584 -267v70l509 227l-509 232v69l584 -267v-64z" />
    <glyph glyph-name="question" unicode="?" horiz-adv-x="367" 
d="M342 578q0 -54 -41 -111q-13 -19 -41 -46l-103 -84q-14 -11 -23 -27t-9 -35v-46v-6q-2 -7 -10 -8q-12 -2 -14 9l-22 127q-2 14 -2 19q0 3 2.5 11.5t10.5 16.5q2 2 8 7l70 54q39 31 55 46q63 61 63 139q0 63 -47 100q-14 11 -28 17.5t-29 6.5q-17 0 -33.5 -8t-29.5 -30
l-12 -24l-17 -27q-10 -16 -24 -18q-21 -4 -30 44q-2 16 -5 49v7q1 7 3 12q6 13 21 14q8 3 13 4q34 9 62 9q90 0 151 -63t61 -159zM162 50q0 -25 -15.5 -44.5t-39.5 -19.5q-26 0 -40.5 18t-14.5 46q0 24 16.5 41.5t39.5 17.5t38.5 -17.5t15.5 -41.5z" />
    <glyph glyph-name="at" unicode="@" horiz-adv-x="824" 
d="M799 461q0 -117 -76 -211t-178 -94q-43 0 -65 43q-7 14 -13 44l-32 -36q-39 -46 -101 -46q-63 0 -103 49.5t-40 116.5q0 98 83 171q75 66 153 66q32 0 53 -11t29 -37l11 -30l21 66l91 2l-82 -305q-4 -12 -4 -29q0 -16 4.5 -25t16.5 -9q64 0 119.5 86t55.5 180
q0 122 -96 196q-87 67 -213 67q-135 0 -231 -96t-96 -232q0 -141 98 -242t238 -101q103 0 175 39q51 28 85 74l23 40h70l-31 -53q-45 -62 -110 -100q-93 -54 -214 -54q-162 0 -276.5 115.5t-114.5 277.5q0 159 112.5 272.5t271.5 113.5q146 0 253 -84q113 -89 113 -224z
M500 444q0 42 -16 67.5t-46 25.5q-53 0 -102.5 -87t-49.5 -171q0 -36 17.5 -62t54.5 -26q52 0 99 96q43 88 43 157z" />
    <glyph glyph-name="A" unicode="A" horiz-adv-x="876" 
d="M850 14q0 -14 -12 -14q-1 -1 -14 -1q-15 0 -74 2t-69 2l-157 -3q-5 1 -7 2q-7 4 -7 12q1 7 6.5 11.5t14.5 4.5h39q17 0 29.5 4.5t18.5 15.5t6 21q0 17 -4 25l-70 175q-5 11 -13 17q-11 6 -21 6h-212q-14 0 -21.5 -5t-10.5 -15l-61 -161q-6 -15 -6 -31q0 -15 8 -28
q17 -24 47 -24h42q19 0 19 -14t-10 -14q-3 -3 -23 -3q-15 0 -61 2t-51 2q-38 0 -83 -2t-46 -1q-3 1 -4 2q-5 5 -5 12q0 8 6 12t13 4h41q9 0 19 7l18.5 16.5t13.5 18t11 25.5l266 695q6 14 16 14t14 -14l273 -685q6 -15 11.5 -26t13.5 -20q17 -18 19 -20q14 -11 29 -11h29
q18 0 19 -16zM520 348l-103 256q-4 13 -10 13q-4 0 -7 -4q-2 -2 -4 -8l-97 -258q-2 -9 -1 -12q3 -4 12 -4h198q7 0 11 4q3 4 1 13z" />
    <glyph glyph-name="B" unicode="B" horiz-adv-x="777" 
d="M748 222q0 -106 -91 -171q-72 -51 -139 -51h-439q-13 0 -22 2.5t-9 11.5q0 10 11.5 13t19.5 3h43q8 3 11 5q12 6 16 11q9 9 11.5 22.5t2.5 33.5v580q0 25 -4.5 39t-21.5 27q-8 7 -28 7q-19 0 -41 -5q-7 -1 -20 -6q-11 0 -15 7q-2 5 3 12q1 2 5 6q12 7 25 11q24 7 55 11.5
t48 5.5t46 1h186q123 0 200 -38q98 -48 98 -149q0 -59 -51 -106q-68 -62 -114 -62q70 0 148 -71q66 -60 66 -150zM585 608q0 79 -56 125q-51 42 -128 42h-67q-25 0 -34.5 -2t-21.5 -14q-18 -18 -18 -44v-236q0 -7 2 -14t11 -11t19.5 -4.5t18.5 -0.5h111q70 0 114 39
q49 43 49 120zM639 228q0 86 -65.5 139.5t-155.5 53.5h-107q-12 1 -18 1q-16 0 -23.5 -8t-9 -16t-1.5 -22v-239q0 -33 3 -49t18.5 -32.5t32 -21t45.5 -4.5h82q84 0 141.5 54.5t57.5 143.5z" />
    <glyph glyph-name="C" unicode="C" horiz-adv-x="749" 
d="M721 190l-7 -121q0 -11 -7 -19q-6 -10 -17 -11q-20 -13 -97 -35q-98 -28 -166 -28q-167 0 -281.5 128.5t-114.5 302.5q0 168 128 287t298 119q60 0 141 -18q67 -15 79 -23q5 -2 7 -3q9 -5 13 -11t4 -15l14 -112q2 -17 -8 -20q-9 -3 -13 1t-8 9q-20 62 -72 106
q-57 49 -141 49q-160 0 -250 -116q-80 -103 -80 -262q0 -146 77 -255q82 -116 216 -132q8 -1 17 -1.5t14 -0.5q106 0 176 96q23 32 50 97q5 5 6 7q3 4 13 2q6 -1 8 -7t1 -14z" />
    <glyph glyph-name="D" unicode="D" horiz-adv-x="891" 
d="M865 384q0 -164 -120 -274t-294 -110h-157l-121 1l-112 -1q-8 0 -15 2t-7 13q0 15 18 15h40q10 0 20.5 2t19.5 11t12.5 25t3.5 39v560q0 32 -5 44.5t-15 19t-22 6.5q-21 0 -48 -9q-5 -1 -13 -5q-10 -2 -14 7q-2 4 2 11q1 2 4 6q9 6 16 9q23 10 52 15t74 11q7 1 20 2
q36 4 59 6q70 6 127 6q52 0 94 -6q165 -26 270 -134q111 -113 111 -272zM562 54q87 40 140 135.5t53 207.5q0 113 -56 202q-63 99 -183 145q-33 13 -77.5 18.5t-83.5 5.5q-34 0 -40 -3q-14 -1 -21 -3q-22 -6 -32 -19q-13 -17 -13 -36v-600q1 -13 3 -20q7 -23 21 -37.5
t45 -21.5t71 -7q45 0 91 8.5t82 24.5z" />
    <glyph glyph-name="E" unicode="E" horiz-adv-x="685" 
d="M658 171l-25 -164l-1 -6l-5 -1q-38 0 -100 0.5l-178 1.5t-160 1l-142 -3q-3 1 -4 1q-11 4 -10 13q0 8 6 12t13 4h45q22 0 39 19q7 9 8.5 19.5t1.5 29.5v585v13q0 19 -10 32q-15 18 -39 18h-44q-19 0 -19 17q0 7 8 11q2 1 8 2h144h412q14 0 16 -3q4 -4 4 -17v-144
q0 -12 -11 -13q-6 -1 -12 9l-30 58q-17 31 -29 42q-19 18 -52.5 28t-72.5 10h-107h-29q-14 -2 -25.5 -13t-11.5 -35v-228q0 -12 10 -20.5t22 -8.5h153q20 0 31 3t21.5 17t16.5 47q2 11 4 31q4 16 16 14q13 -2 13 -15q-2 -23 -2 -37q-3 -55 -3 -69q0 -43 3 -98q0 -10 2 -27
q0 -4 -1 -6q-3 -7 -11 -8q-7 0 -12 7l-4 8q-3 18 -5 27q-7 29 -17 42q-13 17 -38 22t-49 5h-119q-12 0 -21.5 -10t-9.5 -26v-253q0 -23 11 -41q6 -10 19 -22.5t51 -18.5q12 -1 34 -3h70q49 0 80 7t63 32q15 12 29.5 43l29.5 63q4 10 13 9q14 -1 12 -13z" />
    <glyph glyph-name="F" unicode="F" horiz-adv-x="642" 
d="M620 617q0 -12 -10 -14q-10 -1 -15 9q-9 27 -21.5 53.5t-31.5 43.5q-43 37 -124 37h-107h-15q-16 0 -24 -2.5t-14.5 -9t-9 -14.5t-2.5 -21v-230q0 -11 10 -19.5t21 -8.5h152q25 0 34.5 4t19 17t16.5 46q2 11 4 31q4 14 15 14q13 -2 13 -15q-2 -23 -2 -37q-3 -55 -3 -69
q0 -43 3 -98q0 -10 2 -27q0 -4 -1 -6q-3 -7 -11 -8q-7 0 -12 7l-4 8q-3 18 -5 27q-7 29 -16 41q-13 17 -37.5 22.5t-49.5 5.5h-119q-11 0 -21 -10.5t-10 -26.5v-245v-21q0 -20 2.5 -31t14 -22t49.5 -16q12 -1 35 -2q5 -3 7 -4q7 -5 7 -9q1 -7 -4 -12t-11 -5q-34 2 -55 3
q-76 4 -101 4q-39 0 -92 -4t-54 -3q-4 2 -5 3q-5 5 -5 12q2 15 19 15h45q13 0 21.5 5.5t16.5 15.5t9.5 21t1.5 29v586v12q0 10 -2 17.5t-8.5 15.5t-16 11t-22.5 3h-43q-20 0 -20 13q0 7 7 13q2 1 7 4l146 -4q98 0 207 1t200 3q12 0 16 -5q3 -4 3 -17v-137z" />
    <glyph glyph-name="G" unicode="G" horiz-adv-x="894" 
d="M866 361q0 -15 -20 -15l-51 -4q-11 -1 -21 -15q-5 -7 -7 -15q-1 -5 -1 -18v-206q-1 -10 -2 -12l-6 -8q-28 -28 -108.5 -53t-169.5 -25q-204 0 -330 120q-119 113 -119 279q0 169 135.5 288.5t315.5 119.5q69 0 151 -17q64 -13 78 -21q6 -2 8 -3q8 -4 12 -10q3 -5 5 -16
l4 -108q0 -18 -11 -19q-7 -1 -13 1q-19 63 -69 109q-55 51 -155 51q-170 0 -264 -118q-84 -105 -84 -266q0 -138 79 -236t204 -116q41 -6 76 -6q51 0 90 10.5t54 28.5q12 13 17 37q1 8 3 22v171q0 21 -10 35q-16 20 -46 20h-41q-15 0 -15 15t21 15q33 -2 72.5 -3t75.5 -1
q46 0 77 1t49 3q16 0 16 -15z" />
    <glyph glyph-name="H" unicode="H" horiz-adv-x="908" 
d="M887 14q0 -14 -11 -14q-32 1 -87 2t-62 1q-45 0 -97 -2t-53 -1q-3 2 -4 3q-5 5 -5 12q0 15 19 15h43q21 0 38 20q7 9 8.5 20t1.5 30v272q0 21 -6.5 26.5t-24.5 5.5h-379q-9 0 -18 -8t-9 -24v-274v-20q0 -16 9 -28q16 -20 41 -20h42q19 0 19 -17q0 -13 -10 -13
q-1 -1 -71.5 1t-77.5 2q-51 0 -83.5 -0.5t-66.5 -2.5q-3 1 -4 2q-5 5 -5 12t5.5 11.5t13.5 4.5h43q23 0 38 19q5 6 7 14.5t2 18.5v17v580v19q0 17 -8 27q-16 21 -39 21h-44q-20 0 -20 15q0 8 10 15q33 -1 88.5 -2t62.5 -1q35 0 89.5 2t55.5 1q14 0 14 -14q0 -8 -5 -12
q-6 -4 -14 -4h-42q-23 0 -40 -20q-7 -9 -8.5 -18.5t-1.5 -27.5v-206q0 -18 6 -25.5t23 -7.5h377q16 0 23.5 6.5t7.5 21.5v211q0 18 -1.5 26.5t-9.5 19t-16.5 15.5t-20.5 5h-43q-20 0 -20 17q0 7 9 11q3 1 9 2l142 -2q50 0 83.5 0.5t58.5 1.5q5 0 11.5 -4t6.5 -9
q0 -8 -5.5 -12.5t-14.5 -4.5h-41q-25 0 -40 -19q-7 -8 -9 -15t-2 -31v-581q0 -13 0.5 -26t8.5 -23q17 -21 42 -21h41q20 0 20 -16z" />
    <glyph glyph-name="I" unicode="I" horiz-adv-x="384" 
d="M358 15q0 -15 -11 -15q-2 -2 -68 1.5t-83 3.5q-40 0 -79 -2t-65 -3q-3 2 -4 3q-5 6 -5 13q0 14 19 14h40q23 0 39 21q7 7 9 15.5t2 20.5v14v581q0 17 -1.5 27t-9.5 19q-14 18 -39 18h-39q-20 0 -20 15q0 8 10 15q32 -1 85.5 -2t60.5 -1q35 0 89.5 2t55.5 1q14 0 14 -14
q0 -16 -19 -16h-42q-25 0 -40 -18q-7 -9 -8.5 -18.5t-1.5 -27.5v-582v-20q0 -16 9 -28q16 -22 41 -22h42q19 0 19 -15z" />
    <glyph glyph-name="J" unicode="J" horiz-adv-x="371" 
d="M351 761q0 -15 -19 -15h-42q-22 0 -40 -21q-7 -9 -8.5 -18.5t-1.5 -27.5v-577q1 -28 -1 -46q-12 -109 -81 -182q-56 -60 -101.5 -89.5t-89.5 -29.5q-26 0 -51 8.5t-36 22.5t-11 34q0 24 17 40.5t42 14.5q21 -2 37 -20q42 -45 46 -47q8 -2 12 -2q22 0 51 23q23 18 33 35
q23 38 30 84t7 110v24.5v17.5l1 579v13q0 10 -2 17.5t-9.5 16.5t-17 14.5t-21.5 5.5h-39q-20 0 -20 14q0 8 5 13q1 1 5 3q32 -1 85.5 -2t60.5 -1q44 0 96 2t53 1q10 0 10 -15z" />
    <glyph glyph-name="K" unicode="K" horiz-adv-x="845" 
d="M820 13q0 -13 -12 -13q-1 -1 -17 -1q-26 0 -64 1l-76 2q-54 0 -92.5 -1t-67.5 -1q-4 1 -5 2q-6 4 -6 11q2 17 21 17h39q16 0 26 3.5t14 15.5q5 14 -6 32q-6 10 -14 18l-234 300q-7 7 -11 7q-6 0 -12 -6l-49 -46q-9 -8 -13 -18q-1 -3 -2 -8t-1 -14v-215q0 -13 0.5 -26
t8.5 -23q16 -20 42 -20h41q19 0 19 -16q2 -15 -10 -15q-1 -1 -66 1.5t-83 2.5q-35 0 -90.5 -2t-56.5 -1q-2 1 -3 1q-7 4 -6 13q1 16 20 16h39q23 0 40 20q7 9 8.5 20t1.5 29v582v13q0 10 -2 17.5t-8 15.5q-16 19 -40 19h-36q-8 0 -15.5 4.5t-7.5 11.5q0 8 5 12q1 1 5 2
q7 1 11 1q22 0 59.5 -1l75.5 -2q36 0 69 1l64 2h12q1 0 4 -1q12 0 10 -13q0 -17 -19 -17h-41q-25 0 -41 -19q-7 -9 -8.5 -18.5t-1.5 -27.5v-267v-10q1 -11 6 -12q4 -1 9 2q1 1 5 4l265 267l15 18q16 22 16 35q0 3 -3 11t-10.5 12.5t-14.5 4.5h-29q-19 0 -19 15q-1 5 3 10
t9 5q1 2 20 2q16 0 68 -2t58 -2q32 0 62.5 1l58.5 2h13q1 0 2 -1q7 -7 7 -14q0 -8 -6 -12t-13 -4h-48q-20 0 -36 -5.5t-33 -15.5q-45 -26 -80 -61l-169 -172q-8 -8 -8 -15q0 -8 6 -16l291 -364q5 -4 7 -7q20 -21 29 -29l22 -19q16 -12 31 -12h29q19 0 19 -17z" />
    <glyph glyph-name="L" unicode="L" horiz-adv-x="614" 
d="M585 178q2 -2 -2 -32.5l-8 -59.5l-5 -63q-2 -17 -9 -22q-3 -3 -7 -3q-9 2 -14 2l-345 3q-44 0 -83.5 -1.5t-66.5 -1.5q-3 1 -4 2q-5 5 -5 12t5.5 11.5t13.5 4.5h40q24 0 40 19q7 9 8.5 20t1.5 30v581v13q0 10 -2 17.5t-8 15.5q-17 20 -40 20h-39q-20 0 -20 16q0 9 8 13
q1 0 4 1q32 -1 86 -2t61 -1q35 0 90.5 2t56.5 1q12 0 12 -14q0 -16 -19 -16h-42q-23 0 -40 -20q-7 -9 -8.5 -18.5t-1.5 -27.5v-551q0 -23 3.5 -39.5t12.5 -27.5q15 -17 40 -25.5t52 -8.5q37 0 72.5 10t54.5 22q41 27 66 76q8 16 18 45q6 12 13 11q12 -2 10 -14z" />
    <glyph glyph-name="M" unicode="M" horiz-adv-x="1022" 
d="M999 13q0 -13 -12 -13q-1 -1 -12 -1q-23 0 -40 1q-84 5 -91 5q-35 0 -91.5 -3t-57.5 -2q-4 1 -6 2q-6 4 -6 12q2 16 20 16h41q6 0 18 5.5t21.5 15t12.5 20.5t3 28l1 593q-3 8 -5 8q-6 -5 -7 -7l-281 -653q-4 -10 -13 -11q-9 0 -13 11l-245 632q-4 11 -9 11q-3 -1 -6 -6
q-1 -2 -1 -3l-35 -566q1 -12 3.5 -25.5t14 -25.5t26 -19.5t32.5 -7.5h25q21 0 21 -12q1 -6 -1 -11q-3 -7 -7 -7q-2 -2 -11 -2t-54 4t-67 4q-25 0 -94 -5q-14 -1 -27 -1l-4 4q-5 6 -5 13q0 13 18 13h40q9 0 17.5 6t17.5 16t13 33q1 7 2 22l41 598q2 14 -4.5 24t-25.5 15
q-3 0 -9 2h-37q-20 0 -20 14q1 6 6 12q1 1 5 4h174q8 0 13 -4q2 -2 5 -8q0 -1 1 -3l227 -573q1 -1 3 -4l2 -2q6 3 6 5l252 574q2 6 9 10.5t16 4.5h168q17 0 15 -16q0 -9 -9 -13q-1 0 -5 -1h-34q-14 0 -22.5 -3t-15 -12t-8.5 -18.5t-2 -17.5v-14v-582q0 -7 1 -21.5t11 -26.5
q6 -8 21 -15l15 -6h34q21 0 21 -17z" />
    <glyph glyph-name="N" unicode="N" horiz-adv-x="883" 
d="M854 757q0 -11 -16 -11h-46q-12 0 -19.5 -5t-17 -15.5t-12 -23.5t-2.5 -32v-673q-1 -12 -5 -13q-9 -3 -14 4l-541 702l-1 -583q1 -14 2.5 -30.5t8.5 -27.5q13 -19 46 -19h31q8 0 16.5 -4.5t8.5 -12.5q0 -3 -2 -6q-5 -7 -10 -7q-2 -2 -17 -2q-12 0 -55 2t-50 2
q-18 0 -44 -1t-56 -3q-12 0 -14 2q-5 2 -7 3q-7 5 -7 13q1 14 17 14h36l20 3q23 5 30.5 15t8.5 26.5t1 31.5v573q0 18 -2.5 28.5t-10 21t-29.5 15.5q-3 0 -11 2h-36q-22 0 -21 15q0 6 5 11q1 1 5 4h174l15 -3q4 -2 8 -7q1 -2 2 -3l465 -602v511q0 25 -3 34t-11 18
q-19 22 -42 22h-36q-23 0 -23 12q-1 9 7 16q4 3 10 3l120 -6q37 0 65 1.5t42 3.5q17 0 17 -19z" />
    <glyph glyph-name="O" unicode="O" horiz-adv-x="917" 
d="M893 385q0 -173 -127.5 -288.5t-303.5 -115.5q-174 0 -300.5 121.5t-126.5 293.5q0 163 127 279t300 116q175 0 303 -117.5t128 -288.5zM779 387q0 157 -81 259q-87 110 -236 110q-148 0 -235 -108q-80 -100 -80 -253q0 -166 76 -267q84 -112 239 -112q150 0 237 111
q80 102 80 260z" />
    <glyph glyph-name="P" unicode="P" horiz-adv-x="660" 
d="M639 569q0 -95 -68 -163t-164 -68q-32 0 -83 14q-17 4 -47 15q-7 3 -11 3q-9 2 -13 0q-10 -4 -10 -27v-245q0 -13 0.5 -24.5t7.5 -22.5q15 -21 41 -21h41q20 0 20 -17q0 -13 -17 -13q-7 -1 -11 -1q-22 0 -59 1l-73 2q-35 0 -74 -0.5t-72 -1.5q-4 1 -5 2q-5 4 -5 11
q2 17 22 17h37q25 0 40 19q8 10 9.5 19.5t1.5 29.5v582q0 18 -1.5 27t-9.5 19q-15 20 -40 20h-38q-19 0 -21 15q0 8 5 12q1 1 6 3q1 1 69.5 -1t75.5 -2l223 3q82 0 148 -53q75 -60 75 -154zM431 739q-23 9 -49.5 13.5t-48.5 4.5q-23 0 -33 -4q-9 -1 -18.5 -3.5t-18.5 -9.5
q-20 -17 -20 -48v-270q1 -4 1 -6q2 -7 6 -9q5 -4 11 -8q14 -10 41 -18t58 -8q25 0 41 5q67 18 103 70q33 48 33 110q0 60 -28.5 111t-77.5 70z" />
    <glyph glyph-name="Q" unicode="Q" horiz-adv-x="921" 
d="M901 390q0 -164 -97 -270q-68 -74 -180 -114q-70 -25 -85.5 -25h-17.5q-6 -1 -9 -6q-2 -3 -2 -13v-11q0 -1 1 -2q14 -34 29 -53q46 -58 128 -86q30 -10 57.5 -14.5t51.5 -4.5q33 0 59 7l42 16q17 0 20 -6q3 -7 1 -13q0 -2 -3 -4q-26 -14 -46 -20q-62 -21 -131 -21
q-16 0 -33.5 1t-37.5 4q-92 13 -170 71q-82 61 -82 123q0 8 1 13t6 20q-30 0 -102 29q-109 44 -176 121q-94 108 -94 266q0 163 129 279t302 116q176 0 307.5 -117.5t131.5 -285.5zM785 390q0 161 -85 262q-89 106 -241 106q-149 0 -235 -108q-80 -100 -80 -254
q0 -158 86 -267q91 -115 233 -115q148 0 239 118q83 108 83 258z" />
    <glyph glyph-name="R" unicode="R" horiz-adv-x="760" 
d="M732 17q1 -7 -5.5 -12t-14.5 -5h-133q-15 0 -22.5 6.5t-12.5 18.5l-138 269l-21 41.5t-25 32.5q-10 7 -28.5 10.5t-34.5 3.5q-18 -1 -21 -1q-10 2 -13 2q-1 0 -10.5 -3.5t-11 -10.5t-1.5 -20v-250v-13q0 -9 0.5 -17t5.5 -17q15 -22 43 -22h41q19 0 19 -16q2 -14 -10 -14
q-1 -1 -71 1t-78 2q-35 0 -90.5 -2t-56.5 -1q-2 1 -3 1q-7 4 -6 13q1 16 20 16h39q23 0 40 20q7 9 8.5 20t1.5 29v579v13q0 10 -2 17.5t-8 15.5q-10 12 -18.5 17t-21.5 5h-38q-21 0 -21 14q0 7 5 12q1 1 5 4q1 1 58 -2.5t88 -3.5q54 0 105 2t93 4q89 0 154 -40
q81 -50 81 -144q0 -83 -59 -135q-68 -60 -134 -60q15 -4 28 -14t21 -25l155 -295q8 -11 22 -20q7 -6 20 -11q2 -1 7 -2h27q21 0 22 -13zM422 736q-19 8 -41.5 11.5t-45.5 3.5q-24 0 -33 -1q-2 0 -7 -2q-10 0 -22 -2.5t-20 -13.5q-13 -17 -13 -45v-257q1 -4 1 -5
q2 -4 7.5 -8.5t13.5 -4.5q2 -1 10.5 -1h18.5q29 0 51.5 1.5t43.5 5.5q65 13 99.5 58.5t34.5 102.5q0 51 -26 94.5t-72 62.5z" />
    <glyph glyph-name="S" unicode="S" horiz-adv-x="551" 
d="M509 310q17 -40 17 -85q0 -84 -63.5 -150.5t-167.5 -82.5q-24 -3 -49 -3q-65 0 -125.5 18t-74.5 36l-7 9q-3 6 -3 16v97q0 35 5.5 48t17.5 13q8 0 13 -13q1 -4 3 -14q0 -23 2 -38q15 -87 86 -127q40 -23 92 -23q70 0 123 39q57 42 64 109q1 7 1 21q0 57 -35.5 99.5
t-100.5 71.5l-124 56q-45 26 -67 45q-68 60 -68 133q0 94 67 153t174 59q48 0 113 -14q22 -4 58 -15q8 -2 11 -7l3 -10l7 -124q0 -15 -12 -16q-4 -1 -12 5q-11 63 -49 108q-42 49 -114 49q-18 0 -28 -1q-62 -6 -97 -35q-31 -26 -42 -73q-3 -14 -3 -26q0 -45 36 -84
q33 -35 86 -58l121 -53q40 -16 72 -42q48 -39 70 -91z" />
    <glyph glyph-name="T" unicode="T" horiz-adv-x="781" 
d="M757 806l-10 -187q0 -11 -11 -11q-11 -2 -15 7q-3 19 -10.5 43t-22.5 45.5t-31.5 32t-37.5 10.5h-146q-11 0 -16.5 -5t-5.5 -16v-625v-20q0 -17 9 -29q15 -21 41 -21h42q19 0 19 -19q0 -11 -11 -11l-148 1q-23 0 -71 -1t-60 -1q-15 0 -16 1q-3 2 -4 3q-5 5 -5 12
q0 15 19 15h40q24 0 39 20q7 7 9 15.5t2 20.5v14v623q0 13 -5 18q-3 4 -12 5h-9h-91q-34 0 -60 -14t-55 -41q-13 -13 -34 -46l-15.5 -25t-11.5 -16q-4 -3 -10 -3q-4 0 -7 2q-6 3 -6 12q0 3 2 9l56 189q4 13 15 12q7 0 11 -9q0 -8 2 -17t13 -16t26 -7h515q12 0 17 1
q7 2 15 8.5t15 21.5q1 2 2 8q6 10 14 11q14 0 14 -20z" />
    <glyph glyph-name="U" unicode="U" horiz-adv-x="873" 
d="M848 760q1 -14 -17 -14h-44q-9 0 -14 -3q-4 -2 -19 -19q-7 -9 -8 -26.5l-2 -34.5v-407q0 -75 -7 -105q-14 -61 -63 -102q-40 -33 -100 -49t-127 -16q-38 0 -75 5t-68 13q-85 24 -122 69t-37 117v493q0 18 -1.5 27t-9.5 19q-15 19 -40 19h-38q-20 0 -21 12q0 7 5 13
q1 2 6 5q32 -1 85.5 -2t59.5 -1q45 0 97 2t53 1q10 0 10 -18q0 -12 -20 -12h-41q-25 0 -40 -19q-7 -8 -9 -15t-2 -31v-451q0 -39 6.5 -79t24.5 -64q28 -37 78.5 -55t111.5 -18q48 0 92.5 11t74.5 30q54 33 69 77q10 29 10 99v431q0 16 -1 34t-11 28q-18 22 -45 22h-39h-15
q-7 1 -8 9q0 9 7 15t11 6l119 -5q30 0 68.5 3t39.5 2q7 -3 10 -5q6 -5 6 -11z" />
    <glyph glyph-name="V" unicode="V" horiz-adv-x="880" 
d="M856 756q0 -10 -16 -10h-30q-15 0 -26 -5.5t-22.5 -17.5t-21 -30.5t-11.5 -24.5l-275 -674q-1 -1 -1 -2q-4 -6 -9 -7q-3 0 -7 5q-1 1 -3 5l-283 679l-19 37q-12 21 -33 30q-6 3 -18 5h-31q-6 1 -8 2q-9 4 -9 11q0 9 10 15q1 1 5 2q31 -2 69 -4t73 -2q25 0 74.5 3.5
t50.5 2.5q13 0 13 -16q0 -14 -18 -14h-41q-9 0 -15 -3q-14 -7 -14 -21q-1 -10 3.5 -21.5t9.5 -20.5l225 -537l212 526q5 14 7.5 23t2.5 18q0 10 -4.5 18t-22.5 14q-6 1 -17 4h-39q-23 0 -23 11q0 7 5.5 13.5t12.5 6.5l119 -6q38 0 67.5 1.5t45.5 3.5q4 -3 6 -5q6 -7 6 -15z
" />
    <glyph glyph-name="W" unicode="W" horiz-adv-x="1244" 
d="M1217 760q0 -5 -6 -9q-5 -3 -12 -5q-14 0 -29.5 -1t-27.5 -10.5t-25.5 -34.5t-15.5 -34l-276 -671q-3 -4 -4 -5q-5 -5 -10 -5q-5 -1 -10 5q-1 1 -4 6l-149 325l-156 -332q-2 -3 -3 -4q-4 -4 -9 -4q-9 0 -12 8l-313 682q-4 9 -9 18.5l-10 18.5q-12 21 -34 32q-7 3 -19 6
h-29q-6 2 -8 3q-9 5 -9 13q0 9 10 13q1 0 5 1q18 -1 67.5 -2.5t74.5 -1.5q23 0 73.5 2.5t51.5 1.5q13 0 13 -14q0 -16 -18 -16h-41q-12 0 -20.5 -7.5t-8.5 -18.5q-1 -10 4 -23q2 -5 9 -19l259 -558l102 215q4 11 4 23q0 17 -4 26l-127 279l-16.5 38t-14.5 27
q-13 15 -25.5 16.5t-22 2t-13.5 1.5q-15 4 -15 15q0 9 8 12q2 0 8 1q30 -2 65 -3t68 -1q23 0 70.5 2.5t48.5 1.5q14 2 14 -14t-16 -16h-36q-20 0 -27 -22q-3 -10 0.5 -23.5t7.5 -25.5l89 -198l94 197q4 9 7 20t3 22t-6 19t-20.5 9t-27.5 2q-17 4 -17 14q0 11 10 15q1 0 5 1
l102 -4q23 0 47.5 1t45.5 3q6 -3 8 -5q4 -5 4 -11q0 -14 -16 -14h-31q-15 0 -25.5 -6t-22.5 -18t-23 -36q-6 -13 -11 -26l-94 -198q-4 -7 -4 -15.5v-14.5q0 -12 6 -26l122 -277l224 544q8 19 8 37q0 14 -4.5 22t-16.5 11t-23 3h-17q-12 2 -15 4q-8 4 -8 12q0 14 18 14
l102 -4q22 0 47 1t47 3q5 -2 7 -3q8 -5 8 -13z" />
    <glyph glyph-name="X" unicode="X" horiz-adv-x="887" 
d="M857 13q1 -9 -4 -12q-1 -1 -6 -1q-1 -1 -76 1.5t-97 2.5q-25 0 -79 -2.5t-55 -1.5q-13 0 -13 13q2 17 19 17h57q8 0 12 1q13 4 17 15q3 9 -4 24q-2 5 -8 15l-192 267l-177 -242q-7 -9 -10 -15q-10 -18 -10 -35q0 -8 2.5 -16.5t13.5 -10.5t23 -3h51q9 0 16 -6t7 -13
q0 -11 -13 -11l-145 3q-45 0 -93.5 -2t-49.5 -1q-7 4 -7 12q0 7 4.5 12.5t10.5 5.5h47q13 1 25.5 6t31.5 21q14 11 30 29q25 28 35 43l177 236q4 6 4 20q-1 8 -9 18l-204 276q-8 11 -19.5 24t-14.5 17q-15 17 -31.5 21.5t-29.5 4.5h-28q-6 2 -8 3q-8 4 -8 12q0 7 7 12
q2 1 7 3q8 1 12 1q24 0 65 -1l82 -2q53 0 90.5 0.5t65.5 1.5q6 0 11.5 -4.5t5.5 -9.5q0 -10 -7.5 -13t-13.5 -3h-51q-18 0 -25.5 -5.5t-10.5 -16.5q-3 -13 9 -31q2 -3 17 -21l154 -211l144 196q8 11 12 18q12 22 12 39q0 11 -4 18.5t-21.5 10t-37.5 2.5q-10 0 -11 1
q-12 2 -18.5 5t-6.5 10q0 15 18 15l145 -2q32 0 68 0.5t66 1.5q4 -1 6 -2q7 -4 7 -13q2 -15 -15 -15h-30q-23 0 -41 -7t-39 -21q-12 -8 -45.5 -43.5t-35.5 -38.5l-140 -187q-5 -5 -5 -20l5 -15l210 -289l51 -69q12 -15 28 -20.5t30 -5.5h12h6q7 -3 10 -4q10 -5 10 -13z" />
    <glyph glyph-name="Y" unicode="Y" horiz-adv-x="891" 
d="M867 758q0 -12 -13 -12h-30q-19 0 -41 -13q-12 -7 -29 -23q-22 -21 -43 -49l-19 -28l-183 -273q-4 -6 -8 -13t-6.5 -17.5t-2.5 -24.5v-13v-194q0 -13 0.5 -25.5t8.5 -22.5q16 -20 42 -20h41q19 0 19 -17q2 -13 -10 -13q-1 -1 -71 1t-78 2q-44 0 -95 -2t-52 -1q-3 1 -4 2
q-5 5 -5 12q2 16 20 16h39q24 0 39 19q7 9 8.5 20t1.5 30v192v22q0 14 -3 25t-14 28l-199 295l-14 22q-17 25 -30 37q-20 18 -52 24q-10 1 -22.5 2t-15.5 2q-10 4 -10 11q0 9 10 15q1 1 5 2q20 0 79.5 -1t75.5 -1q33 0 64 1l60 2h13q1 0 2 -1q13 0 13 -15t-18 -15h-41
q-13 0 -23.5 -6t-10.5 -16q-1 -12 5 -26q3 -8 10 -17l203 -302l185 282q6 10 9 16q10 20 10 33q0 9 -2 13q-5 14 -22 20q-5 2 -16 3h-40q-22 0 -22 12q0 18 17 18l130 -4q30 0 62.5 1t60.5 3q4 -2 6 -4q6 -6 6 -14z" />
    <glyph glyph-name="Z" unicode="Z" horiz-adv-x="710" 
d="M683 18q0 -8 -6.5 -13t-17.5 -5h-595q-19 0 -23 7q-2 5 2 14q1 3 4 8l489 692q6 6 4 13q-2 5 -7 6q-2 0 -3 1h-241q-38 0 -66.5 -9.5t-51.5 -33.5q-18 -17 -36 -48q-6 -10 -15 -30q-3 -4 -4 -5q-5 -4 -13 -1q-9 3 -7 14l51 186q4 16 15 15q8 -1 12 -11q0 -8 2 -18.5
t9 -15.5t15 -7q1 0 4 -1h461q11 -3 13 -7q1 -3 -2 -9q-1 -2 -4 -6l-491 -692q-3 -3 -3 -5q-2 -7 0 -11q2 -6 11 -6h265h20q49 0 77 7q43 11 67.5 40t34.5 73q3 14 5 38q4 14 13 14q12 2 12 -14v-180z" />
    <glyph glyph-name="bracketleft" unicode="[" horiz-adv-x="271" 
d="M248 -131q0 -16 -18 -16h-167q-13 0 -20 7.5t-7 21.5v908q0 16 1 19q1 4 8.5 10t18.5 6h164q5 0 12.5 -4.5t7.5 -14.5q-2 -16 -20 -16h-90q-12 0 -19.5 -9t-7.5 -23v-9v-836q0 -12 9 -20t22 -8h85q9 0 14 -3q6 -4 7 -13z" />
    <glyph glyph-name="backslash" unicode="\" horiz-adv-x="452" 
d="M428 -60h-72l-324 870h73z" />
    <glyph glyph-name="bracketright" unicode="]" horiz-adv-x="271" 
d="M245 -116q0 -14 -7 -21.5t-20 -7.5h-166q-19 0 -18 16q0 16 20 16h85q13 0 22 8t9 19v836q0 24 -6 31q-9 11 -21 11h-90q-19 0 -19 16q-1 8 5 13.5t14 5.5l164 -1q12 0 18.5 -5.5t8.5 -12.5q1 -4 1 -16v-908z" />
    <glyph glyph-name="asciicircum" unicode="^" horiz-adv-x="424" 
d="M393 637q4 -6 4 -12q0 -7 -6 -12q-4 -4 -11 -4q-8 0 -15 5l-120 98q-11 8 -23 8q-11 0 -21 -8l-138 -99q-5 -3 -11 -3q-9 0 -13 7q-5 12 3 20l147 152q18 18 34 18q20 0 37 -19z" />
    <glyph glyph-name="underscore" unicode="_" horiz-adv-x="753" 
d="M780 -187h-775v30h775v-30z" />
    <glyph glyph-name="grave" unicode="`" horiz-adv-x="348" 
d="M322 621q-3 -5 -8 -5q-4 0 -10 3l-12 6l-217 108q-38 18 -38 40q0 7 5 17q9 16 28 16q20 0 37 -14l200 -147q9 -7 12 -10q6 -7 3 -14z" />
    <glyph glyph-name="a" unicode="a" horiz-adv-x="572" 
d="M551 59q2 -9 -38 -38q-46 -33 -80 -33q-15 0 -29 8t-26 29.5t-24 45.5l-5 4l-7 -3q-30 -24 -48 -36q-56 -38 -95 -49q-23 -6 -46 -6q-37 0 -65.5 13t-42 37.5t-13.5 51.5q0 55 68 106q36 27 100 57l130 61q14 6 21 17q3 5 4 13.5t2 13.5v103q0 21 -3.5 32t-14.5 24.5
t-26.5 18.5t-35.5 5q-36 0 -69 -15.5t-60 -61.5q-9 -15 -21 -45l-8 -14q-10 -14 -32.5 -23t-38.5 -9q-10 0 -13 4q-2 3 -2.5 11t-1.5 12q2 14 6 23q26 57 116 105q70 37 154 37q71 0 106 -27q30 -24 30 -60v-366q2 -17 4 -26q8 -29 28 -36q8 -2 11 -2q17 0 35 14q6 4 15 15
q6 3 12 0q2 -2 3 -11zM358 178v98q0 8 -5 12q-4 4 -15 0l-129 -65q-39 -20 -61.5 -48.5t-22.5 -60.5q0 -20 9.5 -39t28.5 -28.5t45 -9.5q32 0 64.5 14t52.5 34.5t26.5 40.5t6.5 52z" />
    <glyph glyph-name="b" unicode="b" horiz-adv-x="685" 
d="M665 264q0 -111 -92.5 -194t-220.5 -83q-54 0 -96 13l-76 35q-4 3 -6 3q-7 3 -12 2q-10 -3 -14 -11l-24 -45q-9 -17 -23 -8q-4 3 -4 8q1 7 1 11l8 42l3 30l1 38v632q0 16 -8 25.5t-16 12.5q-5 2 -16 2h-17q-19 3 -19 13q1 7 5 10q1 1 5 2q18 4 29 6q29 7 50.5 15.5
t38 21.5t22.5 13q7 0 10 -5q0 -1 1 -6v-342q0 -12 5 -15q2 0 11 1q40 20 65 30q77 30 139 30q117 0 186 -87q64 -81 64 -200zM459 40q55 35 83.5 96.5t28.5 129.5q0 78 -35 141t-99 88q-20 8 -42.5 12t-41.5 4q-42 0 -85.5 -17.5t-59.5 -37.5l-9 -11q-4 -9 -4 -18v-304v-14
q0 -10 0.5 -18.5t5.5 -18.5q17 -34 52.5 -50.5t81.5 -16.5q70 0 124 35z" />
    <glyph glyph-name="c" unicode="c" horiz-adv-x="547" 
d="M521 83q-30 -33 -53 -49q-71 -50 -154 -50h-16q-12 2 -18 2q-106 12 -175.5 93.5t-69.5 192.5q0 113 95 202t220 89q45 0 89.5 -13t63.5 -29q6 -3 10 -8q3 -4 3 -14l-1 -40v-40q0 -6 -1 -8q-3 -9 -11 -9q-6 -1 -9 1q-3 1 -13 10q-30 55 -62 89q-35 37 -79 37
q-89 0 -151.5 -78.5t-62.5 -178.5q0 -99 62.5 -174.5t155.5 -75.5q73 0 125 33q17 11 38 33q9 3 13 -1q3 -2 2 -8q0 -2 -1 -6z" />
    <glyph glyph-name="d" unicode="d" horiz-adv-x="682" 
d="M657 60q0 -7 -4 -11l-12 -6l-58 -21l-58 -24q-4 -1 -8 -3q-8 -3 -12 0t-6 11q0 2 -1 7v25q0 8 -2 17t-10 10q-5 1 -11 -3q-2 -1 -7 -5q-34 -24 -55 -36q-67 -37 -120 -37q-104 0 -181 76q-80 79 -80 190q0 116 83 211t188 95q59 0 121 -17q20 -5 50 -17q12 -1 14 1
q5 3 5 15v194q0 8 -2 16t-10 17t-16 10t-18 1t-22.5 2t-12.5 12q1 8 6 10q1 0 4 1q18 5 29 7q34 9 54.5 17t39.5 20.5t22 12.5q7 -1 8 -8v-7v-760q0 -8 1.5 -16.5t12.5 -14.5q12 -7 35 14q7 7 20 23q7 4 9 4t4 -8v-25zM492 175v226q0 52 -22 81q-16 23 -51 37t-69 14
q-22 0 -44 -4t-49 -16q-63 -27 -97.5 -89t-34.5 -137q0 -66 27.5 -126.5t81.5 -97.5q36 -24 92 -24q52 0 96.5 20t63.5 56q4 8 5 24.5t1 35.5z" />
    <glyph glyph-name="e" unicode="e" horiz-adv-x="593" 
d="M571 356v-7q-1 -8 -3 -9q-3 -3 -15 -3l-398 -1q-10 0 -16 -4q-11 -8 -11 -44q0 -86 47 -157q62 -94 178 -94q63 0 120 28q18 9 52 33q12 12 17 16q10 9 17 2q3 -3 2 -9q0 -2 -1 -6q-34 -40 -60 -59q-80 -59 -179 -59h-18q-13 2 -19 2q-107 11 -178 94t-71 194
q0 120 90.5 203.5t230.5 83.5q94 0 149 -52q40 -38 57 -98q4 -27 9 -54zM466 405q5 15 5 26q0 41 -36 73t-90 32q-95 0 -157 -62q-47 -47 -47 -80q-1 -5 -1 -7q-1 -9 1 -12q4 -7 15 -7h215q34 0 61.5 9t33.5 28z" />
    <glyph glyph-name="f" unicode="f" horiz-adv-x="455" 
d="M460 826q-2 -9 -3 -14q-4 -17 -8 -25q-7 -15 -11 -21q-2 -2 -5 -6q-7 -3 -11 -3q-3 0 -9 4l-39 40q-39 38 -73 38q-47 0 -71 -52q-19 -42 -19 -105v-108q0 -13 5.5 -19t20.5 -6h129q7 -1 7 -3q1 -1 1 -6v-22l-2 -5l-7 -1h-128q-15 0 -20.5 -6t-5.5 -22v-400q0 -27 14 -42
q9 -10 24.5 -11t30.5 -1q10 -2 11 -3q8 -4 8 -12q2 -15 -11 -15q-1 -1 -26 1q-68 5 -94 5q-25 0 -95 -5q-26 -2 -27 -1q-3 1 -4 2q-5 5 -5 12q1 7 8 12l8 4q13 1 20 1q23 3 34 11q17 13 17 40v413q0 6 -5.5 11t-15.5 5h-42q-8 0 -8 11q-1 8 11 12.5t19 6.5q21 8 29 19
q5 7 7 17t3 32.5t2 42.5q5 60 22 94q31 61 95 98q56 32 112 32q26 0 60.5 -11.5t38.5 -17.5l3 -3q3 -4 4 -8z" />
    <glyph glyph-name="g" unicode="g" horiz-adv-x="608" 
d="M582 482q0 -5 -5 -8q-3 -2 -11 -2h-73q-7 0 -10 -5q-2 -5 0 -9l2 -2q7 -20 15 -40q7 -26 7 -51q0 -18 -2 -27q-14 -76 -74 -119q-41 -29 -104 -41q-32 -6 -53 -6q-46 -4 -69 -8q-70 -14 -70 -43q0 -21 22 -31t51 -10l128 -1q134 0 193 -46q43 -34 43 -88
q0 -90 -91.5 -153t-206.5 -63q-119 0 -193 27q-100 37 -100 116q0 37 44 70l101 65q1 4 1 6q-2 7 -4 8l-82 76q-9 7 -8 15t13 12l114 47q4 1 5 2q6 4 7 8t-3 9l-2 2q-44 25 -65 45q-65 60 -65 133q0 84 68.5 142.5t168.5 58.5q29 0 56 -7q2 -1 87 -32l11 -4q8 -4 13 -4h125
q6 0 12 -6q4 -8 4 -12v-24zM413 370q0 70 -36 122q-39 56 -101 56q-64 0 -104 -51.5t-40 -120.5q0 -74 33 -123q38 -57 108 -57q66 0 105 54q35 49 35 120zM487 -83q-7 37 -45 60t-103 23h-168q-34 -17 -50 -30q-50 -40 -50 -89q0 -59 56.5 -93.5t145.5 -34.5q83 0 144 33
q72 39 72 106q0 16 -2 25z" />
    <glyph glyph-name="h" unicode="h" horiz-adv-x="710" 
d="M681 17q0 -17 -12 -17q-26 3 -42 4q-48 4 -77 4q-24 0 -57 -3t-65 -5q-3 2 -4 3q-5 6 -5 13t7 11q2 1 8 3q13 1 20 2q23 4 33.5 11.5t14 17.5t3.5 26v289q1 10 1 16q0 30 -9 55q-14 38 -46.5 59t-79.5 21q-36 0 -69 -15t-61 -47q-16 -18 -24.5 -39.5t-8.5 -51.5v-287
q0 -16 2.5 -24.5t11.5 -17.5t33 -13q7 -1 17.5 -2t17.5 -2q6 -3 6 -10q0 -18 -12 -18q-15 1 -25 2q-71 7 -95 7q-29 0 -76 -5l-43 -4q-4 2 -5 3q-6 5 -6 12q0 6 7 11l8 4q13 0 27.5 2t25.5 10t14.5 18t3.5 26v650q0 14 -9 28q-10 11 -18 11.5t-17 0.5t-22 1t-13 11q1 6 7 10
q2 1 7 3q18 5 28 7q33 9 51 16t33 17q24 17 29 17q8 0 11 -5q0 -1 1 -5v-352q2 -9 4 -11q5 -4 12 0q2 1 7 5q26 26 46 39q61 40 132 40q106 0 150 -60q34 -47 34 -139v-284q0 -16 2.5 -24.5t11.5 -18t24.5 -11.5t30.5 -2q6 -2 13 -3q6 -4 6 -10z" />
    <glyph glyph-name="i" unicode="i" horiz-adv-x="318" 
d="M219 741q0 -25 -16.5 -43.5t-39.5 -18.5t-39 18t-16 43q0 22 16.5 41.5t39.5 19.5t39 -18t16 -42zM296 13q0 -13 -11 -13q-1 -1 -53.5 1.5t-66.5 2.5q-29 0 -61.5 -1t-60.5 -3h-3q-7 3 -6 12q0 7 8 13q2 2 8 5q13 0 27.5 1t25 9t14 18t3.5 25v334q0 16 -8.5 26.5
t-16.5 11.5t-14 1q-8 -1 -12 -1q-10 0 -18 3.5t-9 11.5t4 11q2 1 13.5 1.5t32.5 3.5t35.5 12t41.5 35q20 19 27 19q8 0 11 -5q0 -1 1 -5v-459q0 -16 2.5 -24.5t11.5 -18.5q6 -6 16.5 -8.5t23.5 -2.5h13q1 0 2 1l9 -3q10 -5 10 -14z" />
    <glyph glyph-name="j" unicode="j" horiz-adv-x="233" 
d="M207 741q0 -26 -15.5 -44.5t-39.5 -18.5t-40 18t-16 43q0 22 17 42t39 20q23 0 39 -18t16 -42zM195 -31q-2 -22 -5 -35q-9 -41 -30 -74q-24 -38 -82 -83q-19 -15 -54 -39q-3 -3 -11 -3t-9 4q-2 4 0 11q0 2 2 6q20 15 31 25q33 30 48 56t19.5 52t4.5 65v425q1 9 1 15
q0 20 -3 31t-10 20t-15 10t-17.5 1t-22 2t-12.5 12q0 5 4 9q2 2 9 4q16 0 25 1q28 4 49.5 17.5t44.5 35.5q15 15 22 15q8 0 10 -6q0 -2 1 -6v-571z" />
    <glyph glyph-name="k" unicode="k" horiz-adv-x="689" 
d="M664 15q0 -15 -12 -15q-16 0 -63.5 1t-60.5 1q-31 0 -65.5 -0.5t-63.5 -1.5q-3 1 -4 2q-5 5 -5 12t7 12l8 4q9 -1 14 -1q13 0 21 3t13 8.5t5 13.5q0 9 -6 17l-4 4l-157 206q-5 8 -14 8q-7 1 -15 -5l-39 -29q-8 -6 -13 -20l-1 -17v-135q0 -17 2 -25t12 -18q6 -6 16.5 -8.5
t23.5 -2.5h13q1 0 2 1q4 0 7 -1q12 -5 12 -16q2 -13 -11 -13q-1 -1 -53.5 1.5t-66.5 2.5q-36 0 -68 -1.5l-54 -2.5q-3 0 -4 1q-5 3 -5 11q1 7 8 13q2 2 8 5q13 0 28 1t25.5 8.5t13.5 17.5t3 26v652q0 18 -9 29t-17 11.5t-16.5 0.5h-14.5q-19 3 -19 13q0 7 8 10q2 1 12 3
t28.5 7t41.5 14t40 22t23 13q9 0 10 -6v-4v-549q0 -8 8 -10l9 3l190 153q18 14 26 22q26 25 25 38q-2 10 -10.5 14t-26.5 6h-37q-5 1 -7 2q-7 4 -7 12q0 4 5 9q1 1 5 4h246q4 -1 6 -2q6 -3 6 -11q0 -4 -5.5 -8.5t-8.5 -5.5h-14q-19 0 -32.5 -3t-28.5 -9t-48 -32l-71 -59
l-75 -58q-3 -2 -4 -4q-5 -7 -6 -13q0 -9 8 -17l187 -239l14 -18q16 -21 28.5 -30.5t34.5 -12.5h20q6 -2 13 -4q6 -4 6 -11z" />
    <glyph glyph-name="l" unicode="l" horiz-adv-x="321" 
d="M294 16q2 -16 -11 -16q-1 -2 -26 0q-85 7 -94 7q-33 0 -77 -4t-45 -3q-3 2 -4 3q-5 5 -5 12q1 6 8 11l8 4q13 0 27.5 2t25.5 10t14 18t3 26v650q0 16 -10 28.5t-29 12.5q-14 -1 -21 -1q-15 0 -17 12q-2 7 11 11q2 0 7 2l39.5 11.5t36 12t30.5 16.5q25 17 30 17q7 0 10 -5
q0 -1 1 -5v-763q0 -27 14 -42q9 -9 33 -12q7 0 17 -1t16 -2q8 -4 8 -12z" />
    <glyph glyph-name="m" unicode="m" horiz-adv-x="1044" 
d="M1015 17q0 -6 -3 -11q-4 -6 -8 -6q-1 -1 -53.5 3.5t-66.5 4.5q-25 0 -95 -5q-14 -1 -27 -1q-3 1 -4 2q-5 5 -5 12q0 6 8 11q2 1 8 3q13 1 20 2q22 4 32.5 11.5t14 17.5t3.5 26v297q0 61 -24 95q-29 42 -92 42q-51 0 -100 -35q-56 -40 -56 -92v-308q0 -26 14 -43
q10 -10 28 -11t25 -2t14 -3t7 -11q1 -3 -2 -9.5t-9 -6.5q-1 -2 -26 0q-85 7 -94 7q-33 0 -77 -4t-45 -3q-2 1 -3 1q-7 5 -6 14q1 6 8 11l8 4q13 1 28 3t25 10t13.5 18t3.5 25v298q0 64 -23 97q-28 40 -93 40q-50 0 -97 -35q-52 -39 -52 -91l-2 -308q0 -18 1.5 -25t10.5 -17
t24.5 -12t25 -3t17 -2t7.5 -11q1 -4 -2 -10.5t-9 -6.5q-1 -1 -26 0q-87 5 -94 5q-34 0 -67 -2t-55 -3q-5 3 -6 5q-4 5 -3 11q1 7 8 11q2 1 8 3q13 1 20 2q23 4 33 12t13.5 18t3.5 25v328q0 16 -9 28q-5 6 -12.5 9t-19 3.5t-24.5 1.5t-13 11q0 8 5 12q1 1 6 3l38 13t38 19
q8 5 48 41q13 12 20 12t10 -5q0 -1 1 -6v-74q0 -3 3 -6q1 -1 3 -1q6 -1 11 2q2 1 5 5q29 29 49 43q63 44 125 44q20 0 36 -3t36 -12q32 -14 57 -52q8 -12 19 -35q4 -6 9 -6l8 6l86 72q51 30 101 30q38 0 78.5 -16.5t65.5 -64t25 -95.5v-308q0 -16 2.5 -24.5t11.5 -17.5
t24.5 -11t30.5 -3q6 -2 13 -3q6 -4 6 -10z" />
    <glyph glyph-name="n" unicode="n" horiz-adv-x="708" 
d="M685 16q2 -16 -11 -16q-1 -1 -50.5 3t-68.5 4q-33 0 -77 -4t-45 -3q-4 2 -5 3q-5 4 -5 12q1 6 8 11l8 4q13 0 27.5 2t25 10t14 18t3.5 26v297q0 55 -30 89q-34 38 -95 38q-58 0 -108 -32q-64 -41 -64 -115v-277q0 -18 1.5 -25t10.5 -17t24.5 -12t25.5 -2.5t17 -2.5t7 -10
q1 -6 -2 -11q-4 -6 -9 -6q-1 -2 -26 0q-85 7 -94 7q-33 0 -76 -4t-44 -3q-4 2 -5 3q-6 6 -6 13q1 7 8 11q2 1 8 3q13 1 20 2q23 4 33.5 11.5t13.5 17.5t3 26v327q0 18 -9 29t-17.5 12t-12.5 2q-8 -1 -12 -1q-11 0 -19 2.5t-8 8.5q0 8 5 11q1 1 6 2q7 3 16 6q36 13 60 28
q8 5 48 41q13 12 20 12t11 -5q1 -1 2 -5v-92l26 21q49 41 85 58q51 24 97 24q41 0 83.5 -19.5t68 -64.5t25.5 -91v-308q0 -27 15 -42q8 -9 32 -12q7 0 17 -1t16 -2q8 -4 8 -12z" />
    <glyph glyph-name="o" unicode="o" 
d="M648 270q0 -123 -90.5 -204.5t-215.5 -81.5q-124 0 -215.5 85.5t-91.5 207.5q0 120 83.5 202.5t218.5 82.5q139 0 225 -83t86 -209zM557 268q0 112 -56 188q-61 82 -162 82q-98 0 -157 -78q-55 -73 -55 -182q0 -103 55 -182q61 -88 158 -88q91 0 154 76.5t63 183.5z" />
    <glyph glyph-name="p" unicode="p" horiz-adv-x="703" 
d="M673 299q0 -117 -63 -199q-66 -86 -185 -110q-32 -6 -62 -6q-51 0 -104 15q-17 5 -43 15q-10 2 -13 0q-2 -2 -3 -8q0 -2 -1 -7v-197q0 -13 3 -23.5t12 -19.5t24.5 -10t25.5 -2t17 -4t7 -11q0 -14 -12 -14q-15 1 -25 1q-70 4 -94 4q-29 0 -61.5 -1t-60.5 -3q-2 1 -3 1
q-7 4 -6 13q0 7 7 12l8 4q13 0 28 1t25.5 9t14 18t3.5 25v613q-1 7 -3 14.5t-8 14.5q-9 11 -17.5 11.5t-17 0.5h-14.5q-19 3 -19 13q1 6 6 11q1 1 5 3q15 3 24 5q28 8 50 21t43.5 33.5t26.5 20.5q8 0 11 -10v-79q26 28 88.5 58.5t102.5 30.5q116 0 199.5 -78.5t83.5 -185.5z
M474 477q-52 33 -114 33q-40 0 -72 -12t-50.5 -33t-24.5 -31q-14 -23 -14 -47v-248q0 -41 20 -70q13 -19 33 -31t42 -19q32 -11 62 -11q24 0 46.5 5.5t48.5 19.5q58 30 92.5 96t34.5 142q0 64 -25 117.5t-79 88.5z" />
    <glyph glyph-name="q" unicode="q" horiz-adv-x="629" 
d="M674 -268q0 -6 -3 -10t-8 -4q-2 -2 -54.5 1.5t-65.5 3.5q-29 0 -61.5 -2t-60.5 -4q-2 1 -3 1q-7 4 -6 13q0 7 8 12l8 4q13 0 27.5 2t25 10t14 18t3.5 25v217q-1 10 -4 12q-2 2 -9 0h-3q-30 -18 -73.5 -32t-87.5 -14q-20 0 -41 3q-113 17 -179.5 99.5t-66.5 201.5
q0 114 88 194.5t218 80.5q69 0 126 -21q4 -1 59 -29q3 -4 5 -5q6 -5 12 -5q9 1 16 13l22 40q7 12 19 8q4 -1 5 -8v-8q-3 -10 -4 -16q-7 -25 -9 -40q-7 -43 -7 -84v-607q0 -26 16 -43q10 -10 28 -10.5t25 -1.5t14 -4t7 -11zM498 114v310v21q0 18 -6 31q-16 32 -49.5 48.5
t-76.5 16.5q-75 0 -132 -44q-52 -41 -80.5 -101.5t-28.5 -124.5q0 -66 28.5 -122t86.5 -93q29 -19 59.5 -27.5t58.5 -8.5q25 0 49.5 6t49.5 24q18 12 29.5 28t11.5 36z" />
    <glyph glyph-name="r" unicode="r" horiz-adv-x="457" 
d="M434 506q0 -22 -14.5 -36.5t-34.5 -14.5q-26 -2 -44 19q-22 25 -37 27q-35 3 -66.5 -43t-31.5 -81v-289q0 -14 3.5 -23.5t13 -19t32.5 -13.5q7 -1 19.5 -2.5t15.5 -4.5q6 -5 6 -11q2 -14 -11 -14q-2 -2 -54 1.5t-65 3.5q-30 0 -62 -2t-58 -4q-4 3 -6 5q-6 6 -6 13
q1 6 8 10q2 1 11.5 3t16.5 3q23 4 33 11.5t13.5 18t3.5 25.5v328q0 16 -9 27.5t-17 12t-16.5 0.5h-14.5q-20 3 -21 13q0 9 8 13q1 0 4 1q16 6 25 9q30 12 50 24q8 5 48 41q13 12 20 12q9 0 10 -6v-4l1 -88l4 -6q3 -1 8 2q1 0 4 3q22 32 38 47q48 47 97 47q30 0 52.5 -16
t22.5 -42z" />
    <glyph glyph-name="s" unicode="s" horiz-adv-x="466" 
d="M433 220q4 -11 6 -25.5t2 -26.5q0 -73 -63 -126q-59 -50 -140 -57q-7 -1 -21 -1q-49 0 -105.5 16t-65.5 27l-7 8l-2 11l2 87q0 26 4.5 35t13.5 10q10 1 16 -13q1 -2 3.5 -20.5t6.5 -35.5q14 -53 46.5 -77.5t83.5 -24.5q54 0 99 28t51 76q1 7 1 13v7q0 41 -27.5 68.5
t-90.5 49.5l-84 30q-20 9 -32 16q-72 45 -72 111q0 67 59.5 111.5t141.5 44.5q35 0 86 -9q17 -3 44 -9q3 -1 5 -2q6 -3 9 -6q7 -8 7 -21v-80q0 -8 -10 -11q-4 -1 -10 2q-1 0 -2 2q-16 46 -49 77q-37 35 -99 35q-46 0 -72.5 -23t-32.5 -59q-1 -4 -1 -12q0 -35 30 -61
q24 -21 66 -36l75 -26q48 -16 82.5 -43.5t45.5 -59.5z" />
    <glyph glyph-name="t" unicode="t" horiz-adv-x="382" 
d="M352 66q4 -3 4 -9q0 -8 -6 -11q-23 -22 -38 -33q-48 -34 -94 -34q-17 0 -24.5 1.5t-23.5 7.5q-36 14 -52 47.5t-16 75.5v381v9q-1 5 -4 9q-3 3 -8 4h-5h-40h-6q-7 2 -8 9t3 11q1 1 3 2l27 18q29 20 48 39q13 12 38 53q21 33 25 33q7 0 10 -5q1 -1 2 -6v-102q0 -9 3 -11
q3 -4 12 -4h127q6 0 7 -1t1 -7v-24l-2 -4l-5 -1h-129q-10 -2 -12 -4q-2 -3 -2 -17v-376q0 -32 11 -54t37 -33q9 -4 22 -4q25 0 56 20q10 6 26 20q10 2 13 0z" />
    <glyph glyph-name="u" unicode="u" horiz-adv-x="712" 
d="M686 56q1 -6 -6.5 -9t-13.5 -4q-28 -8 -71 -24q-22 -8 -40.5 -20l-35.5 -23q-3 0 -5 4v78q0 9 -6 11q-2 1 -9 -3q-38 -34 -88 -59.5t-95 -25.5q-90 0 -142 61q-48 57 -48 148v275q0 16 -1.5 23.5t-7.5 19.5q-9 16 -44.5 18t-36.5 12q-1 9 6 11.5t19 2.5h133q4 0 11 -6
t7 -13l1 -323q0 -55 8 -87.5t37 -57.5q19 -16 43 -23.5t55 -7.5q33 0 63.5 9t52 26t33 33.5t11.5 39.5l1 334q0 16 -10 31.5t-46 17.5t-36 13q0 9 9 11.5t24 2.5h133q5 0 10 -5q3 -3 3 -12l-1 -424q1 -9 2.5 -19t7.5 -17t15.5 -9t20.5 -2q8 0 17 1q3 0 7 1q4 -1 6 -1
q6 -2 7 -9z" />
    <glyph glyph-name="v" unicode="v" horiz-adv-x="689" 
d="M670 539q0 -11 -9 -14q-8 1 -12 1q-14 0 -26.5 -4t-26.5 -16t-25.5 -32t-18.5 -41l-204 -450l-3 -3q-5 -4 -8 -4q-4 -1 -7 3q-1 1 -3 5l-188 473q-8 19 -10 23q-10 21 -19.5 30.5t-23 12t-17.5 2.5h-18q-5 2 -7 3q-8 5 -7 11q0 13 22 13h234q14 0 14 -14q0 -7 -7 -10
t-8 -3q-11 2 -18 2q-20 0 -30.5 -5.5t-16.5 -16.5q-2 -6 -2 -12q0 -8 2 -16t6 -17l138 -343l151 332q4 10 8 22.5t4 21.5q0 11 -6 19t-18.5 11t-24.5 3q-12 -1 -23 -1q-11 2 -11 14q0 13 12 13h195q4 -1 6 -2q6 -3 6 -11z" />
    <glyph glyph-name="w" unicode="w" horiz-adv-x="1046" 
d="M1018 541q0 -4 -4 -10q-4 -5 -6 -6q-9 1 -15 1q-14 0 -26.5 -3.5t-25.5 -15.5t-26 -35t-17 -40l-186 -448q-6 -8 -10 -8t-9 5q-1 2 -2 3l-164 373l-160 -372q-2 -3 -3 -4q-4 -4 -9 -5t-9 3q-1 1 -4 5l-203 469q-8 18 -17.5 35t-16 23.5t-15.5 10.5t-22 4q-2 0 -9.5 -1
t-8.5 0q-3 2 -4 3q-10 8 -9 14q0 6 10 10h572q19 0 19 -13q0 -12 -34 -13t-39 -23q-3 -9 3 -27l9 -23l153 -335l139 325q9 20 9 41q0 16 -6.5 25t-18.5 12.5t-26 3.5h-12h-6q-12 2 -12 15q0 12 13 12h195q4 -1 6 -1q7 -3 7 -10zM504 385l-1 14l-33 72q-4 9 -7.5 19t-10.5 17
q-19 18 -51 18h-127q-20 0 -33 -3.5t-16.5 -16.5t-3.5 -17q0 -8 2 -15t8 -21l154 -338l115 255q4 12 4 16z" />
    <glyph glyph-name="x" unicode="x" horiz-adv-x="697" 
d="M677 14q1 -7 -5 -11q-1 -1 -6 -3h-32q-117 3 -121 3q-60 0 -79 -0.5t-34 -2.5q-4 0 -9.5 6.5t-4.5 11.5q0 12 13 12h50q4 0 12.5 0.5t12.5 11.5q3 7 -3 21l-7 14l-127 166l-113 -143l-9 -15q-10 -19 -10 -31q0 -7 3 -13t18 -8.5t31 -2.5h13h2q17 -2 17 -15q0 -8 -5 -12
q-1 -1 -6 -3q-24 2 -54 3t-60 1q-39 0 -68.5 -1.5l-49.5 -2.5q-4 2 -5 3q-6 5 -6 12q0 11 16 15q13 0 36.5 3t48.5 21q14 10 38 37l23 27l112 138q2 4 2 6q3 7 2 11q-2 6 -4 10q-1 1 -3 4l-123 162l-18 26q-19 27 -25 33q-19 19 -56.5 20t-37.5 12q0 6 6 10q2 1 6 2h275
q4 -2 5 -3q6 -5 6 -8q0 -7 -6 -12q-2 -1 -6 -4q-3 0 -11 1t-14 1q-16 0 -28 -3.5t-16 -11.5q-6 -14 5 -33q4 -7 16 -22l90 -121l85 109q8 11 11 17q11 20 11 37q0 9 -2 13q-3 8 -20 11q-19 1 -35 2.5t-16 14.5q0 12 15 12h235q4 0 6 -1q6 -3 6 -11q0 -13 -14 -15
q-1 -1 -10.5 -1t-19.5 1q-17 0 -32 -2.5t-28 -9.5t-46 -45l-30 -36l-86 -104q-2 -3 -2 -5q-2 -6 -2 -11t2 -10q0 -2 3 -5l136 -185l24 -30t28 -33t20 -14.5t26 -6.5q8 0 14 1q3 0 7 1q6 -2 8 -3q8 -5 9 -13z" />
    <glyph glyph-name="y" unicode="y" horiz-adv-x="700" 
d="M671 541q2 -12 -9 -16q-20 0 -35.5 -4.5t-30 -19t-27.5 -37.5q-17 -29 -23 -48l-269 -638q-12 -29 -19 -38q-17 -24 -55 -24q-28 0 -48 15q-15 11 -15 42q0 16 10.5 28.5t30.5 12.5q9 0 25 -2.5t19 -2.5q15 0 26.5 12t15.5 23l53 126q6 13 5 28q0 12 -2 18q-5 10 -7 16
l-181 423q-6 17 -13.5 33t-16.5 24.5t-21.5 11t-17.5 2.5q-2 0 -9 -1t-8 0l-6 3q-7 4 -7 10q0 8 5 12q1 1 5 2h256q13 0 13 -12q0 -7 -6 -11q-2 -1 -7 -4h-21q-21 0 -35.5 -4t-19 -13.5t-4.5 -18.5q0 -6 1 -11q2 -7 6 -19l149 -356l146 343q3 8 6 17.5t3 19.5
q0 15 -8.5 25.5t-25.5 13.5t-27 3h-19q-12 2 -12 15q0 12 13 12h205q12 -3 12 -11z" />
    <glyph glyph-name="z" unicode="z" horiz-adv-x="544" 
d="M518 547q1 -3 -1 -12q0 -1 -1 -4l-352 -482q-2 -2 -2 -3q-2 -5 -1 -8q3 -7 12 -7h173q46 0 69.5 9.5t41 27.5t27.5 47q3 9 7 26q6 12 13 12q5 0 10 -7q0 -1 1 -4v-130q0 -7 -5 -10q-4 -2 -11 -2h-444q-15 0 -18 6q-2 3 0 12q0 3 3 9l350 472q3 9 3 13q-1 4 -8 6h-168
q-38 0 -58 -6.5t-40 -24.5q-13 -10 -27 -28q-4 -6 -12 -17q-1 -2 -2 -2q-7 -5 -13 -4q-9 5 -6 15l48 141q4 13 15 11q10 -2 10 -19.5t6.5 -25.5t22.5 -8q5 0 11 1q2 0 5 1h332q7 -2 9 -5z" />
    <glyph glyph-name="braceleft" unicode="{" horiz-adv-x="296" 
d="M267 782q-20 -5 -36 -16.5t-24 -24.5t-14.5 -33t-6.5 -39v-232q0 -43 -5 -60t-18.5 -34t-36.5 -30q-17 -9 -31 -12q21 -4 40 -15.5t30 -26.5q16 -22 20 -70q0 -8 1 -22v-228q0 -23 4 -45t11.5 -34t25 -25.5t37.5 -18.5q-8 -2 -22 -2q-35 0 -59.5 10.5t-41 27.5t-22 38.5
t-5.5 48.5v247q0 50 -26 79q-11 13 -28 23t-30 14q13 2 32 12q24 13 35 28.5t15 49.5q1 11 2 31v228q0 28 8.5 57.5t30.5 48.5q14 12 36.5 19t57.5 7q18 0 20 -1z" />
    <glyph glyph-name="bar" unicode="|" horiz-adv-x="135" 
d="M113 -187h-82v971h81z" />
    <glyph glyph-name="braceright" unicode="}" horiz-adv-x="292" 
d="M270 302q-30 -6 -57.5 -35.5t-27.5 -79.5v-247q0 -37 -6 -54.5t-21 -33.5q-21 -21 -52 -31q-23 -7 -49 -7q-14 0 -22 2q21 5 37 17.5t27 29.5q6 9 10 31t4 45v229q1 23 2 35q5 37 18.5 56.5t38.5 31.5q17 8 33 11q-20 3 -39 15.5t-29 26.5q-13 17 -18.5 40.5t-5.5 52.5
v233q0 20 -5.5 38t-14.5 32.5t-24.5 25.5t-36.5 16q6 2 21 2q34 0 56.5 -7t36.5 -20q21 -17 30 -49t9 -57v-227q0 -11 1 -35.5t15 -43.5t33.5 -30t35.5 -13z" />
    <glyph glyph-name="asciitilde" unicode="~" horiz-adv-x="517" 
d="M500 761q-19 -30 -32 -45q-41 -45 -83 -45q-8 -1 -10 -1q-23 0 -47 7q-8 2 -20 8l-50 19q-20 9 -33 13q-41 14 -66 14q-11 0 -16 -1q-27 -6 -53 -37q-8 -10 -20 -30l-40 26q16 24 27 37q33 39 64 50q20 7 42 7q27 0 57 -10q10 -3 25 -10l58 -22q25 -9 40.5 -13.5
t29.5 -4.5t27.5 4.5t29.5 18.5q20 18 28 39z" />
    <glyph glyph-name="Adieresis" unicode="&#xc4;" horiz-adv-x="869" 
d="M836 14q0 -14 -12 -14q-1 -1 -14 -1q-15 0 -74 2t-69 2l-157 -3q-5 1 -7 2q-7 4 -7 12q1 7 6.5 11.5t14.5 4.5h39q17 0 29.5 4.5t18.5 15.5t6 21q0 17 -4 25l-70 175q-5 11 -13 17q-11 6 -21 6h-212q-14 0 -21.5 -5t-10.5 -15l-61 -161q-6 -15 -6 -31q0 -15 8 -28
q17 -24 47 -24h42q19 0 19 -14t-10 -14q-3 -3 -23 -3q-15 0 -61 2t-51 2q-38 0 -83 -2t-46 -1q-3 1 -4 2q-5 5 -5 12q0 8 6 12t13 4h41q9 0 19 7l18.5 16.5t13.5 18t11 25.5l266 695q6 14 16 14t14 -14l273 -685q6 -15 11.5 -26t13.5 -20q17 -18 19 -20q14 -11 29 -11h29
q18 0 19 -16zM506 348l-103 256q-4 13 -10 13q-4 0 -7 -4q-2 -2 -4 -8l-97 -258q-2 -9 -1 -12q3 -4 12 -4h198q7 0 11 4q3 4 1 13zM396 889q0 -24 -14.5 -37.5t-35.5 -13.5q-22 0 -39 15t-17 41q0 24 14.5 37.5t35.5 13.5q22 0 39 -15t17 -41zM625 889q0 -25 -15.5 -38.5
t-36.5 -13.5q-22 0 -38 14t-16 40q0 25 15.5 38.5t36.5 13.5t37.5 -14.5t16.5 -39.5z" />
    <glyph glyph-name="Aring" unicode="&#xc5;" horiz-adv-x="866" 
d="M822 14q0 -14 -12 -14q-1 -1 -14 -1q-15 0 -74 2t-69 2l-157 -3q-5 1 -7 2q-7 4 -7 12q1 7 6.5 11.5t14.5 4.5h39q17 0 29.5 4.5t18.5 15.5t6 21q0 17 -4 25l-70 175q-5 11 -13 17q-11 6 -21 6h-212q-14 0 -21.5 -5t-10.5 -15l-61 -161q-6 -15 -6 -31q0 -15 8 -28
q17 -24 47 -24h42q19 0 19 -14t-10 -14q-3 -3 -23 -3q-15 0 -61 2t-51 2q-38 0 -83 -2t-46 -1q-3 1 -4 2q-5 5 -5 12q0 8 6 12t13 4h41q9 0 19 7l18.5 16.5t13.5 18t11 25.5l266 695q6 14 16 14t14 -14l273 -685q6 -15 11.5 -26t13.5 -20q17 -18 19 -20q14 -11 29 -11h29
q18 0 19 -16zM492 348l-103 256q-4 13 -10 13q-4 0 -7 -4q-2 -2 -4 -8l-97 -258q-2 -9 -1 -12q3 -4 12 -4h198q7 0 11 4q3 4 1 13zM494 912q0 -34 -21 -53t-51 -19t-54 21t-24 57q0 34 21 53t51 19t54 -21t24 -57zM474 912q0 26 -17.5 41.5t-39.5 15.5q-21 0 -36 -13
t-15 -38q0 -26 17.5 -41.5t39.5 -15.5t36.5 13t14.5 38z" />
    <glyph glyph-name="Ccedilla" unicode="&#xc7;" horiz-adv-x="746" 
d="M726 185l-8 -121q0 -11 -6.5 -19.5t-16.5 -11.5q-40 -25 -116 -46q-65 -18 -119 -18h-18q-7 1 -11 1l-52 4l-51 -66h11q8 1 16 1q20 0 42 -2.5t37 -7.5q30 -11 45 -30t15 -41q0 -26 -17 -49.5t-44 -36.5q-14 -7 -35.5 -11t-39.5 -4q-34 0 -60.5 8.5t-38.5 24.5
q-5 6 -5 17q0 12 9 21t20 6q19 -25 40 -41t54 -16q31 0 54 22t23 49q0 22 -18 39t-58 23q-7 1 -10 1q-9 1 -19 1q-14 0 -34 -2.5t-21 -2.5q-8 0 -11 4q-4 5 2 14l64 86q-144 38 -228.5 155.5t-84.5 264.5q0 163 128.5 284.5t296.5 121.5q60 0 141 -18q67 -15 79 -23
q6 -2 8 -3q9 -4 12 -9q3 -6 5 -17l13 -111q2 -18 -8 -21q-9 -3 -13 1t-8 9q-20 62 -72 106q-58 49 -141 49q-158 0 -249 -122q-80 -107 -80 -256q0 -146 77 -255q82 -116 215 -131q8 -1 17.5 -1.5t14.5 -0.5q77 0 135 49q40 34 70 93l21 50q4 6 5 8q3 4 13 1q10 -1 10 -20z
" />
    <glyph glyph-name="Eacute" unicode="&#xc9;" horiz-adv-x="685" 
d="M658 171l-25 -164l-1 -6l-5 -1q-38 0 -100 0.5l-178 1.5t-160 1l-142 -3q-3 1 -4 1q-11 4 -10 13q0 8 6 12t13 4h45q22 0 39 19q7 9 8.5 19.5t1.5 29.5v585v13q0 19 -10 32q-15 18 -39 18h-44q-19 0 -19 17q0 7 8 11q2 1 8 2h144h412q14 0 16 -3q4 -4 4 -17v-144
q0 -12 -11 -13q-6 -1 -12 9l-30 58q-17 31 -29 42q-19 18 -52.5 28t-72.5 10h-107h-29q-14 -2 -25.5 -13t-11.5 -35v-228q0 -12 10 -20.5t22 -8.5h153q20 0 31 3t21.5 17t16.5 47q2 11 4 31q4 16 16 14q13 -2 13 -15q-2 -23 -2 -37q-3 -55 -3 -69q0 -43 3 -98q0 -10 2 -27
q0 -4 -1 -6q-3 -7 -11 -8q-7 0 -12 7l-4 8q-3 18 -5 27q-7 29 -17 42q-13 17 -38 22t-49 5h-119q-12 0 -21.5 -10t-9.5 -26v-253q0 -23 11 -41q6 -10 19 -22.5t51 -18.5q12 -1 34 -3h70q49 0 80 7t63 32q15 12 29.5 43l29.5 63q4 10 13 9q14 -1 12 -13zM511 1014
q5 -10 5 -16q0 -22 -38 -42l-218 -108l-14 -6t-9 -3q-4 0 -7 5q-4 6 1 12t14 13l200 147q17 14 37 14t29 -16z" />
    <glyph glyph-name="Ntilde" unicode="&#xd1;" horiz-adv-x="872" 
d="M854 757q0 -11 -16 -11h-46q-12 0 -19.5 -5t-17 -15.5t-12 -23.5t-2.5 -32v-673q-1 -12 -5 -13q-9 -3 -14 4l-541 702l-1 -583q1 -14 2.5 -30.5t8.5 -27.5q13 -19 46 -19h31q8 0 16.5 -4.5t8.5 -12.5q0 -3 -2 -6q-5 -7 -10 -7q-2 -2 -17 -2q-12 0 -55 2t-50 2
q-18 0 -44 -1t-56 -3q-12 0 -14 2q-5 2 -7 3q-7 5 -7 13q1 14 17 14h36l20 3q23 5 30.5 15t8.5 26.5t1 31.5v573q0 18 -2.5 28.5t-10 21t-29.5 15.5q-3 0 -11 2h-36q-22 0 -21 15q0 6 5 11q1 1 5 4h174l15 -3q4 -2 8 -7q1 -2 2 -3l465 -602v511q0 25 -3 34t-11 18
q-19 22 -42 22h-36q-23 0 -23 12q-1 9 7 16q4 3 10 3l120 -6q37 0 65 1.5t42 3.5q17 0 17 -19zM697 936q-19 -30 -32 -45q-41 -45 -83 -45q-8 -1 -10 -1q-23 0 -47 7q-8 2 -20 8l-50 19q-20 9 -33 13q-41 14 -66 14q-11 0 -16 -1q-27 -6 -53 -37q-8 -10 -20 -30l-40 26
q16 24 27 37q33 39 64 50q20 7 42 7q27 0 57 -10q10 -3 25 -10l58 -22q25 -9 40.5 -13.5t29.5 -4.5t27.5 4.5t29.5 18.5q20 18 28 39z" />
    <glyph glyph-name="Odieresis" unicode="&#xd6;" horiz-adv-x="911" 
d="M893 385q0 -173 -127.5 -288.5t-303.5 -115.5q-174 0 -300.5 121.5t-126.5 293.5q0 163 127 279t300 116q175 0 303 -117.5t128 -288.5zM779 387q0 157 -81 259q-87 110 -236 110q-148 0 -235 -108q-80 -100 -80 -253q0 -166 76 -267q84 -112 239 -112q150 0 237 111
q80 102 80 260zM426 890q0 -24 -14.5 -37.5t-35.5 -13.5q-22 0 -39 15t-17 41q0 24 14.5 37.5t35.5 13.5q22 0 39 -15t17 -41zM655 890q0 -25 -15.5 -38.5t-36.5 -13.5q-22 0 -38 14t-16 40q0 25 15.5 38.5t36.5 13.5t37.5 -14.5t16.5 -39.5z" />
    <glyph glyph-name="Udieresis" unicode="&#xdc;" horiz-adv-x="869" 
d="M834 760q1 -14 -17 -14h-44q-9 0 -14 -3q-4 -2 -19 -19q-7 -9 -8 -26.5l-2 -34.5v-407q0 -75 -7 -105q-14 -61 -63 -102q-40 -33 -100 -49t-127 -16q-38 0 -75 5t-68 13q-85 24 -122 69t-37 117v493q0 18 -1.5 27t-9.5 19q-15 19 -40 19h-38q-20 0 -21 12q0 7 5 13
q1 2 6 5q32 -1 85.5 -2t59.5 -1q45 0 97 2t53 1q10 0 10 -18q0 -12 -20 -12h-41q-25 0 -40 -19q-7 -8 -9 -15t-2 -31v-451q0 -39 6.5 -79t24.5 -64q28 -37 78.5 -55t111.5 -18q48 0 92.5 11t74.5 30q54 33 69 77q10 29 10 99v431q0 16 -1 34t-11 28q-18 22 -45 22h-39h-15
q-7 1 -8 9q0 9 7 15t11 6l119 -5q30 0 68.5 3t39.5 2q7 -3 10 -5q6 -5 6 -11zM408 891q0 -24 -15.5 -37.5t-36.5 -13.5q-23 0 -40.5 14.5t-17.5 41.5q0 24 15.5 37.5t36.5 13.5q23 0 40.5 -14.5t17.5 -41.5zM644 891q0 -25 -15.5 -38.5t-37.5 -13.5q-23 0 -39.5 14t-16.5 40
q0 25 15.5 38.5t37.5 13.5t39 -15t17 -39z" />
    <glyph glyph-name="aacute" unicode="&#xe1;" horiz-adv-x="571" 
d="M551 59q2 -9 -38 -38q-46 -33 -80 -33q-15 0 -29 8t-26 29.5t-24 45.5l-5 4l-7 -3q-30 -24 -48 -36q-56 -38 -95 -49q-23 -6 -46 -6q-37 0 -65.5 13t-42 37.5t-13.5 51.5q0 55 68 106q36 27 100 57l130 61q14 6 21 17q3 5 4 13.5t2 13.5v103q0 21 -3.5 32t-14.5 24.5
t-26.5 18.5t-35.5 5q-36 0 -69 -15.5t-60 -61.5q-9 -15 -21 -45l-8 -14q-10 -14 -32.5 -23t-38.5 -9q-10 0 -13 4q-2 3 -2.5 11t-1.5 12q2 14 6 23q26 57 116 105q70 37 154 37q71 0 106 -27q30 -24 30 -60v-366q2 -17 4 -26q8 -29 28 -36q8 -2 11 -2q17 0 35 14q6 4 15 15
q6 3 12 0q2 -2 3 -11zM358 178v98q0 8 -5 12q-4 4 -15 0l-129 -65q-39 -20 -61.5 -48.5t-22.5 -60.5q0 -20 9.5 -39t28.5 -28.5t45 -9.5q32 0 64.5 14t52.5 34.5t26.5 40.5t6.5 52zM443 795q5 -10 5 -17q0 -23 -39 -43l-224 -111l-14 -6t-9 -3q-5 0 -8 5q-4 7 2 14
q2 2 14 12l205 151q19 14 38 14q21 0 30 -16z" />
    <glyph glyph-name="agrave" unicode="&#xe0;" horiz-adv-x="571" 
d="M551 59q2 -9 -38 -38q-46 -33 -80 -33q-15 0 -29 8t-26 29.5t-24 45.5l-5 4l-7 -3q-30 -24 -48 -36q-56 -38 -95 -49q-23 -6 -46 -6q-37 0 -65.5 13t-42 37.5t-13.5 51.5q0 55 68 106q36 27 100 57l130 61q14 6 21 17q3 5 4 13.5t2 13.5v103q0 21 -3.5 32t-14.5 24.5
t-26.5 18.5t-35.5 5q-36 0 -69 -15.5t-60 -61.5q-9 -15 -21 -45l-8 -14q-10 -14 -32.5 -23t-38.5 -9q-10 0 -13 4q-2 3 -2.5 11t-1.5 12q2 14 6 23q26 57 116 105q70 37 154 37q71 0 106 -27q30 -24 30 -60v-366q2 -17 4 -26q8 -29 28 -36q8 -2 11 -2q17 0 35 14q6 4 15 15
q6 3 12 0q2 -2 3 -11zM358 178v98q0 8 -5 12q-4 4 -15 0l-129 -65q-39 -20 -61.5 -48.5t-22.5 -60.5q0 -20 9.5 -39t28.5 -28.5t45 -9.5q32 0 64.5 14t52.5 34.5t26.5 40.5t6.5 52zM435 623q-3 -5 -8 -5q-4 0 -10 3l-12 6l-217 108q-38 18 -38 40q0 7 5 17q9 16 28 16
q20 0 37 -14l200 -147q9 -7 12 -10q6 -7 3 -14z" />
    <glyph glyph-name="acircumflex" unicode="&#xe2;" horiz-adv-x="575" 
d="M551 59q2 -9 -38 -38q-46 -33 -80 -33q-15 0 -29 8t-26 29.5t-24 45.5l-5 4l-7 -3q-30 -24 -48 -36q-56 -38 -95 -49q-23 -6 -46 -6q-37 0 -65.5 13t-42 37.5t-13.5 51.5q0 55 68 106q36 27 100 57l130 61q14 6 21 17q3 5 4 13.5t2 13.5v103q0 21 -3.5 32t-14.5 24.5
t-26.5 18.5t-35.5 5q-36 0 -69 -15.5t-60 -61.5q-9 -15 -21 -45l-8 -14q-10 -14 -32.5 -23t-38.5 -9q-10 0 -13 4q-2 3 -2.5 11t-1.5 12q2 14 6 23q26 57 116 105q70 37 154 37q71 0 106 -27q30 -24 30 -60v-366q2 -17 4 -26q8 -29 28 -36q8 -2 11 -2q17 0 35 14q6 4 15 15
q6 3 12 0q2 -2 3 -11zM358 178v98q0 8 -5 12q-4 4 -15 0l-129 -65q-39 -20 -61.5 -48.5t-22.5 -60.5q0 -20 9.5 -39t28.5 -28.5t45 -9.5q32 0 64.5 14t52.5 34.5t26.5 40.5t6.5 52zM476 643q4 -6 4 -12q0 -7 -6 -12q-4 -4 -11 -4q-8 0 -15 5l-120 98q-11 8 -23 8
q-11 0 -21 -8l-138 -99q-5 -3 -11 -3q-9 0 -13 7q-5 12 3 20l147 152q18 18 34 18q20 0 37 -19z" />
    <glyph glyph-name="adieresis" unicode="&#xe4;" horiz-adv-x="575" 
d="M551 59q2 -9 -38 -38q-46 -33 -80 -33q-15 0 -29 8t-26 29.5t-24 45.5l-5 4l-7 -3q-30 -24 -48 -36q-56 -38 -95 -49q-23 -6 -46 -6q-37 0 -65.5 13t-42 37.5t-13.5 51.5q0 55 68 106q36 27 100 57l130 61q14 6 21 17q3 5 4 13.5t2 13.5v103q0 21 -3.5 32t-14.5 24.5
t-26.5 18.5t-35.5 5q-36 0 -69 -15.5t-60 -61.5q-9 -15 -21 -45l-8 -14q-10 -14 -32.5 -23t-38.5 -9q-10 0 -13 4q-2 3 -2.5 11t-1.5 12q2 14 6 23q26 57 116 105q70 37 154 37q71 0 106 -27q30 -24 30 -60v-366q2 -17 4 -26q8 -29 28 -36q8 -2 11 -2q17 0 35 14q6 4 15 15
q6 3 12 0q2 -2 3 -11zM358 178v98q0 8 -5 12q-4 4 -15 0l-129 -65q-39 -20 -61.5 -48.5t-22.5 -60.5q0 -20 9.5 -39t28.5 -28.5t45 -9.5q32 0 64.5 14t52.5 34.5t26.5 40.5t6.5 52zM234 671q0 -24 -14.5 -37.5t-35.5 -13.5q-22 0 -39 15t-17 41q0 24 14.5 37.5t35.5 13.5
q22 0 39 -15t17 -41zM463 671q0 -25 -15.5 -38.5t-36.5 -13.5q-22 0 -38 14t-16 40q0 25 15.5 38.5t36.5 13.5t37.5 -14.5t16.5 -39.5z" />
    <glyph glyph-name="atilde" unicode="&#xe3;" horiz-adv-x="568" 
d="M551 59q2 -9 -38 -38q-46 -33 -80 -33q-15 0 -29 8t-26 29.5t-24 45.5l-5 4l-7 -3q-30 -24 -48 -36q-56 -38 -95 -49q-23 -6 -46 -6q-37 0 -65.5 13t-42 37.5t-13.5 51.5q0 55 68 106q36 27 100 57l130 61q14 6 21 17q3 5 4 13.5t2 13.5v103q0 21 -3.5 32t-14.5 24.5
t-26.5 18.5t-35.5 5q-36 0 -69 -15.5t-60 -61.5q-9 -15 -21 -45l-8 -14q-10 -14 -32.5 -23t-38.5 -9q-10 0 -13 4q-2 3 -2.5 11t-1.5 12q2 14 6 23q26 57 116 105q70 37 154 37q71 0 106 -27q30 -24 30 -60v-366q2 -17 4 -26q8 -29 28 -36q8 -2 11 -2q17 0 35 14q6 4 15 15
q6 3 12 0q2 -2 3 -11zM358 178v98q0 8 -5 12q-4 4 -15 0l-129 -65q-39 -20 -61.5 -48.5t-22.5 -60.5q0 -20 9.5 -39t28.5 -28.5t45 -9.5q32 0 64.5 14t52.5 34.5t26.5 40.5t6.5 52zM529 717q-19 -30 -32 -45q-41 -45 -83 -45q-8 -1 -10 -1q-23 0 -47 7q-8 2 -20 8l-50 19
q-20 9 -33 13q-41 14 -66 14q-11 0 -16 -1q-27 -6 -53 -37q-8 -10 -20 -30l-40 26q16 24 27 37q33 39 64 50q20 7 42 7q27 0 57 -10q10 -3 25 -10l58 -22q25 -9 40.5 -13.5t29.5 -4.5t27.5 4.5t29.5 18.5q20 18 28 39z" />
    <glyph glyph-name="aring" unicode="&#xe5;" horiz-adv-x="571" 
d="M551 52q2 -9 -38 -38q-46 -33 -80 -33q-15 0 -29 8t-26 29.5t-24 45.5l-5 4l-7 -3q-30 -24 -48 -36q-56 -38 -95 -49q-23 -6 -46 -6q-37 0 -65.5 13t-42 37.5t-13.5 51.5q0 55 68 106q36 27 100 57l130 61q14 6 21 17q3 5 4 13.5t2 13.5v103q0 21 -3.5 32t-14.5 24.5
t-26.5 18.5t-35.5 5q-36 0 -69 -15.5t-60 -61.5q-9 -15 -21 -45l-8 -14q-10 -14 -32.5 -23t-38.5 -9q-10 0 -13 4q-2 3 -2.5 11t-1.5 12q2 14 6 23q26 57 116 105q70 37 154 37q71 0 106 -27q30 -24 30 -60v-366q2 -17 4 -26q8 -29 28 -36q8 -2 11 -2q17 0 35 14q6 4 15 15
q6 3 12 0q2 -2 3 -11zM358 171v98q0 8 -5 12q-4 4 -15 0l-129 -65q-39 -20 -61.5 -48.5t-22.5 -60.5q0 -20 9.5 -39t28.5 -28.5t45 -9.5q32 0 64.5 14t52.5 34.5t26.5 40.5t6.5 52zM376 650q0 -34 -21 -53t-51 -19t-54 21t-24 57q0 34 21 53t51 19t54 -21t24 -57zM356 650
q0 26 -17.5 41.5t-39.5 15.5q-21 0 -36 -13t-15 -38q0 -26 17.5 -41.5t39.5 -15.5t36.5 13t14.5 38z" />
    <glyph glyph-name="ccedilla" unicode="&#xe7;" horiz-adv-x="585" 
d="M541 131l-5 -84q0 -7 -4 -14q-6 -6 -12 -7q-30 -16 -79.5 -29.5t-83.5 -13.5q-13 0 -19 1l-36 2l-36 -45h6q7 1 15 1q17 0 29 -1.5t23 -5.5q21 -8 31.5 -21.5t10.5 -28.5q0 -18 -12 -34t-30 -25q-8 -4 -24.5 -7t-27.5 -3q-51 0 -68 23q-4 5 -4 12q0 8 6.5 14t13.5 4
q14 -17 28.5 -28t36.5 -11q21 0 37 15t16 34q0 16 -12 27.5t-29 14t-31 2.5q-22 0 -31 -1q-2 0 -7 -2q-7 1 -8 2q-2 2 1 10l45 58q-100 26 -158 107t-58 183q0 114 88.5 197.5t204.5 83.5q51 0 119 -17q25 -6 33 -11q4 -1 6 -2q6 -3 8 -7l4 -11l9 -77q0 -13 -6 -14
q-6 -2 -8 0l-6 6q-14 43 -50 73q-40 34 -97 34q-110 0 -173 -84q-55 -73 -55 -177q0 -101 53 -176q57 -81 149 -91q7 -1 21 -1q75 0 123 66q16 22 34 67q2 4 3 5q2 2 10 1t6 -14z" />
    <glyph glyph-name="eacute" unicode="&#xe9;" horiz-adv-x="600" 
d="M571 356v-7q-1 -8 -3 -9q-3 -3 -15 -3l-398 -1q-10 0 -16 -4q-11 -8 -11 -44q0 -86 47 -157q62 -94 178 -94q63 0 120 28q18 9 52 33q12 12 17 16q10 9 17 2q3 -3 2 -9q0 -2 -1 -6q-34 -40 -60 -59q-80 -59 -179 -59h-18q-13 2 -19 2q-107 11 -178 94t-71 194
q0 120 90.5 203.5t230.5 83.5q94 0 149 -52q40 -38 57 -98q4 -27 9 -54zM466 405q5 15 5 26q0 41 -36 73t-90 32q-95 0 -157 -62q-47 -47 -47 -80q-1 -5 -1 -7q-1 -9 1 -12q4 -7 15 -7h215q34 0 61.5 9t33.5 28zM493 790q5 -10 5 -16q0 -22 -38 -42l-218 -108l-14 -6t-9 -3
q-4 0 -7 5q-4 6 1 12t14 13l200 147q17 14 37 14t29 -16z" />
    <glyph glyph-name="egrave" unicode="&#xe8;" horiz-adv-x="600" 
d="M571 356v-7q-1 -8 -3 -9q-3 -3 -15 -3l-398 -1q-10 0 -16 -4q-11 -8 -11 -44q0 -86 47 -157q62 -94 178 -94q63 0 120 28q18 9 52 33q12 12 17 16q10 9 17 2q3 -3 2 -9q0 -2 -1 -6q-34 -40 -60 -59q-80 -59 -179 -59h-18q-13 2 -19 2q-107 11 -178 94t-71 194
q0 120 90.5 203.5t230.5 83.5q94 0 149 -52q40 -38 57 -98q4 -27 9 -54zM466 405q5 15 5 26q0 41 -36 73t-90 32q-95 0 -157 -62q-47 -47 -47 -80q-1 -5 -1 -7q-1 -9 1 -12q4 -7 15 -7h215q34 0 61.5 9t33.5 28zM496 622q-3 -5 -8 -5q-4 0 -10 3l-12 6l-217 108
q-38 18 -38 40q0 7 5 17q9 16 28 16q20 0 37 -14l200 -147q9 -7 12 -10q6 -7 3 -14z" />
    <glyph glyph-name="ecircumflex" unicode="&#xea;" horiz-adv-x="593" 
d="M571 356v-7q-1 -8 -3 -9q-3 -3 -15 -3l-398 -1q-10 0 -16 -4q-11 -8 -11 -44q0 -86 47 -157q62 -94 178 -94q63 0 120 28q18 9 52 33q12 12 17 16q10 9 17 2q3 -3 2 -9q0 -2 -1 -6q-34 -40 -60 -59q-80 -59 -179 -59h-18q-13 2 -19 2q-107 11 -178 94t-71 194
q0 120 90.5 203.5t230.5 83.5q94 0 149 -52q40 -38 57 -98q4 -27 9 -54zM466 405q5 15 5 26q0 41 -36 73t-90 32q-95 0 -157 -62q-47 -47 -47 -80q-1 -5 -1 -7q-1 -9 1 -12q4 -7 15 -7h215q34 0 61.5 9t33.5 28zM517 647q4 -6 4 -12q0 -7 -6 -12q-4 -4 -11 -4q-8 0 -15 5
l-120 98q-11 8 -23 8q-11 0 -21 -8l-138 -99q-5 -3 -11 -3q-9 0 -13 7q-5 12 3 20l147 152q18 18 34 18q20 0 37 -19z" />
    <glyph glyph-name="edieresis" unicode="&#xeb;" horiz-adv-x="596" 
d="M571 356v-7q-1 -8 -3 -9q-3 -3 -15 -3l-398 -1q-10 0 -16 -4q-11 -8 -11 -44q0 -86 47 -157q62 -94 178 -94q63 0 120 28q18 9 52 33q12 12 17 16q10 9 17 2q3 -3 2 -9q0 -2 -1 -6q-34 -40 -60 -59q-80 -59 -179 -59h-18q-13 2 -19 2q-107 11 -178 94t-71 194
q0 120 90.5 203.5t230.5 83.5q94 0 149 -52q40 -38 57 -98q4 -27 9 -54zM466 405q5 15 5 26q0 41 -36 73t-90 32q-95 0 -157 -62q-47 -47 -47 -80q-1 -5 -1 -7q-1 -9 1 -12q4 -7 15 -7h215q34 0 61.5 9t33.5 28zM293 671q0 -24 -14.5 -37.5t-35.5 -13.5q-22 0 -39 15t-17 41
q0 24 14.5 37.5t35.5 13.5q22 0 39 -15t17 -41zM522 671q0 -25 -15.5 -38.5t-36.5 -13.5q-22 0 -38 14t-16 40q0 25 15.5 38.5t36.5 13.5t37.5 -14.5t16.5 -39.5z" />
    <glyph glyph-name="iacute" unicode="&#xed;" horiz-adv-x="320" 
d="M296 13q0 -6 -3 -10t-8 -4q-2 -2 -54.5 1.5t-65.5 3.5q-29 0 -61.5 -2t-60.5 -4q-2 1 -3 1q-7 4 -6 13q0 7 8 12l8 4q13 0 27.5 2t25 10t14 18t3.5 25v328q0 16 -7.5 25.5t-14.5 12.5t-17 4h-12q-11 0 -19 2.5t-8 8.5q0 8 5 11q1 1 6 2q7 3 16 6q35 13 60 28q13 8 40 34
q20 19 27 19q8 0 11 -5q0 -1 1 -5v-471q0 -16 2.5 -24.5t11.5 -18t24.5 -10.5l30.5 -2q6 -2 13 -4q6 -4 6 -11zM295 792q5 -10 5 -16q0 -22 -38 -42l-218 -108l-14 -6t-9 -3q-4 0 -7 5q-4 6 1 12t14 13l200 147q17 14 37 14t29 -16z" />
    <glyph glyph-name="igrave" unicode="&#xec;" horiz-adv-x="321" 
d="M293 13q2 -14 -11 -14q-2 -2 -54.5 1.5t-65.5 3.5q-25 0 -95 -5q-26 -2 -27 -1q-2 1 -3 1q-7 4 -6 13q1 7 8 12l8 4q13 0 28 2t25 10t13.5 18t3.5 25v328q0 16 -7.5 25.5t-14.5 12.5t-17 4h-12q-11 0 -19 2.5t-8 8.5q0 8 5 11q1 1 6 2q7 3 16 6q36 13 60 28q8 5 48 41
q13 12 20 12t10 -5q0 -1 1 -5v-471q0 -26 14 -43q9 -9 24.5 -10t28 -2.5t13.5 -2.5q8 -4 8 -12zM317 623q-3 -5 -8 -5q-4 0 -10 3l-12 6l-217 108q-38 18 -38 40q0 7 5 17q9 16 28 16q20 0 37 -14l200 -147q9 -7 12 -10q6 -7 3 -14z" />
    <glyph glyph-name="icircumflex" unicode="&#xee;" horiz-adv-x="322" 
d="M298 16q0 -15 -12 -15q-28 2 -61 4t-64 2q-24 0 -90 -5q-13 -1 -26 -1q-3 1 -4 2q-5 5 -5 12q0 6 7 11l8 4q13 0 27.5 2t25.5 10t14.5 18t3.5 26v327q0 16 -9 28t-17.5 13t-13.5 2q-8 -1 -12 -1q-26 0 -26 11q0 8 5 11q1 1 6 2q16 5 25 9q29 12 50 25q15 9 41 34
q20 19 27 19q8 0 11 -5q0 -1 1 -5v-471q0 -16 2.5 -24.5t11.5 -17.5t33 -12q7 0 22 -1q6 -2 13 -3q6 -4 6 -11zM342 647q4 -6 4 -12q0 -7 -6 -12q-4 -4 -11 -4q-8 0 -15 5l-120 98q-11 8 -23 8q-11 0 -21 -8l-138 -99q-5 -3 -11 -3q-9 0 -13 7q-5 12 3 20l147 152
q18 18 34 18q20 0 37 -19z" />
    <glyph glyph-name="idieresis" unicode="&#xef;" horiz-adv-x="324" 
d="M296 13q0 -14 -12 -14q-15 1 -25 1q-70 4 -94 4q-29 0 -61.5 -2t-60.5 -4q-2 1 -3 1q-7 4 -6 13q0 7 7 12l8 4q13 0 28 2t25.5 10t14 18t3.5 25v328q0 14 -7.5 24.5t-14.5 13.5t-18 4h-12q-26 0 -26 11q0 8 5 11q1 1 6 2q16 5 25 9q29 12 50 25q15 9 41 34q20 19 27 19
q8 0 11 -5q0 -1 1 -5v-471q0 -16 2.5 -24.5t11.5 -18t24.5 -10.5l30.5 -2q6 -2 13 -4q6 -4 6 -11zM99 672q0 -24 -14.5 -37.5t-35.5 -13.5q-22 0 -39 15t-17 41q0 24 14.5 37.5t35.5 13.5q22 0 39 -15t17 -41zM328 672q0 -25 -15.5 -38.5t-36.5 -13.5q-22 0 -38 14t-16 40
q0 25 15.5 38.5t36.5 13.5t37.5 -14.5t16.5 -39.5z" />
    <glyph glyph-name="ntilde" unicode="&#xf1;" horiz-adv-x="706" 
d="M671 16q2 -16 -11 -16q-1 -1 -50.5 3t-68.5 4q-33 0 -77 -4t-45 -3q-4 2 -5 3q-5 4 -5 12q1 6 8 11l8 4q13 0 27.5 2t25 10t14 18t3.5 26v297q0 55 -30 89q-34 38 -95 38q-58 0 -108 -32q-64 -41 -64 -115v-277q0 -18 1.5 -25t10.5 -17t24.5 -12t25.5 -2.5t17 -2.5t7 -10
q1 -6 -2 -11q-4 -6 -9 -6q-1 -2 -26 0q-85 7 -94 7q-33 0 -76 -4t-44 -3q-4 2 -5 3q-6 6 -6 13q1 7 8 11q2 1 8 3q13 1 20 2q23 4 33.5 11.5t13.5 17.5t3 26v327q0 18 -9 29t-17.5 12t-12.5 2q-8 -1 -12 -1q-11 0 -19 2.5t-8 8.5q0 8 5 11q1 1 6 2q7 3 16 6q36 13 60 28
q8 5 48 41q13 12 20 12t11 -5q1 -1 2 -5v-92l26 21q49 41 85 58q51 24 97 24q41 0 83.5 -19.5t68 -64.5t25.5 -91v-308q0 -27 15 -42q8 -9 32 -12q7 0 17 -1t16 -2q8 -4 8 -12zM562 718q-19 -30 -32 -45q-41 -45 -83 -45q-8 -1 -10 -1q-23 0 -47 7q-8 2 -20 8l-50 19
q-20 9 -33 13q-41 14 -66 14q-11 0 -16 -1q-27 -6 -53 -37q-8 -10 -20 -30l-40 26q16 24 27 37q33 39 64 50q20 7 42 7q27 0 57 -10q10 -3 25 -10l58 -22q25 -9 40.5 -13.5t29.5 -4.5t27.5 4.5t29.5 18.5q20 18 28 39z" />
    <glyph glyph-name="oacute" unicode="&#xf3;" 
d="M648 270q0 -123 -90.5 -204.5t-215.5 -81.5q-124 0 -215.5 85.5t-91.5 207.5q0 120 83.5 202.5t218.5 82.5q139 0 225 -83t86 -209zM557 268q0 112 -56 188q-61 82 -162 82q-98 0 -157 -78q-55 -73 -55 -182q0 -103 55 -182q61 -88 158 -88q91 0 154 76.5t63 183.5z
M487 790q5 -10 5 -16q0 -22 -38 -42l-218 -108l-14 -6t-9 -3q-4 0 -7 5q-4 6 1 12t14 13l200 147q17 14 37 14t29 -16z" />
    <glyph glyph-name="ograve" unicode="&#xf2;" 
d="M648 270q0 -123 -90.5 -204.5t-215.5 -81.5q-124 0 -215.5 85.5t-91.5 207.5q0 120 83.5 202.5t218.5 82.5q139 0 225 -83t86 -209zM557 268q0 112 -56 188q-61 82 -162 82q-98 0 -157 -78q-55 -73 -55 -182q0 -103 55 -182q61 -88 158 -88q91 0 154 76.5t63 183.5z
M521 623q-3 -5 -8 -5q-4 0 -10 3l-12 6l-217 108q-38 18 -38 40q0 7 5 17q9 16 28 16q20 0 37 -14l200 -147q9 -7 12 -10q6 -7 3 -14z" />
    <glyph glyph-name="ocircumflex" unicode="&#xf4;" 
d="M648 270q0 -123 -90.5 -204.5t-215.5 -81.5q-124 0 -215.5 85.5t-91.5 207.5q0 120 83.5 202.5t218.5 82.5q139 0 225 -83t86 -209zM557 268q0 112 -56 188q-61 82 -162 82q-98 0 -157 -78q-55 -73 -55 -182q0 -103 55 -182q61 -88 158 -88q91 0 154 76.5t63 183.5z
M543 643q4 -6 4 -12q0 -7 -6 -12q-4 -4 -11 -4q-8 0 -15 5l-120 98q-11 8 -23 8q-11 0 -21 -8l-138 -99q-5 -3 -11 -3q-9 0 -13 7q-5 12 3 20l147 152q18 18 34 18q20 0 37 -19z" />
    <glyph glyph-name="odieresis" unicode="&#xf6;" 
d="M648 270q0 -123 -90.5 -204.5t-215.5 -81.5q-124 0 -215.5 85.5t-91.5 207.5q0 120 83.5 202.5t218.5 82.5q139 0 225 -83t86 -209zM557 268q0 112 -56 188q-61 82 -162 82q-98 0 -157 -78q-55 -73 -55 -182q0 -103 55 -182q61 -88 158 -88q91 0 154 76.5t63 183.5z
M298 670q0 -24 -14.5 -37.5t-35.5 -13.5q-22 0 -39 15t-17 41q0 24 14.5 37.5t35.5 13.5q22 0 39 -15t17 -41zM527 670q0 -25 -15.5 -38.5t-36.5 -13.5q-22 0 -38 14t-16 40q0 25 15.5 38.5t36.5 13.5t37.5 -14.5t16.5 -39.5z" />
    <glyph glyph-name="otilde" unicode="&#xf5;" horiz-adv-x="671" 
d="M648 270q0 -123 -90.5 -204.5t-215.5 -81.5q-124 0 -215.5 85.5t-91.5 207.5q0 120 83.5 202.5t218.5 82.5q139 0 225 -83t86 -209zM557 268q0 112 -56 188q-61 82 -162 82q-98 0 -157 -78q-55 -73 -55 -182q0 -103 55 -182q61 -88 158 -88q91 0 154 76.5t63 183.5z
M585 714q-19 -30 -32 -45q-41 -45 -83 -45q-8 -1 -10 -1q-23 0 -47 7q-8 2 -20 8l-50 19q-20 9 -33 13q-41 14 -66 14q-11 0 -16 -1q-27 -6 -53 -37q-8 -10 -20 -30l-40 26q16 24 27 37q33 39 64 50q20 7 42 7q27 0 57 -10q10 -3 25 -10l58 -22q25 -9 40.5 -13.5t29.5 -4.5
t27.5 4.5t29.5 18.5q20 18 28 39z" />
    <glyph glyph-name="uacute" unicode="&#xfa;" horiz-adv-x="706" 
d="M686 56q1 -6 -6.5 -9t-13.5 -4q-28 -8 -71 -24q-22 -8 -40.5 -20l-35.5 -23q-3 0 -5 4v78q0 9 -6 11q-2 1 -9 -3q-38 -34 -88 -59.5t-95 -25.5q-90 0 -142 61q-48 57 -48 148v275q0 16 -1.5 23.5t-7.5 19.5q-9 16 -44.5 18t-36.5 12q-1 9 6 11.5t19 2.5h133q4 0 11 -6
t7 -13l1 -323q0 -55 8 -87.5t37 -57.5q19 -16 43 -23.5t55 -7.5q33 0 63.5 9t52 26t33 33.5t11.5 39.5l1 334q0 16 -10 31.5t-46 17.5t-36 13q0 9 9 11.5t24 2.5h133q5 0 10 -5q3 -3 3 -12l-1 -424q1 -9 2.5 -19t7.5 -17t15.5 -9t20.5 -2q8 0 17 1q3 0 7 1q4 -1 6 -1
q6 -2 7 -9zM511 789q5 -10 5 -16q0 -22 -38 -42l-218 -108l-14 -6t-9 -3q-4 0 -7 5q-4 6 1 12t14 13l200 147q17 14 37 14t29 -16z" />
    <glyph glyph-name="ugrave" unicode="&#xf9;" horiz-adv-x="713" 
d="M686 56q1 -6 -6.5 -9t-13.5 -4q-28 -8 -71 -24q-22 -8 -40.5 -20l-35.5 -23q-3 0 -5 4v78q0 9 -6 11q-2 1 -9 -3q-38 -34 -88 -59.5t-95 -25.5q-90 0 -142 61q-48 57 -48 148v275q0 16 -1.5 23.5t-7.5 19.5q-9 16 -44.5 18t-36.5 12q-1 9 6 11.5t19 2.5h133q4 0 11 -6
t7 -13l1 -323q0 -55 8 -87.5t37 -57.5q19 -16 43 -23.5t55 -7.5q33 0 63.5 9t52 26t33 33.5t11.5 39.5l1 334q0 16 -10 31.5t-46 17.5t-36 13q0 9 9 11.5t24 2.5h133q5 0 10 -5q3 -3 3 -12l-1 -424q1 -9 2.5 -19t7.5 -17t15.5 -9t20.5 -2q8 0 17 1q3 0 7 1q4 -1 6 -1
q6 -2 7 -9zM528 623q-3 -5 -8 -5q-4 0 -10 3l-12 6l-217 108q-38 18 -38 40q0 7 5 17q9 16 28 16q20 0 37 -14l200 -147q9 -7 12 -10q6 -7 3 -14z" />
    <glyph glyph-name="ucircumflex" unicode="&#xfb;" horiz-adv-x="710" 
d="M686 56q1 -6 -6.5 -9t-13.5 -4q-28 -8 -71 -24q-22 -8 -40.5 -20l-35.5 -23q-3 0 -5 4v78q0 9 -6 11q-2 1 -9 -3q-38 -34 -88 -59.5t-95 -25.5q-90 0 -142 61q-48 57 -48 148v275q0 16 -1.5 23.5t-7.5 19.5q-9 16 -44.5 18t-36.5 12q-1 9 6 11.5t19 2.5h133q4 0 11 -6
t7 -13l1 -323q0 -55 8 -87.5t37 -57.5q19 -16 43 -23.5t55 -7.5q33 0 63.5 9t52 26t33 33.5t11.5 39.5l1 334q0 16 -10 31.5t-46 17.5t-36 13q0 9 9 11.5t24 2.5h133q5 0 10 -5q3 -3 3 -12l-1 -424q1 -9 2.5 -19t7.5 -17t15.5 -9t20.5 -2q8 0 17 1q3 0 7 1q4 -1 6 -1
q6 -2 7 -9zM536 648q4 -6 4 -12q0 -7 -6 -12q-4 -4 -11 -4q-8 0 -15 5l-120 98q-11 8 -23 8q-11 0 -21 -8l-138 -99q-5 -3 -11 -3q-9 0 -13 7q-5 12 3 20l147 152q18 18 34 18q20 0 37 -19z" />
    <glyph glyph-name="udieresis" unicode="&#xfc;" horiz-adv-x="713" 
d="M686 56q1 -6 -6.5 -9t-13.5 -4q-28 -8 -71 -24q-22 -8 -40.5 -20l-35.5 -23q-3 0 -5 4v78q0 9 -6 11q-2 1 -9 -3q-38 -34 -88 -59.5t-95 -25.5q-90 0 -142 61q-48 57 -48 148v275q0 16 -1.5 23.5t-7.5 19.5q-9 16 -44.5 18t-36.5 12q-1 9 6 11.5t19 2.5h133q4 0 11 -6
t7 -13l1 -323q0 -55 8 -87.5t37 -57.5q19 -16 43 -23.5t55 -7.5q33 0 63.5 9t52 26t33 33.5t11.5 39.5l1 334q0 16 -10 31.5t-46 17.5t-36 13q0 9 9 11.5t24 2.5h133q5 0 10 -5q3 -3 3 -12l-1 -424q1 -9 2.5 -19t7.5 -17t15.5 -9t20.5 -2q8 0 17 1q3 0 7 1q4 -1 6 -1
q6 -2 7 -9zM322 671q0 -24 -14.5 -37.5t-35.5 -13.5q-22 0 -39 15t-17 41q0 24 14.5 37.5t35.5 13.5q22 0 39 -15t17 -41zM551 671q0 -25 -15.5 -38.5t-36.5 -13.5q-22 0 -38 14t-16 40q0 25 15.5 38.5t36.5 13.5t37.5 -14.5t16.5 -39.5z" />
    <glyph glyph-name="dagger" unicode="&#x2020;" horiz-adv-x="528" 
d="M486 493q0 -33 -15 -42q-5 -3 -16 -3l-141 27q-18 3 -28.5 -7t-9.5 -22l31 -476q1 -6 0 -10q-6 -25 -49 -25q-32 0 -41 16q-3 5 -3 17l32 480q0 13 -8 21t-19 8q-6 0 -9 -1l-141 -28q-6 -1 -9 0q-22 6 -22 45q0 32 15 43q5 3 15 4l142 -30q4 -1 11 -1q9 0 15.5 7t4.5 23
l-24 231q0 16 6 22q12 11 38 11q36 0 44 -17q2 -5 1 -18l-24 -229q-2 -17 5 -24t17 -7q7 0 10 1l142 30q15 -1 20 -8q10 -12 10 -38z" />
    <glyph glyph-name="degree" unicode="&#xb0;" horiz-adv-x="348" 
d="M307 663q0 -62 -40 -98q-36 -32 -89 -32q-58 0 -97 35q-44 39 -44 105q0 62 40 98q36 32 89 32q58 0 97 -35q44 -39 44 -105zM271 663q0 48 -31.5 75.5t-72.5 27.5q-38 0 -64.5 -23.5t-26.5 -68.5q0 -48 33 -77q30 -26 71 -26q38 0 64.5 23.5t26.5 68.5z" />
    <glyph glyph-name="cent" unicode="&#xa2;" horiz-adv-x="528" 
d="M487 208l-25 -23q-29 -25 -48.5 -34.5t-53.5 -18.5q-11 -2 -31 -7q-5 -1 -8 -8l-3 -8v-107q0 -11 -13 -11q-4 0 -9 5q-1 1 -4 6v108l-3 7l-7 7q-98 7 -170 72q-78 70 -78 194q0 96 59 165q42 49 111 81q16 7 63 23q2 3 10 4t10 4q7 9 7 15v101q1 4 1 5q3 6 11 6
q13 1 13 -10v-101q0 -10 4 -14q2 -2 7 -2q2 0 11 -1.5t26.5 -4t42.5 -9t50 -19.5q4 -2 12 -7q4 -1 8 -10l3 -12l-2 -38v-37q-2 -9 -7 -11q-12 -4 -16 1q-3 1 -19 25l-28.5 42.5t-37.5 38.5q-12 8 -33 14h-10q-6 0 -7 -1q-5 -4 -5 -14v-438q0 -9 5.5 -16t13.5 -6q15 1 30 3
t34.5 10t48.5 28q9 6 24 17q8 3 12 0q3 -2 2 -8q0 -2 -1 -6zM292 187v433q0 12 -4 15q-3 4 -14 1q-1 0 -5 -1q-47 0 -105 -85q-45 -66 -45 -150q0 -107 76 -176q25 -22 76 -47q2 -4 11.5 0.5t9.5 9.5z" />
    <glyph glyph-name="sterling" unicode="&#xa3;" horiz-adv-x="666" 
d="M644 172q0 -73 -45 -128q-48 -59 -119 -59q-49 0 -108 39q-19 13 -49 40l-7 2l-7 -3q-18 -23 -33 -34q-45 -35 -106 -42q-6 -1 -18 -1q-50 0 -86 28t-36 69q0 54 44 85.5t104 31.5q44 0 98 -27q18 -9 46 -28q5 -3 10 -2q4 3 5 5q1 1 2 3q1 7 1 12q5 40 5 67q-3 36 -21 78
q-5 13 -17 33l-7 8l-12 3h-163q-13 0 -13 14q0 6 4.5 11.5t9.5 5.5h134q8 0 12 4q3 4 1 14q-16 38 -24 63q-24 76 -24 144q0 85 63 142q58 53 134 53q31 0 64 -15q11 -5 28 -16l4 -4q5 -6 6 -10t1 -12q0 -7 -2 -11l-15 -48q-2 -10 -10 -10q-5 -1 -10 3q-1 1 -2 3
q-14 24 -28 44q-28 41 -61 48q-12 2 -17 2q-42 0 -69 -40.5t-27 -103.5q0 -34 9.5 -70.5t28.5 -73.5l47 -94q2 -9 6 -11q1 -1 13 -1h143q4 0 7 -5q3 -6 3 -12q0 -15 -13 -15h-119q-16 0 -18 -3q-3 -4 -1 -16q3 -12 6.5 -31t3.5 -34v-21q-3 -11 -4 -15q-5 -25 -21 -63
q-5 -13 -16 -34l-2 -9q2 -6 4 -6q36 -26 58 -38q66 -38 107 -38q35 0 62.5 25.5t27.5 59.5q0 14 -4 24.5t-22 16.5t-27 16t-9 29q0 34 22 42q9 3 16 3q24 0 38 -28t14 -59zM294 83q0 5 -3 9q-2 1 -3 2q-21 25 -35 37q-43 39 -74 42q-33 0 -53 -14t-27 -49q-2 -10 -2 -15
q0 -31 22.5 -55.5t51.5 -24.5q47 0 88 28q13 9 31 28q2 2 2 3q3 5 2 9z" />
    <glyph glyph-name="section" unicode="&#xa7;" horiz-adv-x="444" 
d="M387 172q3 -21 5 -43t2 -45q0 -86 -25 -154q-28 -77 -83 -113q-41 -27 -101 -27q-69 0 -118 37q-32 25 -32 58q0 38 37 49q10 2 14 2q29 0 64 -32q11 -10 29 -32q10 -10 16 -14q21 -15 39 -15q16 0 30 12t14 36q0 30 -30 91l-29 60l-124 240.5t-62 228.5q0 51 11 96
q19 82 79 130t135 48q15 0 31 -1.5t40.5 -10t44 -27t19.5 -39.5q0 -9 -7 -21t-17 -18t-22 -6q-24 0 -55 22q-10 7 -24 20.5t-29.5 23.5t-28.5 10q-14 0 -27.5 -10.5t-13.5 -40.5q0 -25 8 -52q1 -5 5 -12l20 -47q25 -56 54 -108q60 -106 74 -135q47 -95 57 -161zM342 22
q2 4 2 25q0 41 -7 92.5t-23 95.5q-27 70 -74 155q-61 110 -83 157q-8 17 -19 47l-9 26l-3 6q-5 7 -13 6t-12 -9t-4 -17q-2 -3 -4 -35.5t-2 -41.5q0 -16 1 -34t4 -32q10 -57 30 -108q0 -1 79 -163l64 -122l37 -68q5 -12 16 -12q12 0 17 16q1 5 3 16z" />
    <glyph glyph-name="bullet" unicode="&#x2022;" horiz-adv-x="336" 
d="M299 355q0 -61 -37.5 -94.5t-90.5 -33.5q-57 0 -96 35q-44 39 -44 105q0 61 37.5 94.5t90.5 33.5q57 0 96 -35q44 -39 44 -105z" />
    <glyph glyph-name="paragraph" unicode="&#xb6;" horiz-adv-x="828" 
d="M775 771q0 -18 -11.5 -26t-30.5 -8l-95 1l1 -903q0 -12 -9 -20t-23 -8q-13 0 -23.5 7.5t-10.5 19.5v915h-86l1 -915q0 -11 -10 -19t-22 -8q-14 0 -24 7.5t-10 20.5v455q-5 -1 -17 -1q-44 0 -108 19.5t-120 51.5q-71 41 -106 105q-31 56 -31 123q0 41 12 76.5t33 60.5
q38 44 106 66q54 17 107 17l427 -1q24 0 37 -6.5t13 -29.5zM422 338v411h-8q-11 0 -22 1q-49 0 -100.5 -8.5t-84 -31.5t-49 -59t-16.5 -79q0 -44 18.5 -84t56.5 -69q56 -42 121 -65q56 -19 84 -16z" />
    <glyph glyph-name="germandbls" unicode="&#xdf;" horiz-adv-x="720" 
d="M675 157q0 -77 -66 -127q-61 -47 -144 -47q-40 0 -78 11q-56 16 -70 32q-6 5 -6 7q-4 5 -4 14l1 101q0 17 11 17t16 -9q1 -1 2 -5q9 -49 31 -88.5t57 -48.5q26 -6 47 -6q56 0 91 35t35 86q0 13 -1 20q-8 58 -82 98l-131 63q-69 41 -69 100q0 72 108 101t108 122
q0 51 -32 88q-40 46 -117 46q-73 0 -121 -52t-48 -125v-571q0 -9 -5 -14.5t-14 -5.5h-146q-14 0 -14 14q0 5 5 9t12 4h34q16 0 31 17q7 8 8.5 16t1.5 25v404q1 10 1 15q0 6 -5.5 14t-14.5 8h-44q-16 0 -19 6q-2 5 1 10q1 2 4 6q25 7 38 12q42 18 53 45q41 100 100.5 144.5
t145.5 44.5q89 0 156 -40q80 -48 80 -128q0 -88 -114 -115t-121 -62q-1 -4 -1 -11q0 -34 75 -68q113 -52 139 -71q75 -55 75 -141z" />
    <glyph glyph-name="registered" unicode="&#xae;" horiz-adv-x="852" 
d="M424 0q-184 0 -292 121q-98 110 -98 268q0 159 97 268q108 122 293 122q184 0 292 -122q97 -109 97 -268q0 -157 -97 -267q-108 -122 -292 -122zM424 42q165 0 261 108q87 98 87 240q0 141 -87 239q-97 109 -261 109t-261 -108q-88 -98 -88 -240q0 -141 87 -239
q97 -109 262 -109zM634 175l-6 1l-35 2l-34 -3h-8l-171 221l3 10l21 -1q44 0 79.5 26t35.5 64q0 34 -17.5 56t-44 25.5t-35.5 3.5q-16 0 -30 -2t-23 -4l-10 -3v-342q0 -14 7 -23t16.5 -10t18.5 -1l15 -1v-18h-10q-1 0 -29 2t-46 2q-16 0 -36 -1.5t-41 -2.5h-11v19l18 1
q22 0 30.5 8.5t8.5 24.5v321q0 17 -8 27q-4 4 -19.5 6.5t-22.5 2.5h-7v18h11l77 -3l114 3h10q40 0 73 -13.5t46 -47.5q7 -17 7 -35q0 -27 -15 -50.5t-43 -42.5q-12 -9 -33 -16q-2 -1 -24 -7l-5 -1l137 -181l16 -12l16 -5h4v-18z" />
    <glyph glyph-name="copyright" unicode="&#xa9;" horiz-adv-x="852" 
d="M420 0q-184 0 -292 121q-98 110 -98 268q0 159 97 268q108 122 293 122q184 0 292 -122q98 -110 98 -268t-97 -267q-109 -122 -293 -122zM420 42q165 0 261 108q87 98 87 240q0 141 -87 239q-97 109 -261 109q-165 0 -261 -108q-87 -98 -87 -240q0 -141 87 -239
q97 -109 261 -109zM585 227l-10 -27l-15 -7q-20 -9 -58 -19t-68 -10q-102 0 -166 52t-74 142q-1 6 -1.5 15.5t-0.5 18.5q0 91 59 151q49 50 122 64q23 4 51 4q20 0 35.5 -1.5t33.5 -4.5l80 -20l9 -2l-13 -92h-18v38v6q0 12 -25.5 26t-42 17.5t-29.5 5t-31 1.5q-16 0 -33 -3
q-69 -16 -103 -67q-30 -46 -30 -115v-17q2 -12 2 -18q9 -72 59.5 -120.5t118.5 -48.5q43 0 73 7.5t57 21.5l14 8z" />
    <glyph glyph-name="trademark" unicode="&#x2122;" horiz-adv-x="918" 
d="M352 776l-4 -91h-16l-4 36q-2 12 -6.5 18t-14.5 6l-87 2v-309q0 -14 5.5 -21t16.5 -7.5t15 -1.5l13 -1v-16h-9q-1 0 -26 2t-42 2q-14 0 -31.5 -1.5t-36.5 -2.5h-10v17l16 1q20 0 28 9t8 20v309l-86 -3q-10 -1 -11 -3q-5 -5 -7 -16l-6 -40h-16l-4 90h10q16 0 74.5 -1
t73.5 -1l147 2zM870 758h-7q-10 0 -21.5 -1.5t-15.5 -6.5q-8 -9 -8 -24v-288q0 -12 6 -20t17 -8.5t15 -1.5l13 -1v-16h-9q-1 0 -26 2t-41 2t-41 -2t-28 -2h-10v17l16 1q20 0 27.5 7.5t7.5 21.5v268l-151 -321h-11l-150 320v-267q0 -12 6 -20t17 -8.5t15 -1.5l13 -1v-16h-9
q-1 0 -26 2t-42 2l-46 -4h-9v17l16 1q20 0 27.5 8t7.5 21v288q0 12 -1 15t-7 9q-3 4 -17.5 6t-19.5 2h-6v17h9l37 -3q17 0 30 1t24 2h6l144 -307l57 117l68 140l15 40l3 10h8l47 -3l44 3h6v-17z" />
    <glyph glyph-name="acute" unicode="&#xb4;" horiz-adv-x="366" 
d="M322 790q5 -10 5 -16q0 -22 -38 -42l-218 -108l-14 -6t-9 -3q-4 0 -7 5q-4 6 1 12t14 13l200 147q17 14 37 14t29 -16z" />
    <glyph glyph-name="dieresis" unicode="&#xa8;" horiz-adv-x="420" 
d="M142 750q0 -24 -14.5 -37.5t-35.5 -13.5q-22 0 -39 15t-17 41q0 24 14.5 37.5t35.5 13.5q22 0 39 -15t17 -41zM371 750q0 -25 -15.5 -38.5t-36.5 -13.5q-22 0 -38 14t-16 40q0 25 15.5 38.5t36.5 13.5t37.5 -14.5t16.5 -39.5z" />
    <glyph glyph-name="notequal" unicode="&#x2260;" horiz-adv-x="720" 
d="M675 163l-373 -1l-111 -201l-60 36l90 166h-190v68h227l95 171h-322v69l360 1l114 205l61 -37l-95 -169h204v-68l-239 -1l-97 -171h336v-68z" />
    <glyph glyph-name="AE" unicode="&#xc6;" horiz-adv-x="1128" 
d="M1098 171l-25 -164l-1 -6l-4 -1l-439 3l-181 -4q-7 2 -9 4q-9 7 -4 17q4 8 11 12t16 4l40 1q20 0 32.5 3.5t24.5 16.5q9 9 14 27q1 6 4 18v169q0 11 -6 17t-18 6h-214q-14 0 -22.5 -4.5t-17.5 -15.5l-123 -155q-13 -17 -18.5 -32t-2.5 -27q7 -22 38 -22h42q17 0 13 -16
q-6 -14 -17 -14q-3 -3 -24 -3q-14 0 -59 2t-51 2q-38 0 -72 -1.5t-58 -1.5q-7 6 -3 14q5 14 25 16l42 3q12 0 22 5q14 9 21 14q13 8 24 20q8 8 20 25l450 573q3 4 7.5 15.5t4.5 20.5t-5 17t-15 12.5t-23 4.5h-44q-19 0 -19 17q0 7 7 13q2 1 7 4l146 -4l412 2q12 0 16 -5
q4 -4 4 -17v-144q0 -12 -11 -13q-6 -1 -12 9l-30 58q-17 31 -29 42q-19 18 -52.5 28t-72.5 10h-107h-29q-14 -2 -25.5 -13t-11.5 -35v-228q0 -12 10 -20.5t22 -8.5h153q20 0 31 3t21.5 17t16.5 47q2 11 4 31q4 16 16 14q13 -2 13 -15q-2 -23 -2 -37q-3 -55 -3 -69
q0 -43 3 -98q0 -10 2 -27q0 -4 -1 -6q-3 -7 -11 -8q-7 0 -12 7l-4 8q-3 18 -5 27q-7 29 -17 42q-13 17 -38 22t-49 5h-119q-12 0 -21.5 -10t-9.5 -26v-253q0 -35 28 -62q16 -15 53 -21q12 -2 34 -3h70q50 0 79.5 7t63.5 33q15 12 29.5 43l29.5 63q4 10 13 9q14 -1 12 -13z
M577 348l-1 256q0 11 -6 13q-4 2 -8.5 -4t-6.5 -8l-200 -258q-6 -9 -5 -12q3 -4 10 -4h199q8 0 13 4t5 13z" />
    <glyph glyph-name="Oslash" unicode="&#xd8;" horiz-adv-x="936" 
d="M893 385q0 -173 -127.5 -288.5t-303.5 -115.5q-72 0 -139 23l-45 -92q-3 -8 -8 -10l-12 -3h-21l-4 5q-1 3 3 12l50 102q-113 49 -182 151t-69 227q0 163 127 279t300 116q96 0 181 -38l37 77q6 13 10 16q6 2 12 2h8q1 0 3 -1q10 -2 10 -7q0 -2 -5 -15l-42 -88
q98 -53 157.5 -146t59.5 -206zM623 712q-34 21 -75 32.5t-86 11.5q-148 0 -235 -108q-80 -100 -80 -253q0 -116 39 -205t118 -135zM779 387q0 94 -32 173.5t-94 129.5l-314 -652q57 -22 123 -22q150 0 237 111q80 102 80 260z" />
    <glyph glyph-name="infinity" unicode="&#x221e;" horiz-adv-x="852" 
d="M830 282q0 -77 -49.5 -125.5t-115.5 -48.5q-44 0 -92.5 20t-89.5 58l-51 49l-52 -49q-39 -36 -90 -57t-93 -21q-65 0 -113 47q-51 50 -51 127q0 66 49.5 112.5t118.5 46.5q85 0 166 -75l64 -58l65 58q40 35 82.5 55t83.5 20q69 0 118.5 -46t49.5 -113zM772 277
q0 45 -33 74t-81 29q-39 0 -73 -20q-15 -9 -41 -28l-77 -58l72 -66q27 -25 53.5 -35t64.5 -10q52 0 83.5 32.5t31.5 81.5zM396 274l-77 58q-34 25 -53 34q-29 14 -61 14q-48 0 -81 -29t-33 -74q0 -49 31.5 -81.5t83.5 -32.5q37 0 64 10t54 35z" />
    <glyph glyph-name="plusminus" unicode="&#xb1;" horiz-adv-x="494" 
d="M473 320h-192v-191h-49v191h-190l1 54h189v191h52v-191h189v-54zM469 -1h-435v41h435v-41z" />
    <glyph glyph-name="lessequal" unicode="&#x2264;" horiz-adv-x="465" 
d="M450 104l-428 197v54l428 200v-53l-373 -174l373 -173v-51zM452 0h-429v46h429v-46z" />
    <glyph glyph-name="greaterequal" unicode="&#x2265;" horiz-adv-x="472" 
d="M455 301l-429 -198v51l373 174l-373 174v53l429 -200v-54zM453 -1h-429v47h429v-47z" />
    <glyph glyph-name="yen" unicode="&#xa5;" horiz-adv-x="672" 
d="M639 760q-1 -6 -5 -10q-2 -2 -8 -4q-14 1 -25.5 -1t-26.5 -12.5t-44 -59.5l-26 -47l-80 -171q-3 -7 -3 -9l6 -3h111q17 0 17 -16q0 -15 -16 -15h-121q-12 0 -17.5 -4.5t-9.5 -14.5l-21 -48q-5 -12 -3 -24q4 -9 12 -9h162q13 0 13 -15q0 -16 -13 -16h-159q-7 0 -11.5 -6.5
t-4.5 -17.5v-161q0 -13 0.5 -24.5t9.5 -24.5q6 -10 20 -12.5t20 -2.5h13q1 0 2 1q9 -2 12 -4q5 -3 6 -11q1 -7 -4 -12t-13 -5l-99 3q-26 0 -54.5 -0.5t-52.5 -1.5q-2 1 -3 1q-7 4 -6 13q0 11 14 15q16 0 24 1q27 4 34.5 15.5t10 23t2.5 28.5v156q0 14 -5 20t-13 6h-160
q-14 0 -14 15q0 16 14 16h157q12 0 16 6q2 3 2 10q0 8 -2 15q0 2 -3 6l-24 50q-3 7 -8 9q-5 3 -17 3h-117q-17 0 -17 15t17 15h96q14 0 17 6q2 6 -1 13l-92 193q-9 18 -14 27q-16 29 -27 40q-15 17 -37 22q-7 1 -20 2l-9 3q-9 4 -9 12q0 7 7 12q2 1 7 4q15 0 62.5 -1.5
t49.5 -1.5q24 0 46 1l43 2h8q1 0 3 -1q10 0 10 -14q-1 -6 -8 -10q-2 -1 -8 -3q-22 -1 -38.5 -3.5t-18.5 -12.5q-3 -18 8 -43l14 -25l138 -280l137 286q4 9 6 14q6 17 6 30q0 10 -2.5 17.5t-15 11t-28.5 3.5h-9q-1 0 -3 -1q-6 1 -9 2q-10 4 -10 13q0 6 4 11t10 4l102 -3
q20 0 42 1t40 3q5 -2 7 -3q7 -5 7 -12z" />
    <glyph glyph-name="mu" unicode="&#xb5;" horiz-adv-x="619" 
d="M603 111l-7 -34q-8 -45 -53 -74t-81 -24q-38 6 -68 37t-30 73l-28 -28q-34 -33 -74 -55.5t-68 -22.5q-29 0 -63 15q-41 18 -64 50v-40q0 -34 19.5 -86t19.5 -95q0 -29 -15 -51t-41 -22q-24 0 -38.5 19.5t-14.5 46.5q0 36 8 63q25 84 25 86l2 31v556h94v-383q0 -47 29 -83
t73 -36q45 0 90 35q49 38 49 83v384h91v-433q0 -34 16.5 -63t42.5 -29q6 0 16.5 2t23.5 15.5t18 32.5l8 30h20z" />
    <glyph glyph-name="partialdiff" unicode="&#x2202;" horiz-adv-x="537" 
d="M513 422q0 -163 -67 -294q-76 -149 -194 -149q-12 0 -18 1q-97 10 -150 68t-53 146q0 95 62.5 166.5t153.5 71.5q41 0 73 -13q26 -10 65 -38l32 -23l9 54q5 35 5 67q0 111 -45 186q-52 87 -142 87q-29 0 -66 -13q-28 -10 -40 -13l-20 -6l-41 50l46 14q31 9 52.5 12.5
t49.5 3.5q131 0 213 -120q75 -109 75 -258zM409 317l-30 29q-32 30 -71 38q-14 3 -26 3q-52 0 -94 -46q-38 -42 -56 -105q-10 -38 -10 -71q0 -55 23.5 -97t71.5 -56q6 -2 14.5 -3t14.5 -1q58 0 99 76q31 57 48 150z" />
    <glyph glyph-name="summation" unicode="&#x3a3;" horiz-adv-x="791" 
d="M765 114q-12 -36 -19 -63t-13.5 -63.5t-9 -59.5t-2.5 -54l-78 15h-622l386 424l-379 473l70 -7h590l1 -173h-23q0 58 -40 94q-21 20 -44 25t-63 5h-318l307 -369l-328 -368h437q35 0 72 26q26 20 39 42.5t13 52.5h24z" />
    <glyph glyph-name="product" unicode="&#x220f;" horiz-adv-x="910" 
d="M889 -115h-339v21l28 1q24 0 36.5 3t23.5 14t14.5 22t3.5 27q-1 17 -1 26v717h-397v-711q0 -31 5 -49.5t24 -32.5q13 -10 26 -12.5t36 -2.5h22v-23h-340v24h27q22 0 34.5 2.5t25.5 12.5q17 14 22 36q2 10 2 46v647q0 47 -34 77q-13 11 -25.5 17t-27.5 7l-18 2v22h852v-24
l-24 -1q-16 0 -25.5 -4.5t-25.5 -16.5q-21 -18 -28 -39.5t-7 -55.5v-640q0 -28 3.5 -43t19.5 -30q13 -11 27 -15.5t35 -4.5l25 -1v-18z" />
    <glyph glyph-name="pi" unicode="&#x3c0;" horiz-adv-x="642" 
d="M625 180l-4 -25q-7 -66 -46.5 -110.5t-99.5 -44.5q-53 0 -78 53q-21 44 -21 116q0 27 3 51l26 244h-133l-46 -361q-5 -43 -23 -73q-22 -37 -53 -37q-4 0 -14 2q-17 5 -24 9q-19 10 -22.5 26.5t-3.5 21.5q0 21 17 41q52 60 54 64q9 20 13.5 31t5.5 26l26 246h-37
q-14 0 -26.5 -0.5t-29.5 -7t-36 -29.5q-14 -17 -19 -30l-19 7l7 17q28 63 34 72q20 34 54.5 51t75.5 17h411v-93h-149l-15 -272q0 -38 20 -67.5t54 -29.5q27 0 45.5 18.5t25.5 47.5l4 19h23z" />
    <glyph glyph-name="integral" unicode="&#x222b;" horiz-adv-x="339" 
d="M310 838q-2 -17 -15 -28t-32 -11q-10 0 -21 8q-15 11 -20 13q-13 6 -19 -8t-6 -43q0 -33 4 -76q11 -118 11 -139v-336q0 -127 -16 -204q-27 -130 -95 -130q-11 0 -25 3.5t-26.5 17t-12.5 30.5q0 18 12 30t29 12q14 0 25 -14.5t19 -16.5q18 -5 24.5 21.5t6.5 74.5
q0 32 -1 63.5l-2 62.5v468q0 137 30 200q25 52 70 52q25 0 44 -14t16 -36z" />
    <glyph glyph-name="ordfeminine" unicode="&#xaa;" horiz-adv-x="459" 
d="M386 516q2 -9 -32 -29q-20 -12 -35 -12q-8 0 -15 4q-11 7 -17.5 20t-10.5 23l-4 2l-3 -1q-17 -13 -27 -20q-33 -23 -51.5 -27.5t-28.5 -4.5q-43 0 -60 29q-4 6 -6 14.5t-2 14.5q0 30 38 59q18 14 57 33l73 34q9 6 12 10q1 2 2 6q0 2 1 8v59q0 10 -2 17t-9 15
q-12 13 -35 13q-12 0 -20 -2q-5 -1 -19 -7q-20 -10 -37 -44q-3 -6 -7 -16l-5 -8q-3 -4 -9 -6l-28 -11q-9 0 -10 2q-2 2 -2 7v5q1 8 3 13q14 32 65 59q41 21 87 21q39 0 57.5 -14t18.5 -35v-206q1 -10 2 -15q5 -15 16 -20q12 -4 28 9l7 7h7q1 -1 1 -6zM380 406h-298v18h298
v-18zM277 582v55l-2 7q-1 1 -8 0l-73 -37q-47 -24 -47 -60q0 -13 5 -22q11 -21 42 -21q41 0 65 26q11 12 14.5 23t3.5 29z" />
    <glyph glyph-name="ordmasculine" unicode="&#xba;" horiz-adv-x="515" 
d="M438 637q0 -71 -51.5 -117.5t-123.5 -46.5t-123.5 48t-51.5 118t47.5 117.5t125.5 47.5q79 0 128 -47t49 -120zM435 398h-346v18h346v-18zM386 636q0 64 -32 107q-35 47 -92 47q-56 0 -89 -44t-33 -106q0 -57 32 -103q36 -51 91 -51q51 0 87 44t36 106z" />
    <glyph glyph-name="Omega" unicode="&#x3a9;" horiz-adv-x="823" 
d="M798 -2h-320l16 158q75 34 113 100.5t38 154.5q0 112 -42 167q-54 71 -185 71q-123 0 -181 -70q-50 -60 -50 -168q0 -89 37 -155t114 -100l15 -158h-319v167h21q0 -23 10 -39q18 -27 57 -27h174v33q-105 18 -169 96t-64 185q0 126 98.5 197.5t255.5 71.5
q162 0 256.5 -70.5t94.5 -198.5q0 -107 -64 -185t-169 -96v-33h175q18 0 32.5 6.5t24.5 21.5t10 38h21v-167z" />
    <glyph glyph-name="ae" unicode="&#xe6;" horiz-adv-x="930" 
d="M898 358v-8q-1 -8 -3 -8q-3 -3 -15 -3l-398 -1q-10 0 -16 -4q-11 -8 -11 -44q0 -86 47 -157q62 -94 178 -94q63 0 120 28q18 9 52 33q12 12 17 16q10 9 17 2q3 -3 2 -9q0 -2 -1 -6q-34 -40 -60 -59q-80 -59 -179 -59h-18q-13 2 -19 2q-91 9 -146 35q-63 30 -102 83
l-63 -49q-70 -53 -107 -63q-23 -6 -46 -6q-37 0 -65.5 13t-42 37.5t-13.5 51.5q0 55 68 106q36 27 100 57l130 61q14 6 21 17q3 5 4 13.5t2 13.5v103q0 21 -3.5 32t-14.5 24.5t-26.5 18.5t-35.5 5q-36 0 -69 -15.5t-60 -61.5q-9 -15 -21 -45l-8 -14q-10 -14 -32.5 -23
t-38.5 -9q-10 0 -13 4q-2 3 -2.5 11t-1.5 12q2 14 6 23q26 57 116 105q70 37 154 37q71 0 106 -27q30 -24 30 -60v-11q44 46 106.5 71t139.5 25q94 0 149 -52q40 -38 57 -98q4 -27 9 -54zM793 407q5 15 5 26q0 41 -36 73t-90 32q-95 0 -157 -62q-47 -47 -47 -80q-1 -5 -1 -7
q-1 -9 1 -12q0 -7 15 -7h215q34 0 61.5 9t33.5 28zM352 184v98q0 12 -5 12h-15l-129 -65q-39 -20 -61.5 -48.5t-22.5 -60.5q0 -20 9.5 -39t28.5 -28.5t45 -9.5q32 0 64.5 14t52.5 34.5t26.5 40.5t6.5 52z" />
    <glyph glyph-name="oslash" unicode="&#xf8;" horiz-adv-x="684" 
d="M648 270q0 -123 -90.5 -204.5t-215.5 -81.5q-62 0 -119 23l-52 -90q-3 -7 -8 -8l-11 -3h-19l-4 4q-2 3 3 10l59 102q-72 39 -114 106t-42 149q0 120 83.5 202.5t218.5 82.5q86 0 149 -31l55 96q6 10 9 12q6 2 12 2h7q1 0 3 -1q9 -1 9 -5q0 -1 -5 -12l-62 -107
q63 -39 98.5 -103.5t35.5 -142.5zM464 494q-52 44 -125 44q-98 0 -157 -78q-55 -73 -55 -182q0 -60 22.5 -118t64.5 -98zM557 268q0 125 -69 202l-247 -431q23 -15 47.5 -23t51.5 -8q91 0 154 76.5t63 183.5z" />
    <glyph glyph-name="questiondown" unicode="&#xbf;" horiz-adv-x="353" 
d="M314 482q0 -24 -16.5 -41.5t-39.5 -17.5t-38.5 17.5t-15.5 41.5q0 25 15.5 44.5t39.5 19.5q25 0 40 -19t15 -45zM335 -223v-7q-1 -6 -3 -12q-5 -11 -20 -14.5l-24 -5.5q-28 -6 -52 -6q-91 0 -151.5 62.5t-60.5 159.5q0 54 41 111q13 19 41 46l103 84q15 12 23.5 27.5
t8.5 34.5v45v6q2 7 10 8q12 2 14 -9l22 -126q2 -14 2 -19q0 -7 -3 -14t-10 -15q-2 -3 -8 -7l-49 -36q-52 -40 -76 -63q-29 -28 -46 -65.5t-17 -74.5q0 -62 47 -99q17 -13 29.5 -19t28.5 -6t32 8t30 31l12 23l17 28q10 16 24 18q26 4 33 -63q1 -11 2 -31z" />
    <glyph glyph-name="exclamdown" unicode="&#xa1;" horiz-adv-x="169" 
d="M143 478q0 -24 -15.5 -42.5t-38.5 -18.5t-38 19t-15 43q0 26 14.5 45t38.5 19q23 0 38.5 -19.5t15.5 -45.5zM143 -213q2 -22 -14.5 -38.5t-39.5 -16.5q-21 0 -37 19t-16 36l39 514q0 5 4 9t9 4q10 0 12 -13z" />
    <glyph glyph-name="logicalnot" unicode="&#xac;" horiz-adv-x="845" 
d="M816 0h-64v272h-716v60h780v-332z" />
    <glyph glyph-name="radical" unicode="&#x221a;" horiz-adv-x="570" 
d="M538 871l-150 -922l-246 486l-93 -48l-15 33l143 68l198 -388l129 775z" />
    <glyph glyph-name="florin" unicode="&#x192;" horiz-adv-x="411" 
d="M385 832q-14 -40 -56 -40q-10 0 -19 8q-15 13 -17 14q-6 3 -10 3q-24 0 -37 -120q-9 -79 -16 -109l-5 -22h107l-5 -44h-114l-65 -326q-15 -71 -33 -130q-28 -89 -61 -139q-43 -65 -94 -65q-12 0 -24 3.5t-21.5 15.5t-9.5 25q0 4 2 10q6 17 19 28t31 11q14 0 22.5 -14
t15.5 -16q33 -10 58 108q16 81 22 114l75 376h-118l2 45h132l7 29q25 119 58 189q46 96 105 96q19 0 35 -12.5t16 -28.5q0 -3 -2 -9z" />
    <glyph glyph-name="approxequal" unicode="&#x2248;" horiz-adv-x="709" 
d="M678 418l-23 -28q-30 -35 -65.5 -51.5t-81.5 -16.5q-30 0 -60 9t-59 19l-97 26q-20 5 -40.5 11t-36.5 6q-11 0 -25 -3q-48 -9 -85 -49l-20 -20l-50 32l16 18q31 32 61.5 49t75.5 24q21 3 38 3q20 0 42 -5t49 -13l85 -26q25 -8 51 -15.5t53 -7.5q61 0 104 44l21 23z
M678 229l-23 -27q-31 -36 -66 -52.5t-81 -16.5q-30 0 -60 9t-59 19l-97 27q-20 5 -40.5 11t-36.5 6q-11 0 -25 -3q-48 -9 -85 -49l-20 -21l-50 33l16 17q56 61 137 74q20 3 36 3q21 0 45 -5q10 -2 48 -13l85 -26q25 -8 51 -15.5t53 -7.5q63 0 104 44l21 23z" />
    <glyph glyph-name="Delta" unicode="&#x2206;" horiz-adv-x="768" 
d="M740 0h-709l378 795zM600 51l-235 555l-260 -555h495z" />
    <glyph glyph-name="guillemotleft" unicode="&#xab;" horiz-adv-x="573" 
d="M545 422l-162 -116l159 -112v-117l-225 175v112l228 168v-110zM260 422l-162 -116l158 -112v-117l-224 175v112l228 168v-110z" />
    <glyph glyph-name="guillemotright" unicode="&#xbb;" horiz-adv-x="575" 
d="M551 252l-225 -175v117l158 112l-161 116v110l228 -168v-112zM265 252l-224 -175v117l158 112l-162 116v110l228 -168v-112z" />
    <glyph glyph-name="ellipsis" unicode="&#x2026;" horiz-adv-x="580" 
d="M554 54q0 -24 -15.5 -42.5t-38.5 -18.5q-25 0 -41 16t-16 42q0 25 16.5 44.5t41.5 19.5q22 0 37.5 -18.5t15.5 -42.5zM350 49q0 -24 -15.5 -42.5t-39.5 -18.5t-40.5 16.5t-16.5 41.5q0 27 16.5 45.5t41.5 18.5q24 0 39 -18t15 -43zM146 49q0 -24 -15.5 -42.5t-39.5 -18.5
t-40.5 16.5t-16.5 41.5q0 27 16.5 45.5t41.5 18.5q24 0 39 -18t15 -43z" />
    <glyph glyph-name="nonbreakingspace" unicode="&#xa0;" horiz-adv-x="730" 
 />
    <glyph glyph-name="Agrave" unicode="&#xc0;" horiz-adv-x="866" 
d="M808 14q0 -14 -12 -14q-1 -1 -14 -1q-15 0 -74 2t-69 2l-157 -3q-5 1 -7 2q-7 4 -7 12q1 7 6.5 11.5t14.5 4.5h39q17 0 29.5 4.5t18.5 15.5t6 21q0 17 -4 25l-70 175q-5 11 -13 17q-11 6 -21 6h-212q-14 0 -21.5 -5t-10.5 -15l-61 -161q-6 -15 -6 -31q0 -15 8 -28
q17 -24 47 -24h42q19 0 19 -14t-10 -14q-3 -3 -23 -3q-15 0 -61 2t-51 2q-38 0 -83 -2t-46 -1q-3 1 -4 2q-5 5 -5 12q0 8 6 12t13 4h41q9 0 19 7l18.5 16.5t13.5 18t11 25.5l266 695q6 14 16 14t14 -14l273 -685q6 -15 11.5 -26t13.5 -20q17 -18 19 -20q14 -11 29 -11h29
q18 0 19 -16zM478 348l-103 256q-4 13 -10 13q-4 0 -7 -4q-2 -2 -4 -8l-97 -258q-2 -9 -1 -12q3 -4 12 -4h198q7 0 11 4q3 4 1 13zM547 839q-3 -5 -8 -5q-4 0 -10 3l-12 6l-217 108q-38 18 -38 40q0 7 5 17q9 16 28 16q20 0 37 -14l200 -147q9 -7 12 -10q6 -7 3 -14z" />
    <glyph glyph-name="Atilde" unicode="&#xc3;" horiz-adv-x="865" 
d="M836 14q0 -14 -12 -14q-1 -1 -14 -1q-15 0 -74 2t-69 2l-157 -3q-5 1 -7 2q-7 4 -7 12q1 7 6.5 11.5t14.5 4.5h39q17 0 29.5 4.5t18.5 15.5t6 21q0 17 -4 25l-70 175q-5 11 -13 17q-11 6 -21 6h-212q-14 0 -21.5 -5t-10.5 -15l-61 -161q-6 -15 -6 -31q0 -15 8 -28
q17 -24 47 -24h42q19 0 19 -14t-10 -14q-3 -3 -23 -3q-15 0 -61 2t-51 2q-38 0 -83 -2t-46 -1q-3 1 -4 2q-5 5 -5 12q0 8 6 12t13 4h41q9 0 19 7l18.5 16.5t13.5 18t11 25.5l266 695q6 14 16 14t14 -14l273 -685q6 -15 11.5 -26t13.5 -20q17 -18 19 -20q14 -11 29 -11h29
q18 0 19 -16zM506 348l-103 256q-4 13 -10 13q-4 0 -7 -4q-2 -2 -4 -8l-97 -258q-2 -9 -1 -12q3 -4 12 -4h198q7 0 11 4q3 4 1 13zM666 939q-19 -30 -32 -45q-41 -45 -83 -45q-8 -1 -10 -1q-23 0 -47 7q-8 2 -20 8l-50 19q-20 9 -33 13q-41 14 -66 14q-11 0 -16 -1
q-27 -6 -53 -37q-8 -10 -20 -30l-40 26q16 24 27 37q33 39 64 50q20 7 42 7q27 0 57 -10q10 -3 25 -10l58 -22q25 -9 40.5 -13.5t29.5 -4.5t27.5 4.5t29.5 18.5q20 18 28 39z" />
    <glyph glyph-name="Otilde" unicode="&#xd5;" horiz-adv-x="915" 
d="M893 385q0 -173 -127.5 -288.5t-303.5 -115.5q-174 0 -300.5 121.5t-126.5 293.5q0 163 127 279t300 116q175 0 303 -117.5t128 -288.5zM779 387q0 157 -81 259q-87 110 -236 110q-148 0 -235 -108q-80 -100 -80 -253q0 -166 76 -267q84 -112 239 -112q150 0 237 111
q80 102 80 260zM683 932q-19 -30 -32 -45q-41 -45 -83 -45q-8 -1 -10 -1q-23 0 -47 7q-8 2 -20 8l-50 19q-20 9 -33 13q-41 14 -66 14q-11 0 -16 -1q-27 -6 -53 -37q-8 -10 -20 -30l-40 26q16 24 27 37q33 39 64 50q20 7 42 7q27 0 57 -10q10 -3 25 -10l58 -22
q25 -9 40.5 -13.5t29.5 -4.5t27.5 4.5t29.5 18.5q20 18 28 39z" />
    <glyph glyph-name="OE" unicode="&#x152;" horiz-adv-x="1278" 
d="M1247 171l-25 -164q-1 -5 -2 -6l-3 -1l-465 6q-100 0 -149 -7q-127 -18 -141 -18q-174 0 -300.5 121.5t-126.5 293.5q0 163 128 279t299 116q43 0 170 -17q67 -9 146 -9q108 0 267 6q56 2 149 7q12 0 17 -5q3 -4 3 -17v-144q0 -12 -11 -13q-6 -1 -12 9q-15 31 -30 59
t-29 41q-19 18 -52.5 28t-71.5 10h-108h-29q-13 -2 -24 -12q-7 -7 -9.5 -15t-2.5 -21l-1 -228q0 -11 8 -19q13 -10 25 -10h152q25 0 34.5 4t17.5 14q12 17 18 49q2 11 4 31q4 16 16 14t12 -15q-2 -23 -2 -37q-3 -55 -3 -69q0 -30 2 -63t4 -62q-1 -5 -2 -7q-3 -7 -11 -7
q-7 0 -12 7l-4 8q-3 18 -5 27q-7 30 -16 42q-13 17 -38 22t-49 5h-119q-11 0 -23 -10q-9 -10 -9 -26v-253q0 -35 29 -62q15 -15 52 -21q12 -2 35 -3h69q51 0 80 7t64 33q14 11 28.5 42.5l29.5 63.5q6 10 14 9q12 -1 12 -13zM735 188v398l-25 44q-37 52 -85 82
q-71 44 -163 44q-148 0 -235 -108q-80 -100 -80 -253q0 -166 76 -267q84 -112 239 -112q101 0 175 50q98 66 98 122z" />
    <glyph glyph-name="oe" unicode="&#x153;" horiz-adv-x="1131" 
d="M1097 366v-7q-1 -8 -3 -9q-3 -3 -15 -3l-398 -1q-10 0 -16 -4q-11 -8 -11 -44q0 -86 47 -157q62 -94 178 -94q63 0 120 28q18 9 52 33q12 12 17 16q10 9 17 2q3 -3 2 -9q0 -2 -1 -6q-34 -40 -60 -59q-80 -59 -179 -59h-18q-13 2 -19 2q-65 7 -116.5 40t-86.5 89
q-40 -64 -112 -102t-153 -38q-124 0 -215.5 85.5t-91.5 207.5q0 120 83.5 202.5t218.5 82.5q89 0 156.5 -34.5t108.5 -97.5q40 65 113.5 102.5t166.5 37.5q94 0 149 -52q40 -38 57 -98q4 -27 9 -54zM992 415q5 15 5 26q0 41 -36 73t-90 32q-95 0 -157 -62q-47 -47 -47 -80
q-1 -5 -1 -7q-1 -9 1 -12q4 -7 15 -7h215q34 0 61.5 9t33.5 28zM557 268q0 112 -56 188q-61 82 -162 82q-98 0 -157 -78q-55 -73 -55 -182q0 -103 55 -182q61 -88 158 -88q91 0 154 76.5t63 183.5z" />
    <glyph glyph-name="endash" unicode="&#x2013;" horiz-adv-x="463" 
d="M437 265l-403 -1v66l403 1v-66z" />
    <glyph glyph-name="emdash" unicode="&#x2014;" horiz-adv-x="837" 
d="M811 265l-777 -1v66l777 1v-66z" />
    <glyph glyph-name="quotedblleft" unicode="&#x201c;" horiz-adv-x="373" 
d="M346 779q8 -8 -2 -18q-16 -14 -24 -23q-25 -26 -36 -47q-24 -41 -24 -68q0 -17 13 -26q33 -3 51 -15t18 -43q0 -24 -14 -36t-36 -12q-36 0 -53 26.5t-17 63.5q0 26 6.5 50t22.5 55t48 64q11 11 31 27q4 2 6 2q8 2 10 0zM153 779q7 -7 -2 -18q-16 -14 -24 -23
q-25 -26 -36 -47q-24 -41 -24 -68q0 -17 13 -26q33 -3 51 -15t18 -43q0 -24 -14 -36t-36 -12q-36 0 -53 26.5t-17 63.5q0 26 6.5 50t22.5 55t48 64q11 11 31 27q4 2 6 2q8 2 10 0z" />
    <glyph glyph-name="quotedblright" unicode="&#x201d;" horiz-adv-x="374" 
d="M330 756q19 -31 19 -68q0 -23 -7.5 -49t-20.5 -52q-17 -33 -50 -66q-11 -11 -31 -27q-4 -2 -6 -2q-8 -2 -10 0q-9 7 2 18q16 14 24 23q25 26 36 46t17.5 38t6.5 31q0 17 -12 26q-34 3 -52 15t-18 43q0 25 15 37t36 12q35 0 51 -25zM137 756q10 -15 14 -31.5t4 -34.5
q0 -26 -6.5 -50t-21.5 -53q-20 -41 -61 -78q-7 -6 -19 -15q-2 -2 -7 -3q-7 -2 -10 1q-8 6 2 18q16 14 24 23q25 26 37 47q24 41 24 68q0 17 -13 26q-34 3 -52 15t-18 43q0 25 15 37t36 12q36 0 52 -25z" />
    <glyph glyph-name="quoteleft" unicode="&#x2018;" horiz-adv-x="179" 
d="M156 776q7 -7 -2 -18q-16 -14 -24 -23q-25 -26 -36 -46t-17.5 -38t-6.5 -31q0 -17 12 -26q13 -3 27 -5q43 -8 43 -53q0 -24 -14 -36t-36 -12q-36 0 -52 25q-19 31 -19 66q0 25 7.5 49.5t21.5 52.5q20 41 60 78q7 6 19 15q2 2 7 3q7 2 10 -1z" />
    <glyph glyph-name="quoteright" unicode="&#x2019;" horiz-adv-x="183" 
d="M141 756q19 -31 19 -68q0 -23 -7.5 -49t-20.5 -52q-17 -33 -50 -66q-11 -11 -31 -27q-4 -2 -6 -2q-8 -2 -10 0q-9 7 2 18q16 14 24 23q25 26 36 46t17.5 38t6.5 31q0 17 -12 26q-34 3 -52 15t-18 43q0 25 15 37t36 12q35 0 51 -25z" />
    <glyph glyph-name="divide" unicode="&#xf7;" horiz-adv-x="724" 
d="M359 430q-33 0 -52 21t-19 49q0 29 19 50t52 21t52 -21t19 -50q0 -28 -19 -49t-52 -21zM697 288h-663v75h662zM359 82q-32 0 -51 21t-19 50t18 50t52 21q33 0 52 -21t19 -50t-19 -50t-52 -21z" />
    <glyph glyph-name="lozenge" unicode="&#x25ca;" horiz-adv-x="534" 
d="M509 391l-202 -392h-67l-206 398l206 379h67zM448 391l-175 328l-176 -324l177 -347z" />
    <glyph glyph-name="ydieresis" unicode="&#xff;" horiz-adv-x="695" 
d="M671 541q2 -12 -9 -16q-20 0 -35.5 -4.5t-30 -19t-27.5 -37.5q-17 -29 -23 -48l-269 -638q-12 -29 -19 -38q-17 -24 -55 -24q-28 0 -48 15q-15 11 -15 42q0 16 10.5 28.5t30.5 12.5q9 0 25 -2.5t19 -2.5q15 0 26.5 12t15.5 23l53 126q6 13 5 28q0 12 -2 18q-5 10 -7 16
l-181 423q-6 17 -13.5 33t-16.5 24.5t-21.5 11t-17.5 2.5q-2 0 -9 -1t-8 0l-6 3q-7 4 -7 10q0 8 5 12q1 1 5 2h256q13 0 13 -12q0 -7 -6 -11q-2 -1 -7 -4h-21q-21 0 -35.5 -4t-19 -13.5t-4.5 -18.5q0 -6 1 -11q2 -7 6 -19l149 -356l146 343q3 8 6 17.5t3 19.5
q0 15 -8.5 25.5t-25.5 13.5t-27 3h-19q-12 2 -12 15q0 12 13 12h205q12 -3 12 -11zM294 660q0 -24 -14.5 -37.5t-35.5 -13.5q-22 0 -39 15t-17 41q0 24 14.5 37.5t35.5 13.5q22 0 39 -15t17 -41zM523 660q0 -25 -15.5 -38.5t-36.5 -13.5q-22 0 -38 14t-16 40q0 25 15.5 38.5
t36.5 13.5t37.5 -14.5t16.5 -39.5z" />
    <glyph glyph-name="Ydieresis" unicode="&#x178;" horiz-adv-x="900" 
d="M867 758q0 -12 -13 -12h-30q-19 0 -41 -13q-12 -7 -29 -23q-22 -21 -43 -49l-19 -28l-183 -273q-4 -6 -8 -13t-6.5 -17.5t-2.5 -24.5v-13v-194q0 -13 0.5 -25.5t8.5 -22.5q16 -20 42 -20h41q19 0 19 -17q2 -13 -10 -13q-1 -1 -71 1t-78 2q-44 0 -95 -2t-52 -1q-3 1 -4 2
q-5 5 -5 12q2 16 20 16h39q24 0 39 19q7 9 8.5 20t1.5 30v192v22q0 14 -3 25t-14 28l-199 295l-14 22q-17 25 -30 37q-20 18 -52 24q-10 1 -22.5 2t-15.5 2q-10 4 -10 11q0 9 10 15q1 1 5 2q20 0 79.5 -1t75.5 -1q33 0 64 1l60 2h13q1 0 2 -1q13 0 13 -15t-18 -15h-41
q-13 0 -23.5 -6t-10.5 -16q-1 -12 5 -26q3 -8 10 -17l203 -302l185 282q6 10 9 16q10 20 10 33q0 9 -2 13q-5 14 -22 20q-5 2 -16 3h-40q-22 0 -22 12q0 18 17 18l130 -4q30 0 62.5 1t60.5 3q4 -2 6 -4q6 -6 6 -14zM394 885q0 -24 -14.5 -37.5t-35.5 -13.5q-22 0 -39 15
t-17 41q0 24 14.5 37.5t35.5 13.5q22 0 39 -15t17 -41zM623 885q0 -25 -15.5 -38.5t-36.5 -13.5q-22 0 -38 14t-16 40q0 25 15.5 38.5t36.5 13.5t37.5 -14.5t16.5 -39.5z" />
    <glyph glyph-name="periodcentered" unicode="&#xb7;" horiz-adv-x="172" 
d="M146 389q0 -24 -15.5 -42.5t-39.5 -18.5t-40.5 16.5t-16.5 41.5q0 27 16.5 45.5t41.5 18.5q24 0 39 -18t15 -43z" />
    <glyph glyph-name="periodcentered" unicode="&#x2219;" horiz-adv-x="172" 
d="M146 389q0 -24 -15.5 -42.5t-39.5 -18.5t-40.5 16.5t-16.5 41.5q0 27 16.5 45.5t41.5 18.5q24 0 39 -18t15 -43z" />
    <glyph glyph-name="quotesinglbase" unicode="&#x201a;" horiz-adv-x="183" 
d="M141 81q19 -31 19 -68q0 -23 -7.5 -49t-20.5 -52q-17 -33 -50 -66q-11 -11 -31 -27q-4 -2 -6 -2q-8 -2 -10 0q-9 7 2 18q16 14 24 23q25 26 36 46t17.5 38t6.5 31q0 17 -12 26q-34 3 -52 15t-18 43q0 25 15 37t36 12q35 0 51 -25z" />
    <glyph glyph-name="quotedblbase" unicode="&#x201e;" horiz-adv-x="374" 
d="M330 81q19 -31 19 -68q0 -23 -7.5 -49t-20.5 -52q-17 -33 -50 -66q-11 -11 -31 -27q-4 -2 -6 -2q-8 -2 -10 0q-9 7 2 18q16 14 24 23q25 26 36 46t17.5 38t6.5 31q0 17 -12 26q-34 3 -52 15t-18 43q0 25 15 37t36 12q35 0 51 -25zM137 81q10 -15 14 -31.5t4 -34.5
q0 -26 -6.5 -50t-21.5 -53q-20 -41 -61 -78q-7 -6 -19 -15q-2 -2 -7 -3q-7 -2 -10 1q-8 6 2 18q16 14 24 23q25 26 37 47q24 41 24 68q0 17 -13 26q-34 3 -52 15t-18 43q0 25 15 37t36 12q36 0 52 -25z" />
    <glyph glyph-name="Acircumflex" unicode="&#xc2;" horiz-adv-x="894" 
d="M850 14q0 -14 -12 -14q-1 -1 -14 -1q-15 0 -74 2t-69 2l-157 -3q-5 1 -7 2q-7 4 -7 12q1 7 6.5 11.5t14.5 4.5h39q17 0 29.5 4.5t18.5 15.5t6 21q0 17 -4 25l-70 175q-5 11 -13 17q-11 6 -21 6h-212q-14 0 -21.5 -5t-10.5 -15l-61 -161q-6 -15 -6 -31q0 -15 8 -28
q17 -24 47 -24h42q19 0 19 -14t-10 -14q-3 -3 -23 -3q-15 0 -61 2t-51 2q-38 0 -83 -2t-46 -1q-3 1 -4 2q-5 5 -5 12q0 8 6 12t13 4h41q9 0 19 7l18.5 16.5t13.5 18t11 25.5l266 695q6 14 16 14t14 -14l273 -685q6 -15 11.5 -26t13.5 -20q17 -18 19 -20q14 -11 29 -11h29
q18 0 19 -16zM520 348l-103 256q-4 13 -10 13q-4 0 -7 -4q-2 -2 -4 -8l-97 -258q-2 -9 -1 -12q3 -4 12 -4h198q7 0 11 4q3 4 1 13zM621 865q4 -6 4 -12q0 -7 -6 -12q-4 -4 -11 -4q-8 0 -15 5l-120 98q-11 8 -23 8q-11 0 -21 -8l-138 -99q-5 -3 -11 -3q-9 0 -13 7q-5 12 3 20
l147 152q18 18 34 18q20 0 37 -19z" />
    <glyph glyph-name="Ecircumflex" unicode="&#xca;" horiz-adv-x="690" 
d="M658 171l-25 -164l-1 -6l-5 -1q-38 0 -100 0.5l-178 1.5t-160 1l-142 -3q-3 1 -4 1q-11 4 -10 13q0 8 6 12t13 4h45q22 0 39 19q7 9 8.5 19.5t1.5 29.5v585v13q0 19 -10 32q-15 18 -39 18h-44q-19 0 -19 17q0 7 8 11q2 1 8 2h144h412q14 0 16 -3q4 -4 4 -17v-144
q0 -12 -11 -13q-6 -1 -12 9l-30 58q-17 31 -29 42q-19 18 -52.5 28t-72.5 10h-107h-29q-14 -2 -25.5 -13t-11.5 -35v-228q0 -12 10 -20.5t22 -8.5h153q20 0 31 3t21.5 17t16.5 47q2 11 4 31q4 16 16 14q13 -2 13 -15q-2 -23 -2 -37q-3 -55 -3 -69q0 -43 3 -98q0 -10 2 -27
q0 -4 -1 -6q-3 -7 -11 -8q-7 0 -12 7l-4 8q-3 18 -5 27q-7 29 -17 42q-13 17 -38 22t-49 5h-119q-12 0 -21.5 -10t-9.5 -26v-253q0 -23 11 -41q6 -10 19 -22.5t51 -18.5q12 -1 34 -3h70q49 0 80 7t63 32q15 12 29.5 43l29.5 63q4 10 13 9q14 -1 12 -13zM573 865q4 -6 4 -12
q0 -7 -6 -12q-4 -4 -11 -4q-8 0 -15 5l-120 98q-11 8 -23 8q-11 0 -21 -8l-138 -99q-5 -3 -11 -3q-9 0 -13 7q-5 12 3 20l147 152q18 18 34 18q20 0 37 -19z" />
    <glyph glyph-name="Aacute" unicode="&#xc1;" horiz-adv-x="888" 
d="M850 14q0 -14 -12 -14q-1 -1 -14 -1q-15 0 -74 2t-69 2l-157 -3q-5 1 -7 2q-7 4 -7 12q1 7 6.5 11.5t14.5 4.5h39q17 0 29.5 4.5t18.5 15.5t6 21q0 17 -4 25l-70 175q-5 11 -13 17q-11 6 -21 6h-212q-14 0 -21.5 -5t-10.5 -15l-61 -161q-6 -15 -6 -31q0 -15 8 -28
q17 -24 47 -24h42q19 0 19 -14t-10 -14q-3 -3 -23 -3q-15 0 -61 2t-51 2q-38 0 -83 -2t-46 -1q-3 1 -4 2q-5 5 -5 12q0 8 6 12t13 4h41q9 0 19 7l18.5 16.5t13.5 18t11 25.5l266 695q6 14 16 14t14 -14l273 -685q6 -15 11.5 -26t13.5 -20q17 -18 19 -20q14 -11 29 -11h29
q18 0 19 -16zM520 348l-103 256q-4 13 -10 13q-4 0 -7 -4q-2 -2 -4 -8l-97 -258q-2 -9 -1 -12q3 -4 12 -4h198q7 0 11 4q3 4 1 13zM580 1012q5 -10 5 -16q0 -22 -38 -42l-218 -108l-14 -6t-9 -3q-4 0 -7 5q-4 6 1 12t14 13l200 147q17 14 37 14t29 -16z" />
    <glyph glyph-name="Edieresis" unicode="&#xcb;" horiz-adv-x="696" 
d="M658 171l-25 -164l-1 -6l-5 -1q-38 0 -100 0.5l-178 1.5t-160 1l-142 -3q-3 1 -4 1q-11 4 -10 13q0 8 6 12t13 4h45q22 0 39 19q7 9 8.5 19.5t1.5 29.5v585v13q0 19 -10 32q-15 18 -39 18h-44q-19 0 -19 17q0 7 8 11q2 1 8 2h144h412q14 0 16 -3q4 -4 4 -17v-144
q0 -12 -11 -13q-6 -1 -12 9l-30 58q-17 31 -29 42q-19 18 -52.5 28t-72.5 10h-107h-29q-14 -2 -25.5 -13t-11.5 -35v-228q0 -12 10 -20.5t22 -8.5h153q20 0 31 3t21.5 17t16.5 47q2 11 4 31q4 16 16 14q13 -2 13 -15q-2 -23 -2 -37q-3 -55 -3 -69q0 -43 3 -98q0 -10 2 -27
q0 -4 -1 -6q-3 -7 -11 -8q-7 0 -12 7l-4 8q-3 18 -5 27q-7 29 -17 42q-13 17 -38 22t-49 5h-119q-12 0 -21.5 -10t-9.5 -26v-253q0 -23 11 -41q6 -10 19 -22.5t51 -18.5q12 -1 34 -3h70q49 0 80 7t63 32q15 12 29.5 43l29.5 63q4 10 13 9q14 -1 12 -13zM322 894
q0 -24 -14.5 -37.5t-35.5 -13.5q-22 0 -39 15t-17 41q0 24 14.5 37.5t35.5 13.5q22 0 39 -15t17 -41zM551 894q0 -25 -15.5 -38.5t-36.5 -13.5q-22 0 -38 14t-16 40q0 25 15.5 38.5t36.5 13.5t37.5 -14.5t16.5 -39.5z" />
    <glyph glyph-name="Egrave" unicode="&#xc8;" horiz-adv-x="696" 
d="M658 171l-25 -164l-1 -6l-5 -1q-38 0 -100 0.5l-178 1.5t-160 1l-142 -3q-3 1 -4 1q-11 4 -10 13q0 8 6 12t13 4h45q22 0 39 19q7 9 8.5 19.5t1.5 29.5v585v13q0 19 -10 32q-15 18 -39 18h-44q-19 0 -19 17q0 7 8 11q2 1 8 2h144h412q14 0 16 -3q4 -4 4 -17v-144
q0 -12 -11 -13q-6 -1 -12 9l-30 58q-17 31 -29 42q-19 18 -52.5 28t-72.5 10h-107h-29q-14 -2 -25.5 -13t-11.5 -35v-228q0 -12 10 -20.5t22 -8.5h153q20 0 31 3t21.5 17t16.5 47q2 11 4 31q4 16 16 14q13 -2 13 -15q-2 -23 -2 -37q-3 -55 -3 -69q0 -43 3 -98q0 -10 2 -27
q0 -4 -1 -6q-3 -7 -11 -8q-7 0 -12 7l-4 8q-3 18 -5 27q-7 29 -17 42q-13 17 -38 22t-49 5h-119q-12 0 -21.5 -10t-9.5 -26v-253q0 -23 11 -41q6 -10 19 -22.5t51 -18.5q12 -1 34 -3h70q49 0 80 7t63 32q15 12 29.5 43l29.5 63q4 10 13 9q14 -1 12 -13zM532 843q-3 -5 -8 -5
q-4 0 -10 3l-12 6l-217 108q-38 18 -38 40q0 7 5 17q9 16 28 16q20 0 37 -14l200 -147q9 -7 12 -10q6 -7 3 -14z" />
    <glyph glyph-name="Iacute" unicode="&#xcd;" horiz-adv-x="402" 
d="M358 15q0 -15 -11 -15q-2 -2 -68 1.5t-83 3.5q-40 0 -79 -2t-65 -3q-3 2 -4 3q-5 6 -5 13q0 14 19 14h40q23 0 39 21q7 7 9 15.5t2 20.5v14v581q0 17 -1.5 27t-9.5 19q-14 18 -39 18h-39q-20 0 -20 15q0 8 10 15q32 -1 85.5 -2t60.5 -1q35 0 89.5 2t55.5 1q14 0 14 -14
q0 -16 -19 -16h-42q-25 0 -40 -18q-7 -9 -8.5 -18.5t-1.5 -27.5v-582v-20q0 -16 9 -28q16 -22 41 -22h42q19 0 19 -15zM334 1012q5 -10 5 -16q0 -22 -38 -42l-218 -108l-14 -6t-9 -3q-4 0 -7 5q-4 6 1 12t14 13l200 147q17 14 37 14t29 -16z" />
    <glyph glyph-name="Icircumflex" unicode="&#xce;" horiz-adv-x="402" 
d="M358 15q0 -15 -11 -15q-2 -2 -68 1.5t-83 3.5q-40 0 -79 -2t-65 -3q-3 2 -4 3q-5 6 -5 13q0 14 19 14h40q23 0 39 21q7 7 9 15.5t2 20.5v14v581q0 17 -1.5 27t-9.5 19q-14 18 -39 18h-39q-20 0 -20 15q0 8 10 15q32 -1 85.5 -2t60.5 -1q35 0 89.5 2t55.5 1q14 0 14 -14
q0 -16 -19 -16h-42q-25 0 -40 -18q-7 -9 -8.5 -18.5t-1.5 -27.5v-582v-20q0 -16 9 -28q16 -22 41 -22h42q19 0 19 -15zM381 865q4 -6 4 -12q0 -7 -6 -12q-4 -4 -11 -4q-8 0 -15 5l-120 98q-11 8 -23 8q-11 0 -21 -8l-138 -99q-5 -3 -11 -3q-9 0 -13 7q-5 12 3 20l147 152
q18 18 34 18q20 0 37 -19z" />
    <glyph glyph-name="Idieresis" unicode="&#xcf;" horiz-adv-x="402" 
d="M358 15q0 -15 -11 -15q-2 -2 -68 1.5t-83 3.5q-40 0 -79 -2t-65 -3q-3 2 -4 3q-5 6 -5 13q0 14 19 14h40q23 0 39 21q7 7 9 15.5t2 20.5v14v581q0 17 -1.5 27t-9.5 19q-14 18 -39 18h-39q-20 0 -20 15q0 8 10 15q32 -1 85.5 -2t60.5 -1q35 0 89.5 2t55.5 1q14 0 14 -14
q0 -16 -19 -16h-42q-25 0 -40 -18q-7 -9 -8.5 -18.5t-1.5 -27.5v-582v-20q0 -16 9 -28q16 -22 41 -22h42q19 0 19 -15zM130 894q0 -24 -14.5 -37.5t-35.5 -13.5q-22 0 -39 15t-17 41q0 24 14.5 37.5t35.5 13.5q22 0 39 -15t17 -41zM359 894q0 -25 -15.5 -38.5t-36.5 -13.5
q-22 0 -38 14t-16 40q0 25 15.5 38.5t36.5 13.5t37.5 -14.5t16.5 -39.5z" />
    <glyph glyph-name="Igrave" unicode="&#xcc;" horiz-adv-x="402" 
d="M358 15q0 -15 -11 -15q-2 -2 -68 1.5t-83 3.5q-40 0 -79 -2t-65 -3q-3 2 -4 3q-5 6 -5 13q0 14 19 14h40q23 0 39 21q7 7 9 15.5t2 20.5v14v581q0 17 -1.5 27t-9.5 19q-14 18 -39 18h-39q-20 0 -20 15q0 8 10 15q32 -1 85.5 -2t60.5 -1q35 0 89.5 2t55.5 1q14 0 14 -14
q0 -16 -19 -16h-42q-25 0 -40 -18q-7 -9 -8.5 -18.5t-1.5 -27.5v-582v-20q0 -16 9 -28q16 -22 41 -22h42q19 0 19 -15zM346 843q-3 -5 -8 -5q-4 0 -10 3l-12 6l-217 108q-38 18 -38 40q0 7 5 17q9 16 28 16q20 0 37 -14l200 -147q9 -7 12 -10q6 -7 3 -14z" />
    <glyph glyph-name="Oacute" unicode="&#xd3;" horiz-adv-x="936" 
d="M899 391q0 -173 -127.5 -288.5t-303.5 -115.5q-174 0 -300.5 121.5t-126.5 293.5q0 163 127 279t300 116q175 0 303 -117.5t128 -288.5zM785 393q0 157 -81 259q-87 110 -236 110q-148 0 -235 -108q-80 -100 -80 -253q0 -166 76 -267q84 -112 239 -112q150 0 237 111
q80 102 80 260zM604 1012q5 -10 5 -16q0 -22 -38 -42l-218 -108l-14 -6t-9 -3q-4 0 -7 5q-4 6 1 12t14 13l200 147q17 14 37 14t29 -16z" />
    <glyph glyph-name="Ocircumflex" unicode="&#xd4;" horiz-adv-x="930" 
d="M893 385q0 -173 -127.5 -288.5t-303.5 -115.5q-174 0 -300.5 121.5t-126.5 293.5q0 163 127 279t300 116q175 0 303 -117.5t128 -288.5zM779 387q0 157 -81 259q-87 110 -236 110q-148 0 -235 -108q-80 -100 -80 -253q0 -166 76 -267q84 -112 239 -112q150 0 237 111
q80 102 80 260zM633 865q4 -6 4 -12q0 -7 -6 -12q-4 -4 -11 -4q-8 0 -15 5l-120 98q-11 8 -23 8q-11 0 -21 -8l-138 -99q-5 -3 -11 -3q-9 0 -13 7q-5 12 3 20l147 152q18 18 34 18q20 0 37 -19z" />
    <glyph glyph-name="Ograve" unicode="&#xd2;" horiz-adv-x="930" 
d="M893 385q0 -173 -127.5 -288.5t-303.5 -115.5q-174 0 -300.5 121.5t-126.5 293.5q0 163 127 279t300 116q175 0 303 -117.5t128 -288.5zM779 387q0 157 -81 259q-87 110 -236 110q-148 0 -235 -108q-80 -100 -80 -253q0 -166 76 -267q84 -112 239 -112q150 0 237 111
q80 102 80 260zM580 843q-3 -5 -8 -5q-4 0 -10 3l-12 6l-217 108q-38 18 -38 40q0 7 5 17q9 16 28 16q20 0 37 -14l200 -147q9 -7 12 -10q6 -7 3 -14z" />
    <glyph glyph-name="Uacute" unicode="&#xda;" horiz-adv-x="882" 
d="M848 760q1 -14 -17 -14h-44q-9 0 -14 -3q-4 -2 -19 -19q-7 -9 -8 -26.5l-2 -34.5v-407q0 -75 -7 -105q-14 -61 -63 -102q-40 -33 -100 -49t-127 -16q-38 0 -75 5t-68 13q-85 24 -122 69t-37 117v493q0 18 -1.5 27t-9.5 19q-15 19 -40 19h-38q-20 0 -21 12q0 7 5 13
q1 2 6 5q32 -1 85.5 -2t59.5 -1q45 0 97 2t53 1q10 0 10 -18q0 -12 -20 -12h-41q-25 0 -40 -19q-7 -8 -9 -15t-2 -31v-451q0 -39 6.5 -79t24.5 -64q28 -37 78.5 -55t111.5 -18q48 0 92.5 11t74.5 30q54 33 69 77q10 29 10 99v431q0 16 -1 34t-11 28q-18 22 -45 22h-39h-15
q-7 1 -8 9q0 9 7 15t11 6l119 -5q30 0 68.5 3t39.5 2q7 -3 10 -5q6 -5 6 -11zM592 1012q5 -10 5 -16q0 -22 -38 -42l-218 -108l-14 -6t-9 -3q-4 0 -7 5q-4 6 1 12t14 13l200 147q17 14 37 14t29 -16z" />
    <glyph glyph-name="Ucircumflex" unicode="&#xdb;" horiz-adv-x="882" 
d="M848 760q1 -14 -17 -14h-44q-9 0 -14 -3q-4 -2 -19 -19q-7 -9 -8 -26.5l-2 -34.5v-407q0 -75 -7 -105q-14 -61 -63 -102q-40 -33 -100 -49t-127 -16q-38 0 -75 5t-68 13q-85 24 -122 69t-37 117v493q0 18 -1.5 27t-9.5 19q-15 19 -40 19h-38q-20 0 -21 12q0 7 5 13
q1 2 6 5q32 -1 85.5 -2t59.5 -1q45 0 97 2t53 1q10 0 10 -18q0 -12 -20 -12h-41q-25 0 -40 -19q-7 -8 -9 -15t-2 -31v-451q0 -39 6.5 -79t24.5 -64q28 -37 78.5 -55t111.5 -18q48 0 92.5 11t74.5 30q54 33 69 77q10 29 10 99v431q0 16 -1 34t-11 28q-18 22 -45 22h-39h-15
q-7 1 -8 9q0 9 7 15t11 6l119 -5q30 0 68.5 3t39.5 2q7 -3 10 -5q6 -5 6 -11zM657 865q4 -6 4 -12q0 -7 -6 -12q-4 -4 -11 -4q-8 0 -15 5l-120 98q-11 8 -23 8q-11 0 -21 -8l-138 -99q-5 -3 -11 -3q-9 0 -13 7q-5 12 3 20l147 152q18 18 34 18q20 0 37 -19z" />
    <glyph glyph-name="Ugrave" unicode="&#xd9;" horiz-adv-x="888" 
d="M848 760q1 -14 -17 -14h-44q-9 0 -14 -3q-4 -2 -19 -19q-7 -9 -8 -26.5l-2 -34.5v-407q0 -75 -7 -105q-14 -61 -63 -102q-40 -33 -100 -49t-127 -16q-38 0 -75 5t-68 13q-85 24 -122 69t-37 117v493q0 18 -1.5 27t-9.5 19q-15 19 -40 19h-38q-20 0 -21 12q0 7 5 13
q1 2 6 5q32 -1 85.5 -2t59.5 -1q45 0 97 2t53 1q10 0 10 -18q0 -12 -20 -12h-41q-25 0 -40 -19q-7 -8 -9 -15t-2 -31v-451q0 -39 6.5 -79t24.5 -64q28 -37 78.5 -55t111.5 -18q48 0 92.5 11t74.5 30q54 33 69 77q10 29 10 99v431q0 16 -1 34t-11 28q-18 22 -45 22h-39h-15
q-7 1 -8 9q0 9 7 15t11 6l119 -5q30 0 68.5 3t39.5 2q7 -3 10 -5q6 -5 6 -11zM604 849q-3 -5 -8 -5q-4 0 -10 3l-12 6l-217 108q-38 18 -38 40q0 7 5 17q9 16 28 16q20 0 37 -14l200 -147q9 -7 12 -10q6 -7 3 -14z" />
    </font>
</defs>
</svg>
