<?xml version="1.0" standalone="no"?>
<!DOCTYPE svg PUBLIC "-//W3C//DTD SVG 1.1//EN" "http://www.w3.org/Graphics/SVG/1.1/DTD/svg11.dtd" >
<svg>
<metadata>
Created by FontForge 20090622 at Mon Mar  9 13:00:23 2020
 By deploy user
Copyright (c) 1992 Image Club Graphics, Inc.
</metadata>
<defs>
<font id="GaramondLightItalic" horiz-adv-x="853" >
  <font-face 
    font-family="Garamond Light"
    font-weight="5"
    font-style="italic"
    font-stretch="normal"
    units-per-em="1037"
    panose-1="0 0 0 0 0 0 0 0 0 0"
    ascent="829"
    descent="-208"
    x-height="571"
    cap-height="767"
    bbox="-161 -284 1376 1008"
    underline-thickness="20"
    underline-position="-156"
    slope="-12"
    unicode-range="U+0020-U+25CA"
  />
<missing-glyph horiz-adv-x="767" 
d="M47 0v767h673v-767h-673zM673 47v673h-579v-673h579z" />
    <glyph glyph-name=".notdef" horiz-adv-x="767" 
d="M47 0v767h673v-767h-673zM673 47v673h-579v-673h579z" />
    <glyph glyph-name=".null" unicode="&#xd7;" horiz-adv-x="0" 
 />
    <glyph glyph-name=".null" unicode="&#x141;" horiz-adv-x="0" 
 />
    <glyph glyph-name=".null" unicode="&#xfd;" horiz-adv-x="0" 
 />
    <glyph glyph-name="nonmarkingreturn" horiz-adv-x="369" 
 />
    <glyph glyph-name="space" unicode=" " horiz-adv-x="369" 
 />
    <glyph glyph-name="exclam" unicode="!" horiz-adv-x="224" 
d="M397 725l-220 -503q-6 -15 -11.5 -20.5t-11.5 -2.5t-6 11q3 13 4 19l145 506q7 26 25 41t43 15q20 0 29 -10t9 -26t-6 -30zM145 27q-18 -36 -52 -36q-8 0 -16 3q-23 11 -23 42q0 18 7 35t21 27t29 10q11 0 19 -4q24 -12 24 -43q0 -14 -9 -34z" />
    <glyph glyph-name="quotedbl" unicode="&#x22;" horiz-adv-x="332" 
d="M504 721l-132 -326q-1 -5 -6 -9t-9 -3q-6 1 -6 11q0 6 1 9l80 332q4 16 17 27t29 11q9 0 19.5 -6.5t10.5 -24.5q0 -7 -4 -21zM312 721l-131 -326q-6 -15 -16 -12q-5 1 -5 11q0 6 1 9l80 332q4 16 17 27t29 11q9 0 17 -5q13 -9 13 -25q0 -10 -5 -22z" />
    <glyph glyph-name="numbersign" unicode="#" horiz-adv-x="672" 
d="M832 755l-15 -34q-2 -7 -5 -9t-22 -2h-138q-12 0 -14 -1q-5 -4 -7 -11l-46 -111q-3 -8 0 -14q3 -5 16 -5h129q17 0 20 -3q2 -3 0 -12l-14 -33l-5 -7l-10 -1h-153q-11 0 -15 -4l-6 -13l-61 -155l-4 -7l-7 -3h-13q-6 0 -9 5q-1 3 6 19l56 138q4 11 2 15q-2 3 -9 3h-135
q-13 0 -16 -2q-6 -3 -9 -13l-61 -154l-4 -8q-1 -1 -7 -2h-12q-7 0 -8 5q-1 3 3 11l60 148q4 8 1 12q-2 3 -13 3h-130q-10 0 -14 4q-2 3 0 10l14 35q2 7 6 8l7 1h141q13 0 17 4l6 11l47 114q2 8 -1 11q-4 4 -13 4h-129q-11 0 -14 4q-2 3 0 10l15 38l5 6q2 1 8 1h148q7 0 12 6
l7 11l54 137q2 5 5 7l7 2l14 -1l4 -3q2 -4 -2 -13l-52 -127q-3 -10 0 -15q4 -5 11 -5h130q13 0 17 3t8 14l55 137l5 8q1 1 7 2h11q8 0 9 -4q2 -4 -2 -14l-54 -131q-2 -7 3 -12q4 -4 15 -4h135q10 0 13 -4q3 -3 0 -10zM597 707q-4 6 -15 6h-130q-3 0 -9 -2q-1 0 -5 -2l-8 -14
l-44 -107q-6 -14 -1 -19q4 -3 14 -3h130q8 0 14 3q3 2 4 4l3 9l46 109q4 11 1 16z" />
    <glyph glyph-name="dollar" unicode="$" horiz-adv-x="504" 
d="M633 690l-21 -87q-4 -16 -5 -18q-5 -9 -14 -9t-11 8.5t-2 26.5q0 47 -17 76q-20 34 -60 39l-11 2l-88 -292l12 -12l64 -64q52 -59 52 -128q0 -95 -75.5 -160t-173.5 -65l-14 -1l-32 -111q-3 -12 -13 -19t-19 -5q-7 1 -7 12q0 8 1 11l33 113l-13 2q-39 4 -79.5 16.5
t-56.5 25.5q-7 6 -7 19v14l9 101q0 9 4.5 15.5t13.5 5.5q13 -2 13 -25v-11q0 -82 59 -116q63 -20 67 -22l101 329l-10 9q-59 51 -82 85q-32 47 -32 105q0 82 74 139q68 52 153 52l19 1l29 100q3 9 11 12t15 2q9 -3 9 -14q0 -9 -2 -14l-26 -84l9 -2q57 -10 59 -11
q25 -6 63 -26q4 -3 4 -9q0 -4 -1 -8zM455 728l-10 -1q-59 0 -103.5 -37t-44.5 -93q0 -35 18 -65q14 -24 49 -57l10 -9zM441 155q4 12 4 29q0 33 -15.5 67t-43.5 63l-15 15l-93 -299l11 1q44 0 85 29q50 35 67 95z" />
    <glyph glyph-name="percent" unicode="%" horiz-adv-x="976" 
d="M535 492q-29 -78 -94 -136.5t-132 -58.5q-27 0 -54 12q-45 22 -66 61.5t-21 92.5q0 48 17 101q25 75 93 141q76 73 148 73q42 0 78 -27q28 -22 41.5 -57t13.5 -78q0 -60 -24 -124zM915 775q1 -5 -6 -12l-591 -773l-6 -4l-8 -2h-24q-5 0 -8 5q-1 3 4 10l7 10l584 764l6 5
l8 3h27q7 -4 7 -6zM996 184q-30 -79 -92 -135q-66 -60 -133 -60q-29 0 -55 13q-45 22 -66 61t-21 92q0 48 17 102q24 74 93 140q76 73 148 73q42 0 78 -27q28 -22 41.5 -57t13.5 -77q0 -33 -6 -62.5t-18 -62.5zM469 743q-11 7 -22 10.5t-23 3.5q-50 0 -99 -62
q-38 -49 -67 -124q-16 -40 -25 -75t-9 -69q0 -38 14 -63.5t46 -39.5q11 -5 26 -5q44 0 92 54q37 42 56 90q14 35 25 79q18 69 18 117q0 30 -7.5 51.5t-24.5 32.5zM930 435q-22 14 -46 14q-49 0 -98 -62q-39 -49 -68 -124q-15 -40 -24 -75t-9 -68q0 -37 14 -63.5t46 -40.5
q11 -5 26 -5q44 0 91 54q36 41 55 90q12 29 26 80q19 71 19 117q0 30 -7.5 51t-24.5 32z" />
    <glyph glyph-name="ampersand" unicode="&#x26;" horiz-adv-x="829" 
d="M906 410q10 3 10 -12q0 -14 -8 -35.5t-18.5 -39t-38.5 -30t-53 -12.5l-43 2q7 -14 13.5 -28.5t6.5 -34.5q0 -94 -102 -166t-227 -72q-143 0 -237 67q-98 70 -98 183q0 92 78 159q69 59 179 84l10 3l-6 9q-11 16 -21 33q-15 26 -15 65q0 86 87 145q77 52 166 52
q52 0 84.5 -11t77.5 -47q11 -8 11 -23q0 -5 -2 -15l-16 -56q-4 -15 -14 -16t-18.5 5t-15.5 16q-38 55 -63.5 70.5t-73.5 15.5q-66 0 -124 -40q-66 -46 -66 -112q0 -28 10.5 -48.5t32.5 -42.5q6 2 18.5 4t26.5 2h28q41 0 58.5 -8.5t17.5 -21.5q0 -11 -8.5 -17.5t-36.5 -6.5
q-19 0 -34 3q-43 7 -52.5 10.5t-28.5 17.5l-11 -3q-83 -22 -133 -83t-50 -143q0 -97 69.5 -159t167.5 -62q107 0 197 53q106 62 106 162q0 40 -33 57.5t-79 17.5q-47 0 -79 -15t-65 -55q-6 -9 -9 -11q-7 -5 -11 -1q-7 7 -1 16q35 60 103 89q59 25 151 25l97 2q18 0 29.5 5.5
t27.5 18.5q11 9 18.5 21.5t9.5 13.5z" />
    <glyph glyph-name="quotesingle" unicode="'" horiz-adv-x="145" 
d="M312 721l-131 -326q-6 -15 -16 -12q-5 1 -5 11q0 6 1 9l80 332q4 16 17 27t29 11q9 0 17 -5q13 -9 13 -25q0 -10 -5 -22z" />
    <glyph glyph-name="parenleft" unicode="(" horiz-adv-x="463" 
d="M659 874q0 -9 -12 -11.5t-24 -4.5q-34 -9 -58 -17.5t-58 -25.5q-108 -55 -188 -196q-63 -112 -101 -260q-30 -119 -30 -193q0 -118 44 -179q32 -44 107 -76q3 -1 23 -3.5t18 -11.5q-2 -11 -18 -11q-9 0 -23 4q-88 21 -144 105q-42 64 -64 161q-15 68 -15 121
q0 185 116 342q95 128 232 199q49 25 72 35q35 15 78 24l34 8q11 0 11 -10z" />
    <glyph glyph-name="parenright" unicode=")" horiz-adv-x="436" 
d="M521 485q0 -185 -116 -342q-95 -128 -231 -199q-46 -24 -73 -35q-37 -15 -77 -25l-15.5 -4t-17.5 -3q-12 0 -13 10q0 9 12.5 11.5t24.5 4.5q57 14 115 43q107 55 188 197q65 114 102 259q30 118 30 193q0 118 -44 179q-32 44 -108 76q-3 1 -22.5 3.5t-17.5 11.5
q3 11 16 11q17 -3 24 -4q98 -24 156 -124q67 -116 67 -263z" />
    <glyph glyph-name="asterisk" unicode="*" horiz-adv-x="385" 
d="M538 681q0 -19 -16.5 -38t-36.5 -25.5t-47 -12l-53 -10.5q-14 -4 -15 -13q-1 -8 11.5 -14t43 -8t47.5 -11q17 -11 17 -27q0 -14 -15.5 -37t-39.5 -23q-13 0 -23 11q-16 17 -24.5 44.5t-12.5 33.5t-7 10q-4 4 -11 2q-11 -4 -13 -19.5t-2 -21.5q0 -10 2.5 -33.5t2.5 -31.5
q-1 -10 -1 -15q-2 -27 -18 -46.5t-40 -19.5q-11 0 -18 7t-7 19q-2 25 26 68q39 59 42 65.5t4 10.5q2 6 2 8q0 6 -4 7q-4 2 -15 -2q-43 -48 -72 -76t-50 -28q-12 0 -19 6t-7 23q0 20 12.5 36.5t33 23.5t53.5 14q51 10 53 11q10 5 10 14q0 8 -10.5 13t-41 8t-48.5 12
q-13 9 -13 28q0 16 11 34q15 24 38 24q14 0 25 -12q15 -17 23 -45.5t16 -36.5t15 -6q9 3 11.5 14t2.5 27q0 14 -2.5 39t-2.5 36q2 25 19 44t40 19q24 0 24 -24q0 -34 -38 -88q-25 -36 -30 -47.5t-5 -13.5q1 -4 3 -5q4 -4 17 4q43 46 71 72q32 29 54 29q15 0 21.5 -8t6.5 -19
z" />
    <glyph glyph-name="plus" unicode="+" horiz-adv-x="612" 
d="M662 297l-19 -65h-235l-71 -238h-63l70 238h-240l19 64h239l70 236h65l-70 -235h235z" />
    <glyph glyph-name="comma" unicode="," horiz-adv-x="188" 
d="M167 40q0 -46 -35 -109q-48 -86 -129 -127q-6 -2 -8 -3q-5 -2 -8 -2q-5 0 -7 5q-2 8 12 16q46 26 88 78t42 84q0 11 -5.5 15.5t-16.5 4.5q-13 -1 -20 -1q-15 0 -23 7q-11 10 -11 34q-2 25 19 44.5t46 19.5t39 -19t17 -47z" />
    <glyph glyph-name="hyphen" unicode="-" horiz-adv-x="301" 
d="M376 327l-19 -65h-239l19 65h239z" />
    <glyph glyph-name="period" unicode="." horiz-adv-x="170" 
d="M154 61q0 -28 -19.5 -50t-46.5 -18q-36 5 -36 40q0 28 17.5 50t42.5 22q8 0 16 -3q26 -11 26 -41z" />
    <glyph glyph-name="slash" unicode="/" horiz-adv-x="429" 
d="M582 772q4 -5 -2 -15l-529 -828l-5 -5q-2 -2 -10 -2h-19q-8 3 -8 5q-1 4 2.5 10.5t5.5 9.5l523 819l8 7q3 2 10 2h14q8 0 10 -3z" />
    <glyph glyph-name="zero" unicode="0" horiz-adv-x="658" 
d="M706 320q-49 -132 -153 -231q-110 -106 -215 -106q-43 0 -81 19q-72 36 -105.5 101t-33.5 150q0 48 8.5 94.5t26.5 103.5q37 118 151 223q123 113 237 113q32 0 59.5 -9.5t54.5 -30.5q43 -35 65.5 -95t22.5 -137q0 -47 -9 -96.5t-28 -98.5zM614 736q-37 23 -78 23
q-83 0 -167 -103q-66 -81 -117 -206q-24 -58 -40.5 -126.5t-16.5 -124.5q0 -64 22.5 -110.5t71.5 -67.5q24 -10 50 -10q79 0 158 100q59 75 92 163q26 68 45 135q32 114 32 194q0 48 -12 82t-40 51z" />
    <glyph glyph-name="one" unicode="1" horiz-adv-x="506" 
d="M559 769l-205 -669q-2 -8 -4.5 -17t-2.5 -14q0 -9 5 -19.5t16.5 -16t29.5 -5.5h63q18 0 21 -13q2 -12 -22 -12q-16 1 -23 1q-3 -1 -18 -1q-21 0 -77 2.5t-70 2.5q-31 0 -96 -2.5t-66 -2.5q-21 0 -21 10q0 9 8 13t18 4l77 1q13 0 20 3.5t19 13.5q16 13 24 37l179 583
q4 12 -4 20q-8 6 -18 6t-22 -5l-137 -52q-8 -3 -17 -3q-13 0 -16 10q-3 8 4.5 14t19.5 10l65 20q63 19 97 33q47 19 91 42.5t45 23.5q11 6 16 3t3.5 -10.5t-2.5 -10.5z" />
    <glyph glyph-name="two" unicode="2" horiz-adv-x="617" 
d="M740 594q0 -69 -47 -127q-33 -41 -113 -95q-136 -92 -138 -94l-268 -186l-6 -5h324q30 0 54 13.5t37 33.5l16 30t12 15t13 1q6 -3 6 -9q0 -4 -2 -11l-4 -12l-27.5 -89t-12.5 -33q-3 -11 -12 -17t-25 -6h-479q-18 0 -22 6q-5 6 1 15q3 5 13 14q3 7 64 52l136 100l144 108
q88 68 111 88q58 50 86 96q35 57 35 121q0 60 -32 100q-38 47 -113 47q-71 0 -133 -44q-50 -35 -99 -101q-5 -7 -11 -13.5t-12 -3.5q-5 1 -5 9q0 6 7 20q30 58 104 109q87 60 172 60q117 0 174 -54q52 -49 52 -138z" />
    <glyph glyph-name="three" unicode="3" horiz-adv-x="554" 
d="M627 656q0 -86 -109 -154q-38 -24 -195 -92l-19 -8h30q106 0 169 -37q80 -47 80 -151q1 -1 1 -6q0 -114 -133 -227q-147 -124 -334 -124q-50 0 -98 16q-67 22 -67 64q0 17 14 28t33 11q6 0 9 -1q34 -6 57 -48.5t95 -42.5q126 0 225 104q95 100 95 221q0 80 -47.5 126.5
t-120.5 46.5q-36 0 -78 -10t-61 -19q-5 -3 -13.5 -7.5t-15.5 -4.5q-6 0 -9 7q-2 5 3 11q3 4 14 10t119 45q46 16 92 38q69 33 111 82q46 54 46 113q0 56 -23 78.5t-47 25t-34 2.5q-49 0 -106 -36q-20 -13 -74 -57q-9 -8 -11 -9q-7 -5 -12 0q-3 3 -2 9q2 7 5 12q37 46 93 77
q66 36 134 36q84 0 134 -36t50 -93z" />
    <glyph glyph-name="four" unicode="4" horiz-adv-x="672" 
d="M753 823q2 -3 0 -7t-6 -7l-596 -523h347l86 271q1 7 6 13.5t17 10.5l68 15q9 2 11 -5q2 -5 -1 -13t-4 -12l-86 -280h115q8 -1 9 -3q3 -4 1 -10l-8 -19q-1 -3 -6 -5q-2 -1 -12 -1h-110l-50 -156q-3 -11 -3 -18q0 -8 4 -19q8 -27 42 -27l33 -1q19 0 19 -14q0 -9 -9.5 -11.5
t-27.5 -2.5h-12q-3 -1 -15 -1q-16 0 -57.5 2.5t-51.5 2.5q-36 0 -68.5 -1.5l-54.5 -2.5q-11 -1 -19 1t-8 11q0 15 21 17l48 6q16 2 23 4.5t16 11t13 17t10 25.5l52 158h-357q-14 0 -21 1.5t-6 8.5q1 9 7.5 22.5t15.5 20.5l564 517l8 4l10 2h36q7 -1 7 -3z" />
    <glyph glyph-name="five" unicode="5" horiz-adv-x="543" 
d="M694 786q3 -5 -1 -14l-15 -51q-3 -9 -10 -13.5t-21 -4.5l-330 -21q-24 -2 -28 -4q-17 -7 -23 -19l-42 -105q-6 -16 -3 -22q6 -11 20 -11l74 -1q108 0 189.5 -67t81.5 -170q0 -150 -160 -254t-397 -104q-7 0 -24.5 -1t-25.5 -1q-21 0 -30.5 2.5t-7.5 11.5q2 12 21 12
q17 -1 25 -1q108 0 209 26q129 33 203 98q91 80 91 201q0 76 -66 123q-59 42 -143 42h-101q-8 0 -12 1q-6 2 -9 7q-3 6 1 21l109 272q4 10 15 18q8 4 21 6l365 27q10 2 15 2q7 0 9 -6z" />
    <glyph glyph-name="six" unicode="6" horiz-adv-x="659" 
d="M836 843q0 -8 -8.5 -10.5t-21.5 -2.5q-241 -28 -405 -167q-190 -162 -190 -416q0 -102 40 -166q44 -71 124 -71q83 0 153.5 86.5t70.5 194.5q0 69 -28 118q-32 55 -91 63q-16 2 -23 2q-27 0 -62 -16q-8 -3 -15 -6t-11 -3q-6 0 -9 5q-3 10 6 18q3 2 12 7q24 14 49 20.5
t55 6.5q90 0 151 -69t61 -163q0 -118 -95.5 -204.5t-228.5 -86.5q-114 0 -182 87t-68 223q0 219 201 388q210 176 504 176q1 0 5 -3q6 -4 6 -11z" />
    <glyph glyph-name="seven" unicode="7" horiz-adv-x="626" 
d="M803 758q3 -4 1 -10q-2 -5 -5 -11l-505 -807l-5 -5q-1 -1 -5 -2h-5h-19q-6 0 -8 5q-2 3 1 9.5t6 11.5l460 733h-465q-9 0 -14 7q-4 5 0 21l14 72q12 -10 21.5 -13t18 -3.5t17.5 -0.5h477q11 0 15 -7z" />
    <glyph glyph-name="eight" unicode="8" horiz-adv-x="651" 
d="M770 611q0 -90 -122 -139q-30 -12 -132 -42l-14 -4l19 -11q101 -61 127.5 -100.5t26.5 -97.5q0 -108 -101 -174q-91 -60 -216 -60q-103 0 -179 55q-82 59 -82 152q0 58 38 100q31 34 93 62q32 14 118 44l24 9l-21 11q-53 30 -80 64q-33 41 -33 89q0 92 96 157
q86 58 186 58q103 0 177.5 -46.5t74.5 -126.5zM684 619q0 72 -47 109q-42 33 -110 33q-12 1 -17 1q-74 0 -130.5 -47t-56.5 -108q0 -55 38 -95q30 -31 92 -61l22 -11l23 6q81 20 129 59q57 46 57 114zM580 196q0 48 -27.5 84.5t-124.5 89.5l-31 18l-34 -12q-82 -27 -128 -71
q-54 -52 -54 -122q-1 -15 -1 -20q0 -72 58 -117q53 -41 125 -41q90 0 153.5 55.5t63.5 135.5z" />
    <glyph glyph-name="nine" unicode="9" horiz-adv-x="659" 
d="M746 474q0 -216 -197 -388q-202 -176 -472 -176q-14 0 -30 1t-16 12q0 8 12 10.5t18 3.5q241 27 405 166q190 162 190 417q0 102 -40 166q-45 71 -125 71q-82 0 -152.5 -87t-70.5 -194q0 -70 27 -118q31 -55 91 -63q16 -2 23 -2q30 0 62 16q9 3 16 6t10 3q6 0 9 -6
q3 -7 -2.5 -13t-14.5 -11q-26 -15 -49 -21.5t-55 -6.5q-91 0 -152 68.5t-61 163.5q0 118 95 205t229 87q114 0 182 -87t68 -223z" />
    <glyph glyph-name="colon" unicode=":" horiz-adv-x="170" 
d="M262 411q0 -27 -19.5 -47.5t-47.5 -20.5q-15 0 -25 10.5t-10 29.5q0 28 17.5 50t42.5 22q8 0 16 -3q26 -11 26 -41zM155 66q0 -28 -19 -50t-45 -18q-18 2 -28 11.5t-10 28.5q0 28 17.5 50t42.5 22q8 0 16 -3q26 -10 26 -41z" />
    <glyph glyph-name="semicolon" unicode=";" horiz-adv-x="189" 
d="M261 412q0 -27 -19.5 -47.5t-47.5 -20.5q-14 0 -24.5 11t-10.5 29q0 28 17.5 50t42.5 22q8 0 16 -3q26 -11 26 -41zM169 40q0 -45 -35 -109q-47 -86 -129 -127q-8 -4 -15 -4t-8 5q-2 8 12 15q46 25 88 77.5t42 84.5q0 12 -6.5 16.5t-14.5 4.5q-14 -1 -21 -1q-16 0 -23 6
q-11 9 -11 34q-2 25 19 44.5t46 19.5t40.5 -19.5t15.5 -46.5z" />
    <glyph glyph-name="less" unicode="&#x3c;" horiz-adv-x="652" 
d="M785 580l-19 -67l-570 -227l432 -231l-18 -64l-501 266l17 58z" />
    <glyph glyph-name="equal" unicode="=" horiz-adv-x="662" 
d="M740 378l-20 -65h-599l19 65h600zM705 261l-19 -65h-600l20 65h599z" />
    <glyph glyph-name="greater" unicode="&#x3e;" horiz-adv-x="640" 
d="M710 321l-17 -58l-660 -265l20 67l570 227l-433 231l19 64z" />
    <glyph glyph-name="question" unicode="?" horiz-adv-x="396" 
d="M525 610q0 -69 -49 -124q-35 -39 -112 -85l-116 -69q-27 -18 -42 -59q-10 -31 -19 -62q-2 -7 -4 -13q-5 -12 -16 -12q-8 0 -8 10q1 7 1 10q5 29 10 48.5l12 48t11.5 49t8 30.5t11.5 21q3 4 15 15q123 61 186 112q67 55 67 122q0 42 -23.5 70.5t-60.5 28.5q-30 0 -60 -25
l-71 -68q-16 -8 -28 -8q-11 0 -14.5 7.5t-0.5 16.5l20 66q6 15 20 24q35 18 85 18h17q12 -2 18 -2q62 -7 102 -56t40 -114zM177 54q0 -28 -19.5 -50t-46.5 -18q-36 5 -36 40q0 28 17.5 50t42.5 22q8 0 16 -3q26 -10 26 -41z" />
    <glyph glyph-name="at" unicode="@" horiz-adv-x="856" 
d="M931 525q0 -138 -112 -257q-108 -115 -222 -115q-40 0 -52 27q-7 16 -7 59l-41 -38q-51 -45 -117 -45q-45 0 -71 34t-26 82q0 106 107 197q100 85 197 85q32 0 49 -16.5t17 -60.5l40 66h87l-162 -304q-3 -7 -7 -18.5t-4 -19.5q0 -18 17 -18q72 0 157 106q90 112 90 223
q0 96 -77 146q-66 43 -166 43q-165 0 -294 -131q-124 -126 -124 -273q0 -110 65 -179q69 -74 190 -74q97 0 178 38q59 28 104 72l33 39h68l-44 -52q-57 -57 -133 -96q-105 -53 -221 -53q-138 0 -218.5 78.5t-80.5 201.5q0 196 144.5 339.5t344.5 143.5q116 0 199 -58
q92 -64 92 -172zM630 475q0 27 -12.5 39.5t-30.5 12.5q-58 0 -140 -106t-82 -179q0 -28 15 -41t36 -13q58 0 136 106t78 181z" />
    <glyph glyph-name="A" unicode="A" horiz-adv-x="860" 
d="M836 15q0 -8 -3 -11q-5 -5 -19 -5q-16 1 -22 1q-6 -2 -25 0q-69 7 -74 7q-25 0 -54.5 -2.5t-58.5 -4.5q-8 -1 -13 -1q-21 0 -21 13q0 15 38.5 17.5t52 18t13.5 40.5l-2 206h-276l-131 -175q-15 -20 -15 -41q0 -17 11.5 -28.5t43.5 -16.5q57 -9 57 -19q0 -16 -22 -16
q-7 0 -16 1t-10 1q-4 -1 -25 0q-66 4 -74 4q-33 0 -62.5 -1.5l-49.5 -2.5q-9 -1 -15 -1q-19 0 -19 12q0 13 22 18q35 8 60 25q5 3 21 16l12 9l550 702q6 8 17 6q7 -2 7 -14v-13l13 -672q0 -22 12 -41q9 -14 43 -17t34 -15zM647 330l-12 302l-236 -303z" />
    <glyph glyph-name="B" unicode="B" horiz-adv-x="754" 
d="M846 624q0 -76 -73 -132q-60 -46 -150 -67l-38 -9q89 0 144 -52t55 -138q0 -100 -86.5 -163t-221.5 -63h-406h-12h-13q-12 3 -12 15q0 16 42.5 17.5t54.5 12.5q16 15 20 21.5t9 23.5l186 596q3 8 3 16q0 17 -13 27q-8 6 -20 7.5t-29 1.5q-10 0 -23.5 1t-13.5 14
q0 10 8.5 12t27.5 2h400q64 0 112.5 -41t48.5 -102zM742 636q0 63 -63 89q-40 16 -93 16h-12q-48 0 -73 -1.5t-36 -7.5t-18 -28l-85 -275h124q104 0 176 51q80 57 80 156zM680 262q0 73 -59 109q-49 30 -126 30h-142l-90 -290q-5 -15 -5 -28q0 -23 13 -36q7 -7 18.5 -11
t33.5 -4h113q109 0 179 72q65 67 65 158z" />
    <glyph glyph-name="C" unicode="C" horiz-adv-x="729" 
d="M911 740l-42 -135q-4 -14 -9 -20.5t-17 -6.5q-11 0 -11 17q0 7 1 15.5l2 17.5l6 86q0 15 -8 27q-11 17 -60 17q-92 0 -209 -48q-141 -58 -226 -154q-106 -119 -106 -277q0 -111 61 -186q65 -79 170 -79q81 0 150 51q60 44 91 107q10 23 16 31q12 17 22 12q6 -2 6 -12
q0 -8 -4 -20l-38 -126q-8 -25 -34 -37q-39 -16 -97 -26.5t-111 -10.5q-139 0 -236.5 88.5t-97.5 221.5q0 151 118 272q100 102 267 165q149 56 282 56q62 0 102 -13q14 -5 14 -18q0 -5 -2 -15z" />
    <glyph glyph-name="D" unicode="D" horiz-adv-x="873" 
d="M966 467q0 -157 -86 -271q-72 -95 -194 -150q-103 -46 -199 -46h-406q-13 -1 -19 -1q-19 0 -19 15q0 9 9.5 12.5t24.5 3.5h16q17 0 26.5 1.5t18.5 7.5q14 11 20.5 21.5t12.5 29.5l183 592q3 9 3 17q0 17 -12.5 26.5t-49.5 12t-37 17.5q0 13 18 13q13 -1 19 -1h380
q127 0 211 -91q80 -87 80 -209zM865 480q0 136 -84 205q-61 50 -134 50l-155 -1q-15 -3 -23.5 -9t-10.5 -14l-183 -600q-5 -17 -5 -30q0 -22 11 -33t24 -17t29 -6h112q145 0 249 89q83 71 131 191q39 97 39 175z" />
    <glyph glyph-name="E" unicode="E" horiz-adv-x="684" 
d="M805 732l-36 -110q-2 -9 -5 -18t-12 -9q-15 0 -16.5 45t-21.5 66.5t-45 27.5t-63 6h-104q-8 0 -15.5 -0.5t-15 -5.5t-11 -12t-7.5 -20l-86 -282h155q22 0 42.5 6t31 13t18.5 20l31 53q4 7 9.5 14.5t14.5 5.5q12 -4 12 -12q0 -4 -2 -9l-4 -8q-23 -55 -39 -109
q-9 -31 -16 -57.5t-10.5 -46.5t-5.5 -24q-5 -10 -19 -10q-10 0 -10 18q1 12 1 17v55q0 18 -13.5 31t-35.5 13h-171l-85 -280q-5 -18 -5 -33q0 -22 10 -33q18 -21 53 -21h90q121 0 184 49l85 108q14 0 14 -11q0 -3 -1 -7q-2 -7 -4 -13l-33 -109q-2 -6 -5 -16.5t-6 -14.5
q-3 -5 -12.5 -7t-21.5 -2h-514q-7 0 -25 -3t-25 -3q-18 0 -18 14q-2 15 40 19t57 18t20 21.5t10 23.5l180 585l4 16t2 15q0 14 -9 22t-24 10t-30 2q-9 0 -21 1t-12 12q0 15 17 15q12 -1 18 -1h486q8 0 16 -0.5t12.5 -6.5t4.5 -14q0 -6 -3 -14z" />
    <glyph glyph-name="F" unicode="F" horiz-adv-x="638" 
d="M819 745q-10 -26 -23 -77q-20 -77 -35 -77q-14 0 -17.5 45t-29.5 71q-21 21 -44.5 27t-63.5 6h-103h-16q-6 -1 -15 -6q-15 -11 -20 -32l-85 -282h155h15q13 0 21.5 1t20.5 6q38 14 63 62q20 38 35 32q7 -3 7 -11q0 -6 -4 -17q-1 -2 -8 -18q-14 -36 -17 -45
q-6 -20 -10 -35q-8 -26 -15 -54t-10 -51t-9.5 -30t-18.5 -7q-11 0 -11 22q0 11 2.5 32.5t2.5 26.5q0 12 -2 21t-12 17q-24 18 -50 18h-166l-85 -275q-9 -31 -9 -33q-2 -10 -2 -19q0 -12 8 -21t48 -11.5t40 -14.5q0 -10 -7 -13.5t-21 -3.5q-22 1 -32 1q-6 -2 -47.5 1.5
t-51.5 3.5q-21 0 -54.5 -3t-37.5 -2q-10 0 -21 -1l-21 -2q-11 0 -17.5 3t-7.5 13q0 13 42 17t55 15.5t20 23.5q3 6 10 26l179 582l3.5 13.5t2.5 16.5q0 15 -8 22.5t-19.5 9.5t-26.5 2h-16q-18 0 -23 3q-4 2 -4 9q0 15 17 15q13 -1 19 -1h486q28 0 38.5 -2.5t5.5 -19.5z" />
    <glyph glyph-name="G" unicode="G" horiz-adv-x="856" 
d="M958 733l-53 -137q-6 -14 -8 -17q-6 -7 -17 -6q-12 2 -12 20q0 7 1 14q1 6 2 13l10 88q1 15 -11 24q-27 22 -95 22q-106 0 -222 -45q-138 -54 -220 -147q-100 -114 -100 -268q0 -124 91 -207q85 -78 198 -78q29 0 59 5t39 13q13 12 19.5 21t10.5 22l59 188q3 11 3 20
q0 11 -4 20q-7 18 -50.5 20t-43.5 17t32 15q12 0 54 -4t69 -4q40 0 69 2.5l61 5.5q18 0 18 -17q0 -10 -36 -14.5t-48 -17.5q-19 -18 -28 -47l-58 -193l-6 -19.5t-11 -19.5q-12 -17 -77.5 -29t-142.5 -12q-155 0 -259 78q-120 90 -120 251q0 155 118 271q100 98 268 153
q149 49 292 49q78 0 132 -17q20 -5 20 -21q-2 -6 -3 -12z" />
    <glyph glyph-name="H" unicode="H" horiz-adv-x="900" 
d="M1085 749q0 -11 -42.5 -14t-57.5 -19.5t-22 -40.5l-180 -592q-3 -11 -3 -20q0 -15 7 -23.5t19.5 -11t31.5 -2.5q23 0 31.5 -1.5t8.5 -11.5q0 -15 -25 -15q-11 0 -59.5 2.5t-78.5 2.5q-44 0 -75 -1.5t-56 -3.5q-25 0 -25 12q0 14 41.5 16.5t55.5 14.5q20 16 27 41l94 308
h-423l-83 -278q-5 -15 -7.5 -26.5t-2.5 -23.5q0 -18 8 -23q14 -10 51 -11t37 -13q0 -18 -31 -18q-13 0 -58 2.5t-71 2.5q-50 0 -81.5 -1.5t-55.5 -3.5q-22 0 -22 14q0 13 40.5 15t55.5 14.5t20.5 22t10.5 29.5l180 583q5 15 5 28q0 15 -10 25q-6 5 -17.5 7t-23.5 2h-20
q-19 0 -27 3t-8 15q0 15 35 15q21 0 42 -2q74 -7 83 -7q40 0 71.5 2.5l57.5 4.5q28 0 28 -17q0 -12 -21 -12h-20.5t-20.5 -3.5t-23 -11.5t-19.5 -16.5t-10.5 -21.5l-82 -266h423l82 264q3 9 3 18q0 6 -3 14q-6 16 -54.5 19.5t-48.5 19.5q0 10 15 10q6 0 55.5 -2.5t89.5 -2.5
q36 0 79 3t51 3q29 0 29 -17z" />
    <glyph glyph-name="I" unicode="I" horiz-adv-x="372" 
d="M555 751q0 -15 -37.5 -16t-54 -14.5t-23.5 -37.5l-180 -600q-3 -9 -3 -18q0 -15 7 -24t17 -11.5t25 -2.5q18 1 26 1q22 0 22 -15t-24 -15q-11 0 -58.5 2.5t-78.5 2.5q-44 0 -76 -2.5l-56 -4.5q-22 0 -22 14q0 13 40 16t57 15t26 40l181 602q3 9 3 18q0 13 -7.5 22
t-20 11.5t-34.5 2.5q-12 0 -27 1t-15 14q0 15 23 15q9 0 68 -3t72 -3q41 0 66.5 1.5l57.5 3.5q26 0 26 -15z" />
    <glyph glyph-name="J" unicode="J" horiz-adv-x="381" 
d="M562 756q0 -16 -40.5 -17t-55.5 -14q-20 -17 -26 -38l-194 -628q-39 -125 -112 -207q-83 -93 -180 -93q-35 0 -66 20q-36 23 -36 56q0 23 12.5 38t36.5 15q28 0 60 -67q15 -32 40 -32q41 0 72 48q24 37 47 114l220 737q1 5 3 11q1 5 1 11q0 10 -5.5 17.5t-18.5 10
t-34 2.5q-26 0 -34.5 2t-8.5 14q0 14 24 14q10 0 58.5 -2.5t80.5 -2.5q42 0 69 1.5l61 3.5q26 0 26 -14z" />
    <glyph glyph-name="K" unicode="K" horiz-adv-x="825" 
d="M955 752q0 -10 -6.5 -13.5t-19.5 -3.5q-13 1 -20 1h-6q-4 -2 -5 -2q-20 -6 -91 -53l-152 -105l-166 -127l199 -375q7 -13 10 -18q4 -6 15 -15q19 -15 51.5 -16.5t32.5 -16.5t-21 -15q-10 0 -35 2.5t-35 2.5q-23 0 -36 -1.5t-24 -3.5q-9 0 -17.5 1.5t-15.5 13.5
q-7 18 -11 26l-189 356l-79 -58l-74 -249q-2 -12 -2 -17q0 -18 10 -28.5t48 -11.5t38 -17q0 -15 -23 -15q-10 0 -57 2.5t-78 2.5q-38 0 -82 -3t-51 -3q-26 0 -26 15t38 17.5t57 16t28 40.5l186 603q4 14 4 21q0 10 -6.5 18.5t-19 11t-31.5 2.5q-12 0 -27 0.5t-15 15.5t18 15
q3 0 48 -4t93 -4q46 0 72 1.5t61 4.5q27 0 27 -15t-42 -16t-56 -12t-19.5 -23t-13.5 -36l-87 -283l312 238q45 33 61 49q29 29 29 52q0 14 -42 15t-42 16t35 15q21 0 34 -1q64 -5 70 -5q20 0 58 3t51 3q18 0 27.5 -3t9.5 -12z" />
    <glyph glyph-name="L" unicode="L" horiz-adv-x="607" 
d="M618 148l-33 -109q-2 -6 -5 -16t-6 -14q-3 -5 -12.5 -7t-21.5 -2h-422q-5 0 -19 -1t-22 -1q-14 0 -22 3.5t-8 13.5q-1 14 42.5 15.5t55 12t18 20t13.5 31.5l176 566l6 22.5t3 21.5q0 16 -8 23t-18 9t-22 2h-20q-27 0 -27 15q0 16 37 16q16 0 43 -3q64 -7 80 -7q20 0 46 2
q65 5 76 5q41 0 42 -14q0 -17 -32 -19t-56 -2q-15 -3 -27.5 -13t-16.5 -25l-178 -580q-5 -14 -9.5 -29.5t-4.5 -24.5q0 -8 5 -15q11 -13 22 -13h114q33 0 58.5 8t54.5 26.5t65 87.5q14 27 23 25q14 -3 14 -13q-3 -12 -4 -17z" />
    <glyph glyph-name="M" unicode="M" horiz-adv-x="1040" 
d="M1183 752q0 -13 -40.5 -14.5t-53 -12.5t-18.5 -18.5t-9 -20.5l-151 -600q-2 -12 -2 -18q0 -17 7 -25q11 -14 53 -15t42 -17q0 -14 -22 -14q-37 3 -69.5 5t-75.5 2q-47 0 -73 -2t-59 -4q-23 0 -23 14q0 15 40 16.5t57 13.5q21 16 28 40l152 618l-455 -667q-4 -6 -10 -12
q-11 -11 -23 -8q-11 2 -11 20q1 17 1 24l-27 645l-219 -580q-4 -11 -4 -29q0 -33 14 -48t48 -15t34 -16q0 -15 -27 -15q-5 0 -49.5 4t-61.5 4q-19 0 -55 -4t-49 -4q-30 0 -30 17q1 9 8 11.5t22 2.5h14q17 0 26.5 1.5t21.5 8.5q24 13 37 36q6 11 21 51l211 563q4 14 4 19
q0 10 -6.5 20t-32.5 10q-19 -1 -27 -1q-25 0 -25 14q0 16 17 16q12 -1 17 -1h148q8 0 16.5 -0.5t14 -6.5t5.5 -18q-1 -9 -1 -14l26 -572l398 585q9 13 13 16q13 10 31 10h157h16q9 -3 9 -15z" />
    <glyph glyph-name="N" unicode="N" horiz-adv-x="840" 
d="M1019 750q0 -11 -22 -11q-22 1 -33 1q-13 0 -20.5 -1t-13.5 -7q-16 -15 -26 -34q-6 -12 -24 -71l-175 -578q-6 -21 -12 -37.5t-12 -17.5q-9 0 -19 16q-6 10 -16 33l-278 656l-156 -517l-10 -36q-8 -32 -8 -54q0 -33 15 -49q9 -9 45.5 -12.5t36.5 -17.5q-1 -16 -31 -16
q-18 0 -30 1q-59 5 -70 5q-27 0 -60 -3t-39 -3q-21 0 -21 14q0 12 17 17q54 15 57 17q20 17 31 40q7 14 18 49l173 561q2 10 2 15q0 9 -4 15.5t-12.5 9.5t-27.5 3q-21 0 -29 1.5t-8 12.5t7 13t23 2h118q9 0 19 -0.5t17.5 -6t11 -15t7.5 -18.5l249 -555l144 466
q6 19 8.5 31.5t2.5 26.5q0 20 -8 31t-51 11q-37 2 -37 15q0 15 22 15l55 -5t48 -2q39 0 59.5 1.5t47.5 4.5q19 0 19 -17z" />
    <glyph glyph-name="O" unicode="O" horiz-adv-x="864" 
d="M942 436q0 -224 -163 -349q-135 -104 -310 -104q-62 0 -108 17q-90 33 -147 107q-74 96 -74 239q0 146 123 282q140 155 335 155q60 0 116 -14q87 -21 155 -115q73 -100 73 -218zM834 444q1 11 2 24t1 30q0 78 -26 135q-37 80 -123 108q-23 7 -44 10.5t-46 3.5
q-148 0 -250.5 -139t-102.5 -331q0 -89 28 -149q35 -73 113 -105q47 -18 94 -18q130 0 229 114q106 122 125 317z" />
    <glyph glyph-name="P" unicode="P" horiz-adv-x="698" 
d="M841 619q0 -133 -125 -207q-116 -68 -298 -68l-78 -1l-69 -226q-4 -14 -7 -26t-3 -23q0 -18 10 -25q16 -12 52 -12t36 -16q0 -15 -25 -15q-20 0 -34 1q-71 5 -98 5q-31 0 -62.5 -2.5l-67.5 -5.5q-28 0 -28 12q-2 17 38 20.5t54 16.5t20 22.5t12 26.5l184 597q3 9 3 17
q0 16 -13 26q-6 5 -16.5 7t-22.5 2q-16 -1 -23 -1q-12 0 -18.5 3.5t-6.5 12.5q0 13 22 13q14 0 27.5 -2t33.5 -4h354q61 0 105 -43t44 -105zM739 603q1 6 1 12v12q0 57 -36 87q-40 34 -87 29h-39.5t-42.5 1q-22 0 -38.5 -1t-21.5 -4q-7 -4 -13.5 -15.5t-11.5 -27.5
l-102 -325l93 1q119 0 203.5 66t94.5 165z" />
    <glyph glyph-name="Q" unicode="Q" horiz-adv-x="863" 
d="M940 443q-18 -200 -148 -317q-111 -100 -307 -144q-42 -9 -72 -20l-70 -28l-22 -8l34 -5q20 -3 183 -65q65 -25 139 -25q61 0 110 37l82 75q7 -3 7 -12q0 -38 -91 -106q-99 -74 -177 -74q-92 0 -148 29q-20 10 -83 61q-50 40 -105 54l-3 1l-81 -51q-53 -31 -82 -31
q-18 0 -29 15q-3 6 -3 11q0 26 50 52t100 31l31 3l28 15q24 13 49 23l74 30l25 12l-25 4q-124 22 -193 116.5t-69 232.5q0 164 126 301q136 148 326 148q58 0 118 -16q89 -23 156 -114q71 -96 71 -207v-18q-1 -7 -1 -10zM836 453l3 27t2 31q0 81 -28 142q-39 85 -123 112
q-48 15 -92 15q-137 0 -237 -133q-93 -123 -118 -305q-3 -18 -3 -39q0 -83 36 -153q42 -82 117 -105q48 -15 93 -15q127 0 221.5 111.5t128.5 311.5z" />
    <glyph glyph-name="R" unicode="R" horiz-adv-x="769" 
d="M808 624q0 -99 -99 -175q-67 -52 -155 -79l-24 -8q9 -10 15 -18.5t12 -20t11 -27l8 -25.5l70 -197q4 -13 11 -21.5t21 -17.5q8 -6 37 -6t29 -16q0 -8 -7.5 -10.5t-18.5 -2.5h-122q-14 0 -22.5 9.5t-12.5 22t-7 20.5l-108 294l-111 -12l-70 -226q-6 -16 -7.5 -24.5
t-1.5 -20.5q0 -16 9.5 -25.5t50 -10.5t40.5 -16t-23 -15h-12q-7 2 -10 2q-31 0 -71 2.5t-53 2.5q-21 0 -63 -2t-49 -2q-16 -1 -23 -1q-17 0 -17 11q0 17 41 19t56 15t19.5 20t9.5 24l182 584q1 6 3 13q1 6 1 14q0 20 -9.5 29t-49.5 10.5t-40 18.5q0 8 11.5 10t17.5 2
q8 0 17 -0.5t18 -0.5l334 1q76 0 119 -41t43 -103zM706 627q0 58 -29.5 85.5t-78.5 27.5h-102q-16 0 -27 -8q-6 -4 -11 -12.5t-9 -20.5l-104 -336l46 3q139 0 227 76t88 185z" />
    <glyph glyph-name="S" unicode="S" horiz-adv-x="539" 
d="M665 691l-18 -75q-3 -14 -8 -20q-4 -4 -12 -3q-12 1 -12 24v11q0 68 -35 100q-30 27 -85 27q-22 0 -45 -4q-60 -10 -98 -43q-42 -37 -42 -91q0 -65 65 -131l123 -114q66 -72 66 -150q0 -103 -85.5 -172t-197.5 -69q-56 0 -117.5 18.5t-82.5 35.5q-7 5 -7.5 15.5
t-0.5 16.5l10 106q2 29 19 26q7 -1 11 -8.5t4 -26.5q0 -86 55 -123q41 -28 111 -28q90 0 141 55q46 49 46 120q0 58 -64 128l-118 118q-65 72 -65 133q0 55 30.5 103.5t86.5 76.5q37 19 79 28t78 9q49 0 97 -13q35 -9 70 -27q8 -4 8 -14q0 -11 -7 -39z" />
    <glyph glyph-name="T" unicode="T" horiz-adv-x="729" 
d="M923 788l-50 -155q-3 -8 -5 -16q-2 -5 -7 -6q-17 -4 -20 24q-9 86 -12 90q-8 10 -19.5 12.5t-19.5 2.5h-157l-199 -653q-2 -6 -2 -17q0 -18 8 -26.5t20 -10.5t27 -2q11 0 26.5 -0.5t17.5 -15.5q0 -15 -22 -15q-9 0 -68 3t-73 3q-48 0 -80 -2.5l-56 -4.5q-20 0 -20 14
q0 16 39 17t53.5 13t22 24.5t13.5 31.5l195 641h-134q-18 0 -46 -8t-51 -24q-39 -29 -60 -64q-27 -44 -36 -41q-7 3 -7 12q0 8 4 20l53 172q3 9 8.5 15t14.5 6t10 -19.5t7 -25.5q19 -16 42 -16h446h12q17 0 33 1.5t41 11.5q9 4 25 29q13 20 26 14q6 -2 6 -11z" />
    <glyph glyph-name="U" unicode="U" horiz-adv-x="814" 
d="M996 749q0 -10 -10 -12.5t-17 -2.5q-22 1 -32 1q-15 0 -23 -4q-14 -9 -26 -39q-5 -13 -19 -59l-141 -456q-26 -85 -105.5 -139t-185.5 -54q-126 0 -190 55q-57 49 -57 132q0 36 13 78l130 434q3 11 3 22q0 14 -6 23q-7 7 -15 9.5t-23 2.5q-17 -1 -24 -1q-26 0 -26 16
q0 14 19 14q34 -3 66.5 -5t74.5 -2q38 0 82 3t51 3q26 0 26 -14q0 -15 -41.5 -16.5t-56 -12t-21.5 -19t-11 -21.5l-138 -466q-13 -41 -13 -75q0 -59 36 -90q43 -37 138 -37q90 0 158 50q61 45 81 110l142 460l7.5 27.5t4.5 28.5q0 21 -12 33q-6 6 -14.5 8.5t-20.5 2.5
q-10 0 -22 -1t-13 -1q-21 0 -21 16q0 14 24 14q5 0 49 -4t61 -4q25 0 59 4.5t37 4.5q22 0 22 -17z" />
    <glyph glyph-name="V" unicode="V" 
d="M1037 753q0 -15 -36 -18t-61 -14q-16 -7 -36 -30q-6 -7 -17 -22l-456 -670q-6 -8 -7 -10q-7 -9 -16 -6t-11 26l-64 646q-2 19 -3 38q-3 19 -13.5 31.5t-43.5 13.5t-33 14q0 16 23 16q15 -1 21 -1q4 1 41.5 -2.5t57.5 -3.5q31 0 62 2t52 4q13 0 20.5 -2t7.5 -13
q0 -13 -25 -13q-18 1 -27 1q-13 0 -22.5 -2t-16 -9.5t-8 -18.5t-1.5 -32l50 -559l343 503q13 19 20.5 39t7.5 35q0 11 -5 19q-10 16 -49 19t-39 15q0 17 19 17q13 -1 19 -1q3 1 38 -2t64 -3q31 0 71 3.5t41 3.5q20 0 23 -1q9 -4 9 -13z" />
    <glyph glyph-name="W" unicode="W" horiz-adv-x="1196" 
d="M1376 752q0 -15 -20 -15q-14 1 -23 1q-12 0 -25 -2t-27.5 -9t-34.5 -30q-6 -7 -17 -23l-469 -667q-4 -6 -7 -11q-8 -10 -18 -9q-5 1 -7 10.5l-3 14.5l-45 317l-237 -325q-8 -12 -9 -13q-7 -7 -13 -5t-8 11.5l-3 14.5l-89 640q-3 20 -5 40q-4 22 -15 36q-5 6 -14.5 7.5
t-24.5 1.5q-25 0 -24 14q1 15 33 15q16 0 49 -3.5t41 -3.5q15 0 50 3t48 3q27 0 27 -10q0 -17 -23 -17q-11 0 -23 -1t-20 -9q-4 -4 -6.5 -11t-2.5 -19q0 -7 2 -21l76 -562l185 259l-42 301q-2 11 -3 22q-4 19 -16 33q-7 7 -34 8t-27 15t34 14q21 0 42 -2t51 -4q14 0 50.5 2
t38.5 2q36 0 35 -12q-1 -9 -7 -13q-5 -3 -15 -3q-15 1 -23 1q-12 0 -22 -7.5t-10 -32.5v-11q2 -8 2 -12l28 -191l140 196q14 18 14 32q0 7 -5.5 16t-33.5 9q-24 2 -24 15q0 14 19 14q14 0 24 -1q49 -5 65 -5q22 0 55.5 2.5t34.5 2.5q26 0 26 -11q0 -15 -34.5 -16t-57.5 -14
t-44 -41l-173 -241l40 -318l356 504q17 24 24 35q21 34 21 52q0 5 -3 10q-9 12 -46 12q-32 2 -32 17q0 12 29 12q9 0 42 -2t57 -2q21 0 35 1q55 4 56 4q35 0 35 -15z" />
    <glyph glyph-name="X" unicode="X" horiz-adv-x="876" 
d="M999 758q0 -13 -7.5 -16.5t-25.5 -3.5h-17q-18 0 -28 -5q-18 -9 -33 -21l-46 -44l-259 -256l147 -332q13 -26 30 -37q10 -8 49.5 -11.5t39.5 -21.5q0 -14 -22 -14q-37 3 -69.5 5t-75.5 2q-38 0 -82 -3t-51 -3q-27 0 -27 15q0 10 8 13q5 2 22 2h16q19 0 29.5 1.5t21.5 10
t11 23.5q0 10 -4 17l-117 262l-210 -213l-35 -35q-18 -21 -18 -37q0 -6 3.5 -14t12.5 -9.5t18 -1.5h21q16 0 24 -2.5t9 -12.5q1 -18 -44 -18q-15 0 -51 3t-52 3q-15 0 -50 -3t-50 -3q-39 0 -39 15q0 16 33 17t56 9t33 13.5t26 19.5l300 300l-140 315q-8 19 -19 33.5t-50 16
t-39 18.5t28 17q3 0 57 -2.5t80 -2.5q42 0 68.5 1.5t47.5 3.5q12 0 16 -3t4 -12q0 -15 -32.5 -16.5t-46 -12.5t-13.5 -25q0 -4 2 -10l111 -253l232 233q14 14 14 34q0 8 -4 15q-10 15 -54.5 16t-44.5 17q0 17 21 17q4 0 44 -3t79 -3q33 0 70 3.5t49 3.5q23 0 23 -15z" />
    <glyph glyph-name="Y" unicode="Y" horiz-adv-x="806" 
d="M985 754q0 -15 -22 -16.5t-39 -2.5q-11 -3 -22.5 -13.5t-45.5 -50.5l-304 -346l-74 -243q-2 -6 -2 -11q0 -12 5.5 -22t14.5 -16q4 -2 12 -4t22 -2h17q14 0 21.5 -3.5t7.5 -14.5q0 -13 -37 -13q-24 0 -47 2q-81 7 -87 7q-19 0 -78 -7q-34 -4 -43 -4q-12 0 -21 2t-9 11
q0 13 6.5 17.5t18.5 4.5q17 -1 26 -1q17 0 28 5q37 15 46 49l81 264l-112 336q-4 14 -13.5 26.5t-18.5 19t-19 9.5t-27 3q-13 0 -17 2q-7 3 -7 14q0 15 19 15q3 0 42 -2t81 -2q36 0 76 2t47 2q13 0 20.5 -2t7.5 -13q0 -9 -7 -12q-5 -2 -19 -2h-16q-14 0 -26 -2.5
t-19.5 -10.5t-7.5 -20q0 -8 4 -22l105 -318l270 308q20 24 18 45q0 11 -11 14.5t-30 3.5h-17q-15 0 -22 2.5t-7 12.5q-1 16 14 16q25 -3 48.5 -5t55.5 -2q30 0 48.5 1.5t43.5 4.5q21 0 21 -16z" />
    <glyph glyph-name="Z" unicode="Z" horiz-adv-x="709" 
d="M849 759q4 -8 1 -14.5t-12 -16.5l-657 -698h321q43 0 84 20q32 16 60 44q19 20 38 67q16 40 25 40q5 0 10.5 -5.5t5.5 -15.5q0 -8 -1 -12q-3 -8 -4 -12l-36 -123q-2 -6 -5 -13.5t-11 -13t-18.5 -6t-16.5 -0.5h-560q-20 0 -24 14q-1 5 0 8q7 8 11 13l665 705h-207
q-51 0 -86.5 -5.5t-70.5 -23.5q-50 -26 -81 -92q-12 -26 -28 -26q-12 -1 -12 13q0 7 4 18.5t5 16.5l29 95q4 13 6 16q4 7 10.5 11.5t16.5 4.5q12 -1 18 -1h485q12 1 18 1q14 0 17 -9z" />
    <glyph glyph-name="bracketleft" unicode="[" horiz-adv-x="313" 
d="M487 808q0 -11 -20.5 -13t-30.5 -2h-22q-15 0 -29 -0.5t-20.5 -4.5t-13 -8.5t-9.5 -16.5l-251 -812q-7 -21 -7 -31q0 -3 2 -11q4 -8 13.5 -11.5t25.5 -3.5q7 0 20.5 1t18.5 1q30 0 30 -17q-1 -13 -24 -13h-11h-117q-14 0 -21.5 2.5t-11 11.5t-3.5 14q0 8 3 17t7 18
l266 864q5 15 15 23q5 4 13 6t17 2h107q14 1 22 1q14 0 22.5 -3.5t8.5 -13.5z" />
    <glyph glyph-name="backslash" unicode="\" horiz-adv-x="683" 
d="M650 -38h-70l-317 859h71z" />
    <glyph glyph-name="bracketright" unicode="]" horiz-adv-x="263" 
d="M442 805q3 -6 3 -13t-3.5 -16.5t-6.5 -18.5l-266 -863q-5 -15 -15 -23q-5 -4 -13 -6t-17 -2h-107h-20q-16 0 -24.5 3t-8.5 14q0 9 12.5 11.5t38.5 2.5h33q32 0 44.5 8.5t16.5 21.5l251 812q7 19 7 31q0 3 -2 11q-4 8 -16 10.5t-33 2.5q-34 0 -46.5 2t-12.5 15t24 13h11
h117q17 0 23.5 -3.5t9.5 -12.5z" />
    <glyph glyph-name="asciicircum" unicode="^" horiz-adv-x="428" 
d="M583 663q-4 -8 -10 -8h-33q-3 0 -14 9q-3 3 -12 20l-64 131l-169 -142l-16 -13q-4 -3 -13 -3h-26q-12 0 -15 8q-2 6 1 11q2 3 9 9l191 155q8 8 15 10t19 2h26q8 0 18 -8l9 -14l79 -148q1 -4 3 -7q4 -8 2 -12z" />
    <glyph glyph-name="underscore" unicode="_" horiz-adv-x="738" 
d="M765 -184h-760v30h760v-30z" />
    <glyph glyph-name="grave" unicode="`" horiz-adv-x="378" 
d="M535 659q-3 -7 -12 -7q-7 0 -11 1l-12 4l-218 75q-14 5 -23.5 13.5t-9.5 21.5q0 7 1 10q3 10 12 15t21 5q14 0 25 -6l201 -104q13 -7 19 -12q10 -9 7 -16z" />
    <glyph glyph-name="a" unicode="a" horiz-adv-x="684" 
d="M708 574q4 -4 1.5 -13t-5.5 -17l-130 -423l-3.5 -20.5t-1.5 -9.5q0 -22 12 -22q6 0 14 5q42 27 89 96q17 26 23 22q4 -3 4 -9q0 -37 -74 -112q-80 -81 -140 -81q-16 0 -22.5 11t-6.5 29q0 16 2 23.5l3 11.5l76 247l7 26l-8 -13q-93 -145 -181 -230q-108 -105 -193 -105
q-42 0 -69.5 40t-27.5 84q0 166 143.5 310.5t295.5 144.5q47 0 74 -19l25 -24l8 29q4 13 10.5 19t21.5 6h39q8 0 14 -6zM595 466q2 12 2 18q0 62 -76 62q-21 0 -53 -8q-86 -23 -183 -143q-110 -136 -110 -266q0 -33 18.5 -53.5t47.5 -20.5q24 0 45 14q82 52 189.5 188.5
t119.5 208.5z" />
    <glyph glyph-name="b" unicode="b" horiz-adv-x="645" 
d="M711 411q0 -154 -130 -286t-285 -132q-79 0 -119 45q-34 39 -34 103q0 32 9 64l168 564q2 8 -2.5 21t-27.5 13q-18 -1 -26 -1q-20 0 -20 12q0 17 22 18q67 4 89 7.5t49 21.5q14 9 18 9t9 -5q3 -4 0 -11.5t-4 -11.5l-163 -544l20 29q72 103 149 169q88 75 156 75
q55 0 90 -51q32 -47 32 -109zM624 411q0 42 -16 70.5t-50 33.5q-45 6 -128.5 -63.5t-144.5 -163.5q-69 -106 -69 -184q0 -36 22 -63.5t61 -27.5q119 0 222 125.5t103 272.5z" />
    <glyph glyph-name="c" unicode="c" horiz-adv-x="549" 
d="M613 507q0 -19 -14.5 -30.5t-35.5 -11.5q-26 0 -47 19l-48 51q-12 3 -24 3q-79 0 -163.5 -113.5t-84.5 -222.5q0 -81 33 -120q30 -35 85 -35q13 -1 17 -1q54 0 114 41l116 96q7 1 7 -5q0 -32 -90 -107q-102 -85 -184 -85q-9 1 -14 1q-86 8 -131.5 61.5t-45.5 147.5
q0 127 101 241q116 131 284 131q2 0 5 1q45 0 84 -18t36 -44z" />
    <glyph glyph-name="d" unicode="d" horiz-adv-x="698" 
d="M794 864q1 -11 -4 -23q-9 -21 -9 -22l-212 -696l-6.5 -21.5t-2.5 -17.5q0 -14 11 -18q20 -7 55 30q10 11 32 38l27 41q15 23 23 17q3 -3 3 -8q0 -37 -73 -112q-79 -82 -140 -82q-16 0 -23.5 13.5t-7.5 33.5q0 12 1 18q3 7 3 10l63 215l14 39l-8 -13q-87 -136 -174 -218
q-104 -98 -189 -98q-43 0 -70.5 40.5t-27.5 84.5q0 179 150 322q140 133 288 133q48 0 73 -19l24 -25l57 200q5 17 5 26q0 7 -4 16t-15.5 12.5t-28.5 3.5q-20 0 -28 1.5t-11 11.5q-2 11 48 17t70 12q3 1 69 37q9 0 18 1zM590 462q2 14 2 20q0 27 -19.5 44.5t-54.5 17.5
q-24 0 -54 -9q-101 -30 -190 -136q-102 -122 -102 -260q0 -44 17.5 -65t47.5 -21q26 0 50 15q82 51 184.5 185.5t118.5 208.5z" />
    <glyph glyph-name="e" unicode="e" horiz-adv-x="524" 
d="M609 485q3 -18 3 -36q0 -105 -133 -164q-108 -48 -241 -48l-43 -3l-1 -37q0 -61 28 -104q32 -49 87 -49q79 0 135 39l88 83q6 -2 6 -8q0 -34 -83 -98q-93 -72 -177 -72q-79 0 -129 55t-50 148q0 125 96 243q112 137 277 137h-3q3 0 6 1q45 0 86 -24t48 -63zM528 464
q0 35 -9 52q-13 24 -49 29q-5 1 -16 1q-71 0 -143.5 -78t-100.5 -177l-9 -34l43 4q120 12 193 55q91 54 91 148z" />
    <glyph glyph-name="f" unicode="f" horiz-adv-x="479" 
d="M658 810q2 -22 -10 -41.5t-33 -19.5q-25 0 -36 7q-17 11 -21 36t-7 32q-6 13 -16 15.5t-15 2.5q-33 0 -67 -47q-30 -41 -46 -96l-37 -117l-7 -22h108q18 0 15 -15q-2 -12 -7 -15q-4 -3 -13 -3h-111l-191 -617q-24 -78 -84.5 -132.5t-126.5 -54.5q-45 0 -76 18
q-38 22 -38 62q0 19 12 33t33 18q23 5 41 -11.5t18 -40.5q0 -32 3.5 -45t23.5 -13q31 0 58.5 38t50.5 116l192 629h-83q-14 0 -14 17q3 18 19 16h88l25 78q35 106 100.5 165.5t154.5 71.5q4 1 14 1q28 0 49 -13q29 -18 34 -53z" />
    <glyph glyph-name="g" unicode="g" horiz-adv-x="525" 
d="M654 534q-2 -18 -19 -18h-102q64 -61 64 -140q0 -82 -75.5 -148.5t-174.5 -66.5q-39 0 -63 8.5t-54 31.5l-14 10l-11 -9q-24 -18 -24 -44q0 -40 95 -71q177 -57 181 -59q99 -47 106 -126q0 -78 -92 -133q-84 -50 -184 -50q-98 0 -187 39q-113 50 -113 135q0 56 70 93
q46 24 127 42l32 7l-23 10q-31 14 -46 31q-18 20 -18 50q0 26 17 49q11 15 41 41l13 12q-28 32 -40 64.5t-12 75.5q0 87 73.5 146t170.5 59q23 0 35 -2t45 -11l22 -6h153q10 0 7 -20zM512 427q0 54 -21 84q-17 25 -53 38q-18 6 -34 6q-68 0 -121 -77t-53 -160
q0 -43 15 -74.5t50 -48.5q21 -11 46 -11q67 0 119 76.5t52 166.5zM486 -128q0 55 -75 92q-22 11 -150 53l-17 6l-15 -5q-98 -29 -130 -59t-32 -73q0 -70 72 -110q62 -34 146 -34q80 0 135 29q66 35 66 101z" />
    <glyph glyph-name="h" unicode="h" horiz-adv-x="634" 
d="M701 405q0 -127 -93 -266q-101 -152 -217 -152q-31 0 -55 14q-29 17 -29 44q0 20 10.5 28.5t28.5 8.5q20 0 33 -22q27 -48 52 -48q45 0 102 118q61 125 75 265q1 7 1 13v10q0 38 -14 64.5t-44 26.5q-69 0 -170 -116t-150 -250q-1 -1 -22 -63t-25 -67q-11 -13 -23 -13h-36
q-9 0 -17 6q-4 4 -1 14l7 23l214 710q2 10 2 15q0 14 -8.5 23t-27.5 9q-18 -1 -26 -1q-20 0 -18 14q2 13 35.5 14t79.5 14q25 7 45 18q26 15 31 11q4 -4 4 -9q0 -3 -5 -18l-173 -566l25 41q61 100 139 170q87 78 153 78q7 -1 11 -1q53 -5 81 -53q25 -42 25 -107z" />
    <glyph glyph-name="i" unicode="i" horiz-adv-x="389" 
d="M457 734q0 -29 -19.5 -54t-46.5 -25q-14 0 -25 11t-13 29q0 28 21 56t47 28q15 0 24.5 -13.5t11.5 -31.5zM408 201q8 0 8 -8q0 -34 -77 -113q-82 -84 -134 -84q-29 3 -29 53q0 17 3 33.5t9 38.5l105 345q3 8 3 18q0 20 -15 20q-10 0 -23 -8q-28 -18 -55 -48
q-46 -52 -49 -52t-6 4q-14 18 67 95q85 80 138 80q20 0 32 -13q7 -9 7 -33q0 -10 -3 -21l-116 -382q-5 -17 -5 -27q0 -27 17 -27q14 0 34 20q43 42 63 73q24 36 26 36z" />
    <glyph glyph-name="j" unicode="j" horiz-adv-x="284" 
d="M459 749q0 -30 -23 -56.5t-49 -22.5q-32 3 -32 42q0 28 18.5 55t45.5 27q17 0 28.5 -13.5t11.5 -31.5zM389 516l-186 -605q-25 -83 -99 -137q-65 -48 -124 -48q-46 0 -66.5 15t-25.5 44q-4 18 10 33t35 15q23 0 46 -39t49 -39q24 3 36 14q18 18 34 69l195 631q4 16 4 27
q0 24 -15 24q-8 0 -15.5 -4.5t-15.5 -11.5q-27 -22 -57 -55q-39 -43 -47 -37l66 93q85 84 139 84q22 0 35 -16q6 -8 6 -29q0 -16 -4 -28z" />
    <glyph glyph-name="k" unicode="k" horiz-adv-x="640" 
d="M699 454q-13 -88 -97 -143q-73 -48 -192 -68l-44 -8q13 -8 18.5 -12.5t10.5 -9.5q13 -13 67 -119q38 -74 90 -74q16 0 33 16t17 33q0 20 -28 35t-28 32q0 15 10 25t26 10q25 0 40 -20t15 -49q0 -49 -37.5 -80.5t-91.5 -31.5q-70 0 -120 66q-30 40 -66 132q-5 14 -21.5 27
t-25.5 14l-13 1l-68 -187q-3 -9 -6 -17t-9.5 -17t-22.5 -9h-33q-13 0 -18 5q-4 3 -1 14.5l6 23.5l218 724q3 9 3 17q0 10 -8.5 20t-39 11t-30.5 15q0 15 14 15q7 0 24 -1.5t21 -1.5q23 0 53 7t47 16q25 13 29 10q4 -4 4 -9q0 -3 -3 -11l-5 -13l-167 -549l25 39
q59 94 142 166q92 80 159 80q45 0 76 -39q28 -35 28 -75q-1 -7 -1 -10zM607 433q3 15 3 29q0 29 -13.5 46.5t-37.5 17.5q-64 0 -136 -69q-57 -55 -118 -153l-34 -53l58 1q92 0 182 63q84 59 96 118z" />
    <glyph glyph-name="l" unicode="l" horiz-adv-x="343" 
d="M439 853q5 -4 5 -10q0 -4 -3 -11t-4 -11l-197 -647q-11 -38 -11 -39q-14 -46 -14 -60q0 -18 13 -18q11 0 27 12q30 20 75 88q18 27 25 27t7 -8q0 -33 -74 -112q-79 -84 -128 -84q-20 0 -28.5 14t-8.5 38q0 20 6.5 46.5l7.5 30.5l187 611q3 11 3 22q0 17 -8.5 25.5
t-26.5 8.5q-22 -2 -30 -2q-20 0 -17 13q2 15 23 16q51 4 87.5 14t61.5 28q17 12 22 8z" />
    <glyph glyph-name="m" unicode="m" horiz-adv-x="1051" 
d="M1076 179l-56 -102q-78 -96 -134 -96q-38 0 -53 14t-15 42q0 17 2.5 28.5t9.5 33.5l115 324q3 8 6 22t3 22q0 27 -14 32.5t-26 5.5q-72 0 -176 -147q-95 -135 -151 -291l-9 -28q-10 -30 -13 -33q-4 -6 -17 -6h-41q-11 0 -15 6t-3 11l113 371q15 49 15 77q0 21 -9 30
q-2 2 -11 6t-17 4q-55 0 -152 -129.5t-148 -260.5q-10 -26 -15 -41q-18 -46 -28 -69q-2 -6 -12 -6l-41 1q-11 0 -15 5q-3 6 -2 11l118 405q3 10 6 23t3 27q0 25 -15 25q-13 0 -35 -19q-39 -32 -64 -66q-32 -43 -39 -39l67 98q89 90 140 90q15 0 26 -11t11 -41q0 -24 -7 -54
q-3 -12 -13 -47l-58 -179l25 40q50 80 88 131q56 75 101 114q55 48 99 48q19 0 39 -12t29 -33.5t9 -50.5q0 -31 -7 -63q-3 -12 -30 -100l-20 -67l26 46q66 118 134 189q86 90 161 90q14 0 35.5 -6t33 -27t11.5 -51q0 -28 -9 -52l-114 -317q-3 -11 -5 -20.5t-2 -16.5
q0 -11 3.5 -18t13.5 -7q16 0 52 29.5t66 78.5q19 31 30 26z" />
    <glyph glyph-name="n" unicode="n" horiz-adv-x="778" 
d="M794 176l-58 -100q-80 -93 -137 -93q-36 0 -50.5 15.5t-14.5 45.5q0 18 4.5 38t11.5 39l104 274q8 21 12.5 42t4.5 34q0 26 -13.5 34.5t-34.5 8.5q-68 -7 -170 -130.5t-160 -264.5q-11 -27 -17 -43q-20 -50 -30 -72q-2 -4 -13 -4h-40q-12 0 -15 5q-4 6 -3 11l121 407
q7 25 7 42t-4.5 26t-16.5 9q-13 0 -36 -19q-40 -33 -63 -66q-30 -42 -36 -39l57 97q80 89 137 89q18 0 32 -12q10 -8 15 -21.5t5 -27.5q0 -11 -2.5 -23.5t-7.5 -30.5l-68 -229l25 41q56 90 100 145q60 75 115 113q65 45 130 45q40 0 58 -21t18 -57q0 -35 -16 -77l-114 -287
q-6 -18 -6 -38q0 -16 4.5 -25t16.5 -9q16 0 44 24q37 31 71 79q21 30 33 25z" />
    <glyph glyph-name="o" unicode="o" horiz-adv-x="605" 
d="M655 319q0 -142 -124 -240q-107 -85 -219 -85q-27 0 -48 8q-69 26 -104 70t-48 123q-2 9 -2 18.5v14.5q0 118 94 227q100 116 227 116q37 0 75 -12q67 -21 108 -89t41 -151zM570 340q3 17 3 40q0 58 -19 100q-25 55 -75 63q-17 3 -33 3q-104 0 -176 -98.5t-72 -250.5
q0 -71 24 -119.5t71 -56.5q8 -1 15 -2h15q92 0 159 93q63 87 88 228z" />
    <glyph glyph-name="p" unicode="p" horiz-adv-x="653" 
d="M721 394q0 -131 -72 -232q-59 -83 -155 -134q-81 -43 -145 -43q-34 0 -63 12t-53 32l-14 12l-67 -215q-3 -9 -3 -17q0 -18 14 -32t58 -18t44 -15q0 -21 -30 -21q-1 0 -54.5 4.5t-85.5 4.5q-35 0 -80 -5t-53 -5q-23 0 -23 14q0 18 40.5 21.5t54.5 10.5t23 24q5 9 14 36
l206 665l-91 -37q-8 -3 -15 -3q-6 0 -9 4q-4 6 1 12.5t14 10.5l112 48l38 130q3 9 9 14q5 3 20 3h37q13 0 15 -3q3 -3 -2 -17l-30 -105l13 2q25 5 55 9t51 4h28q15 -3 21 -4q70 -11 111 -39q66 -44 66 -128zM633 385q1 18 1 22q0 39 -22 71.5t-61 44t-77 11.5q-40 0 -91 -14
l-17 -5l-117 -382q-5 -15 -5 -34q0 -33 21.5 -55t60.5 -27q18 -2 26 -2q115 0 201 123q80 115 80 247z" />
    <glyph glyph-name="q" unicode="q" horiz-adv-x="582" 
d="M710 598q6 -2 6 -12q0 -6 -2.5 -14.5l-8.5 -28.5l-209 -699q-4 -12 -7.5 -25.5t-3.5 -21.5q0 -17 15.5 -27.5t54.5 -18.5q26 -5 26 -21q0 -6 -8 -6q-22 3 -49.5 5t-69.5 2q-54 0 -93.5 -4.5t-79.5 -10.5q-14 0 -17 10q-3 11 18 16q72 16 88 27t25 31q5 12 13 38l139 461
l-50 -80q-61 -89 -125 -148q-87 -81 -158 -81q0 -1 -5 -1q-49 0 -84 29q-43 36 -43 104q0 45 19 100.5t64 129.5q55 92 171 162q105 64 174 64q44 0 68.5 -5.5t49.5 -10.5q21 -3 49 17t33 19zM546 551q-15 3 -30 3q-72 0 -154 -73q-65 -58 -103 -126q-81 -142 -81 -233
q0 -79 66 -79q6 0 20 2q52 10 130 90q70 72 120 155q32 53 53 99q29 62 29 99q0 25 -11.5 41t-38.5 22z" />
    <glyph glyph-name="r" unicode="r" horiz-adv-x="530" 
d="M637 500q0 -28 -15 -48t-42 -24q-28 -4 -41 41q-7 23 -17 23q-12 0 -41 -29q-50 -51 -118 -166q-76 -129 -120 -249q0 -5 -2.5 -12.5t-12.5 -29.5q-4 -6 -15 -6h-40q-11 0 -16 5q-4 8 -3 12l124 405q3 10 6 23t3 27q0 13 -4 21t-13 8q-12 0 -32 -17q-37 -32 -66 -76
q-19 -29 -27 -25l54 93q76 86 127 86q18 0 31 -14q10 -10 14 -23.5t4 -30.5q0 -26 -10 -54l-66 -213l15 25l81 141q49 81 86 119q49 50 98 50q29 0 43.5 -17.5t14.5 -44.5z" />
    <glyph glyph-name="s" unicode="s" horiz-adv-x="436" 
d="M519 528q3 -5 -1 -17l-15 -45q-4 -14 -12 -16l-75 63q-40 33 -81 33q-36 0 -63.5 -24.5t-27.5 -60.5q4 -42 56 -97l94 -94q51 -58 51 -106q0 -75 -66 -124q-62 -46 -147 -46q-51 0 -108 24.5t-63 44.5q-2 11 2 24l17 56q2 7 9 10t14 1q32 -56 69 -93q41 -41 86 -41
q44 0 77.5 27.5t33.5 71.5t-48.5 90l-95.5 89q-50 53 -50 108q0 72 62 118.5t139 46.5q46 0 89 -10.5t54 -32.5z" />
    <glyph glyph-name="t" unicode="t" horiz-adv-x="364" 
d="M487 526q-2 -14 -12 -14h-118l-123 -403q-2 -8 -3 -15.5t-1 -13.5q0 -31 19 -31q9 0 26 14q43 38 69 75q33 46 34 46q8 0 8 -8q0 -35 -72 -112q-77 -83 -129 -83q-8 0 -16 3q-28 10 -28 59q0 32 13 74l122 394h-94q-9 0 -7 13q4 16 11 16h98l40 127q2 5 9 12q9 6 18 6h43
q10 0 14 -5q2 -3 0 -14l-40 -125h110q9 0 9 -15z" />
    <glyph glyph-name="u" unicode="u" horiz-adv-x="771" 
d="M787 194q8 0 8 -8q0 -34 -83 -111q-90 -84 -152 -84q-31 0 -31 48q0 29 10 62l45 153l24 72l-34 -53q-74 -117 -173 -196q-107 -85 -194 -85q-22 0 -33 17.5t-11 45.5q0 30 11 63l121 349q3 8 3 17q0 22 -16 22q-8 0 -21 -8q-37 -23 -91 -98q-17 -23 -26 -15
q-17 16 63.5 101t135.5 85q20 0 33 -13q9 -9 9 -40q0 -25 -7 -45l-120 -354q-6 -17 -6 -32q0 -41 35 -41q15 0 34 8.5t44 27.5q109 83 185 194q56 82 93 176l37 106q1 11 6 16t17 5h43q13 0 15 -10q1 -5 -3 -20l-135 -438q-3 -9 -3 -20q0 -14 5.5 -22.5t17.5 -8.5t29 13
q60 47 96 103q12 18 19 18z" />
    <glyph glyph-name="v" unicode="v" horiz-adv-x="577" 
d="M671 476q0 -121 -74 -241q-65 -106 -164 -179q-95 -70 -164 -70q-58 0 -89 30q-27 26 -27 69q0 27 11 54l126 320q1 4 1 6q5 17 5 23q0 19 -14 19q-11 0 -37 -17q-5 -3 -69 -76q-21 -24 -28 -19q-18 15 61 93.5t136 78.5q15 0 28.5 -8.5t13.5 -42.5q0 -23 -8 -44
l-135 -332q-7 -18 -7 -37q0 -32 18.5 -53.5t47.5 -21.5q89 0 199 125q118 134 118 268q0 23 -19.5 55t-19.5 50q0 21 12.5 37.5t29.5 16.5q28 0 40 -36q8 -24 8 -68z" />
    <glyph glyph-name="w" unicode="w" horiz-adv-x="902" 
d="M1000 483q0 -128 -74 -248q-64 -104 -161 -175q-90 -66 -152 -66q-61 0 -80 33q-6 10 -13 59q-1 4 -1 12q0 15 5 34.5l7 27.5l19 68l-15 -25q-52 -89 -118 -147.5t-125 -58.5q-65 0 -93 33q-16 19 -22 58q-2 11 1.5 29t16.5 54l117 299q1 4 1 6q1 7 1 13q0 12 -3.5 19.5
t-13.5 7.5q-13 0 -36 -16q-15 -11 -47 -48q-57 -68 -65 -61l64 98q86 86 148 86q19 0 29.5 -7t15.5 -21t5 -33q0 -18 -5 -29l-132 -324q-10 -24 -10 -51q0 -28 11.5 -46t34.5 -20q70 -10 162 108q78 100 116 210l66 198q1 5 2 7q3 7 7 9q3 2 10.5 2t12.5 1h33q19 0 20 -7
t-4 -22l-115 -366q-5 -18 -9 -38.5t-4 -39.5q0 -32 11 -50.5t36 -18.5q83 0 185 121q111 131 111 264q0 14 -24 51t-24 54q0 23 13 41t33 15q25 -3 39 -28.5t14 -59.5q-1 -8 -1 -12z" />
    <glyph glyph-name="x" unicode="x" horiz-adv-x="669" 
d="M775 509q0 -33 -22 -58q-17 -19 -43 -19q-18 0 -28 6.5t-10 28.5q1 17 1 24q0 13 -7 18q-20 13 -78 -50q-31 -34 -79 -97l-30 -39l60 -208q8 -27 23 -45t32 -18q9 0 18 6q36 24 45.5 74.5t16.5 50.5q12 0 12 -22q0 -43 -33 -97q-39 -63 -89 -72q-4 -1 -12 -1
q-27 0 -46 15q-23 18 -35 57l-55 182l-42 -59q-57 -80 -126 -134q-75 -59 -128 -59q-33 0 -48 18.5t-15 44.5q0 31 23 58.5t46 22.5q23 -6 32 -15t9 -23q0 -8 -5 -23t-5 -21q0 -9 7 -12q22 -11 78 39q74 65 120 131l44 63l-50 160q-12 38 -20 50q-15 23 -43 23q-4 0 -16 -2
q-45 -10 -57 -66.5t-19 -57.5q-10 -2 -10 20q0 50 36 102q46 66 115 66q28 0 50.5 -25t34.5 -61l42 -134l44 58q76 100 126 135q37 26 78 26q26 0 42 -18t16 -43z" />
    <glyph glyph-name="y" unicode="y" horiz-adv-x="599" 
d="M695 482q0 -73 -60 -179q-51 -90 -149 -213q-59 -74 -190 -224q-49 -57 -114 -100t-106 -43q-39 0 -67 16q-33 19 -36 50q0 18 13 31t31 13q19 0 56 -42q19 -22 40 -26q24 -5 64 22q58 39 93 122q48 113 48 290q0 119 -6 179q-13 134 -52 134q-25 0 -51 -37
q-63 -90 -65 -90l35 87q61 93 113 100q73 10 98 -183q11 -85 11 -180l-8 -190l27 33l99 123.5t77 116.5q32 64 32 119q0 19 -10 39q-23 46 -23 65q0 22 12.5 37.5t32.5 15.5q29 0 42 -26t13 -60z" />
    <glyph glyph-name="z" unicode="z" horiz-adv-x="620" 
d="M737 560q3 -5 3 -10q0 -11 -12 -22q-7 -7 -24 -18q-9 -6 -39 -22q-21 -12 -34 -21q-41 -30 -143 -123q-74 -67 -103 -91l-171 -142l-19 -15l30 6q16 4 31.5 5t38.5 1q42 0 95 -11l109 -23q49 4 68 27q14 17 14 45q0 6 -1 18t-1 16q0 8 4 9q14 7 21 -20q4 -15 4 -26
q0 -63 -53 -106.5t-126 -43.5q-45 0 -133.5 42t-109.5 38q-16 -3 -33 -16l-49 -42q-14 -9 -29 -9q-12 0 -19.5 6.5t-7.5 14.5q0 13 13.5 27.5t30.5 22.5t31 11t23 4l16 2l15 14l182 178q50 43 104.5 85l111.5 82l24 17l-34 -8q-16 -5 -35.5 -7t-40.5 -2q-36 0 -126 22
q-45 11 -75 11q-69 0 -85 -50q-8 -26 -15 -51q-7 0 -9 11t-2 29v19q0 53 48 90.5t99 37.5q48 0 161 -54q55 -26 103 -26h30l13 13l21 25q13 15 23.5 23.5t21 13t20.5 4.5q14 0 20 -11z" />
    <glyph glyph-name="braceleft" unicode="{" horiz-adv-x="273" 
d="M458 779q-19 -10 -36.5 -20.5t-32.5 -27.5q-25 -29 -48 -127q-36 -151 -41 -167q-29 -89 -72 -112q-26 -13 -56 -22q17 -5 25.5 -8t20 -11.5t17 -23.5t5.5 -38q0 -46 -36 -167t-36 -163q0 -19 4.5 -32t21.5 -23l24 -14h-25q-24 0 -45 8.5t-32 20.5q-15 16 -15 54
q0 45 35 164t35 161q0 34 -15 48q-7 7 -15 12q-4 2 -30 14q27 7 30 8q13 4 29 14q39 24 64 125l42 182q31 100 87 128q14 7 34 12t42 5h19z" />
    <glyph glyph-name="bar" unicode="|" horiz-adv-x="162" 
d="M352 778l-275 -945h-82l277 945h80z" />
    <glyph glyph-name="braceright" unicode="}" horiz-adv-x="298" 
d="M357 295q-34 -8 -41.5 -11t-19.5 -11q-40 -25 -65 -125l-42 -182q-31 -101 -86 -128q-14 -7 -34 -12t-42 -5h-20l37 20q19 12 33 28q24 28 47 127q35 148 41 167q29 89 73 112q30 15 56 22q-17 5 -25.5 8t-20 11.5t-17 23.5t-5.5 38q0 46 36 167t36 163q0 18 -4.5 31
t-18 21.5l-27.5 16.5h25q22 0 44 -8.5t33 -20.5q15 -16 15 -53q0 -45 -35 -164t-35 -161q0 -35 15 -49q11 -10 28 -18q9 -4 19 -8z" />
    <glyph glyph-name="asciitilde" unicode="~" horiz-adv-x="510" 
d="M690 747q-30 -43 -52 -61q-31 -25 -72 -25q-29 0 -131 41q-50 20 -84 20t-61 -30q-8 -9 -28 -37l-39 25q30 46 52 64q32 27 74 27q39 0 85 -18q105 -41 132 -41q30 0 50 18q4 3 36 43z" />
    <glyph glyph-name="Adieresis" unicode="&#xc4;" horiz-adv-x="866" 
d="M874 850q0 -28 -19 -50t-45 -18q-19 3 -29 12t-10 27q0 28 17.5 50.5t42.5 22.5q8 0 17 -3q26 -11 26 -41zM664 850q0 -28 -19 -50t-45 -18q-18 2 -28 11.5t-10 27.5q0 28 17.5 50.5t42.5 22.5q8 0 16 -3q26 -11 26 -41zM831 17q0 -8 -3 -11q-5 -5 -19 -5q-16 1 -22 1
q-6 -2 -25 0q-69 7 -74 7q-25 0 -54.5 -2.5t-58.5 -4.5q-8 -1 -13 -1q-21 0 -21 13q0 15 38.5 17.5t52 18t13.5 40.5l-2 206h-276l-131 -175q-15 -20 -15 -41q0 -17 11.5 -28.5t43.5 -16.5q57 -9 57 -19q0 -16 -22 -16q-7 0 -16 1t-10 1q-4 -1 -25 0q-66 4 -74 4
q-33 0 -62.5 -1.5l-49.5 -2.5q-9 -1 -15 -1q-19 0 -19 12q0 13 22 18q35 8 60 25q5 3 21 16l12 9l550 702q6 8 17 6q7 -2 7 -14v-13l13 -672q0 -22 12 -41q9 -14 43 -17t34 -15zM642 332l-12 302l-236 -303z" />
    <glyph glyph-name="Aring" unicode="&#xc5;" horiz-adv-x="858" 
d="M741 945q31 0 48.5 -19.5t17.5 -47.5t-17 -48t-50 -20q-31 0 -48.5 19.5t-17.5 47.5t17 48t50 20zM742 926q-24 0 -37.5 -15.5t-13.5 -35.5t13 -34t36 -14q24 0 37.5 15.5t13.5 35.5t-13 34t-36 14zM836 15q0 -8 -3 -11q-5 -5 -19 -5q-16 1 -22 1q-6 -2 -25 0
q-69 7 -74 7q-25 0 -54.5 -2.5t-58.5 -4.5q-8 -1 -13 -1q-21 0 -21 13q0 15 38.5 17.5t52 18t13.5 40.5l-2 206h-276l-131 -175q-15 -20 -15 -41q0 -17 11.5 -28.5t43.5 -16.5q57 -9 57 -19q0 -16 -22 -16q-7 0 -16 1t-10 1q-4 -1 -25 0q-66 4 -74 4q-33 0 -62.5 -1.5
l-49.5 -2.5q-9 -1 -15 -1q-19 0 -19 12q0 13 22 18q35 8 60 25q5 3 21 16l12 9l550 702q6 8 17 6q7 -2 7 -14v-13l13 -672q0 -22 12 -41q9 -14 43 -17t34 -15zM647 330l-12 302l-236 -303z" />
    <glyph glyph-name="Ccedilla" unicode="&#xc7;" horiz-adv-x="722" 
d="M890 752l-42 -136q-4 -12 -9.5 -19.5t-16.5 -7.5t-11 18q0 7 1 15.5l2 17.5l6 85q0 15 -8 27q-11 17 -60 17q-92 0 -209 -48q-140 -58 -226 -154q-106 -119 -106 -276q0 -115 58 -194q63 -86 168 -86q80 0 153 58q61 49 93 115q10 23 16 31q12 17 22 12q6 -2 6 -12
q0 -7 -4 -21l-39 -125q-7 -26 -33 -37q-76 -32 -117.5 -42t-79.5 -10q-43 0 -86 11l-26 6l-34 -52h46q33 0 57 -22t24 -54q0 -48 -42.5 -79t-99.5 -31q-55 0 -90.5 23t-29.5 41q3 10 7.5 15.5t13.5 5.5q17 0 31 -19q31 -42 73 -42q32 0 57 21t25 57q0 22 -17.5 34.5
t-40.5 12.5h-70l60 95l-18 10q-72 42 -101 66q-45 38 -66 88t-21 138q0 151 119 272q101 102 269 165q150 56 283 56q61 0 101 -13q14 -5 14 -19v-9q-2 -4 -2 -5z" />
    <glyph glyph-name="Eacute" unicode="&#xc9;" horiz-adv-x="688" 
d="M802 732l-36 -110q-2 -9 -5 -18t-12 -9q-15 0 -16.5 45t-21.5 66.5t-45 27.5t-63 6h-104q-8 0 -15.5 -0.5t-15 -5.5t-11 -12t-7.5 -20l-86 -282h155q22 0 42.5 6t31 13t18.5 20l31 53q4 7 9.5 14.5t14.5 5.5q12 -4 12 -12q0 -4 -2 -9l-4 -8q-23 -55 -39 -109
q-9 -31 -16 -57.5t-10.5 -46.5t-5.5 -24q-5 -10 -19 -10q-10 0 -10 18q1 12 1 17v55q0 18 -13.5 31t-35.5 13h-171l-85 -280q-5 -18 -5 -33q0 -22 10 -33q18 -21 53 -21h90q121 0 184 49l85 108q14 0 14 -11q0 -3 -1 -7q-2 -7 -4 -13l-33 -109q-2 -6 -5 -16.5t-6 -14.5
q-3 -5 -12.5 -7t-21.5 -2h-514q-7 0 -25 -3t-25 -3q-18 0 -18 14q-2 15 40 19t57 18t20 21.5t10 23.5l180 585l4 16t2 15q0 14 -9 22t-24 10t-30 2q-9 0 -21 1t-12 12q0 15 17 15q12 -1 18 -1h486q8 0 16 -0.5t12.5 -6.5t4.5 -14q0 -6 -3 -14zM796 937q5 -17 -5 -28t-28 -17
l-217 -75q-7 -2 -11 -3q-8 -2 -12 -2q-9 0 -12 7q-4 8 6 16q4 4 20 12l200 104q12 6 26 6q27 0 33 -20z" />
    <glyph glyph-name="Ntilde" unicode="&#xd1;" 
d="M1013 750q0 -11 -22 -11q-22 1 -33 1q-13 0 -20.5 -1t-13.5 -7q-16 -15 -26 -34q-6 -12 -24 -71l-175 -578q-6 -21 -12 -37.5t-12 -17.5q-9 0 -19 16q-6 10 -16 33l-278 656l-156 -517l-10 -36q-8 -32 -8 -54q0 -33 15 -49q9 -9 45.5 -12.5t36.5 -17.5q-1 -16 -31 -16
q-18 0 -30 1q-59 5 -70 5q-27 0 -60 -3t-39 -3q-21 0 -21 14q0 12 17 17q54 15 57 17q20 17 31 40q7 14 18 49l173 561q2 10 2 15q0 9 -4 15.5t-12.5 9.5t-27.5 3q-21 0 -29 1.5t-8 12.5t7 13t23 2h118q9 0 19 -0.5t17.5 -6t11 -15t7.5 -18.5l249 -555l144 466
q6 19 8.5 31.5t2.5 26.5q0 20 -8 31t-51 11q-37 2 -37 15q0 15 22 15l55 -5t48 -2q39 0 59.5 1.5t47.5 4.5q19 0 19 -17zM931 902q-30 -43 -52 -61q-31 -25 -72 -25q-29 0 -131 41q-50 20 -84 20t-61 -30q-8 -9 -28 -37l-39 25q30 46 52 64q32 27 74 27q39 0 85 -18
q105 -41 132 -41q30 0 50 18q4 3 36 43z" />
    <glyph glyph-name="Odieresis" unicode="&#xd6;" 
d="M938 436q0 -224 -163 -349q-135 -104 -310 -104q-62 0 -108 17q-90 33 -147 107q-74 96 -74 239q0 146 123 282q140 155 335 155q60 0 116 -14q87 -21 155 -115q73 -100 73 -218zM830 444q1 11 2 24t1 30q0 78 -26 135q-37 80 -123 108q-23 7 -44 10.5t-46 3.5
q-148 0 -250.5 -139t-102.5 -331q0 -89 28 -149q35 -73 113 -105q47 -18 94 -18q130 0 229 114q106 122 125 317zM802 878q0 -28 -19 -50t-45 -18q-19 3 -29 12t-10 27q0 28 17.5 50.5t42.5 22.5q8 0 17 -3q26 -11 26 -41zM592 878q0 -28 -19 -50t-45 -18q-18 2 -28 11.5
t-10 27.5q0 28 17.5 50.5t42.5 22.5q8 0 16 -3q26 -11 26 -41z" />
    <glyph glyph-name="Udieresis" unicode="&#xdc;" horiz-adv-x="813" 
d="M993 749q0 -10 -10 -12.5t-17 -2.5q-22 1 -32 1q-15 0 -23 -4q-14 -9 -26 -39q-5 -13 -19 -59l-141 -456q-26 -85 -105.5 -139t-185.5 -54q-126 0 -190 55q-57 49 -57 132q0 36 13 78l130 434q3 11 3 22q0 14 -6 23q-7 7 -15 9.5t-23 2.5q-17 -1 -24 -1q-26 0 -26 16
q0 14 19 14q34 -3 66.5 -5t74.5 -2q38 0 82 3t51 3q26 0 26 -14q0 -15 -41.5 -16.5t-56 -12t-21.5 -19t-11 -21.5l-138 -466q-13 -41 -13 -75q0 -59 36 -90q43 -37 138 -37q90 0 158 50q61 45 81 110l142 460l7.5 27.5t4.5 28.5q0 21 -12 33q-6 6 -14.5 8.5t-20.5 2.5
q-10 0 -22 -1t-13 -1q-21 0 -21 16q0 14 24 14q5 0 49 -4t61 -4q25 0 59 4.5t37 4.5q22 0 22 -17zM858 879q0 -28 -19 -50t-45 -18q-19 3 -29 12t-10 27q0 28 17.5 50.5t42.5 22.5q8 0 17 -3q26 -11 26 -41zM648 879q0 -28 -19 -50t-45 -18q-18 2 -28 11.5t-10 27.5
q0 28 17.5 50.5t42.5 22.5q8 0 16 -3q26 -11 26 -41z" />
    <glyph glyph-name="aacute" unicode="&#xe1;" horiz-adv-x="675" 
d="M697 574q4 -4 1.5 -13t-5.5 -17l-130 -423l-3.5 -20.5t-1.5 -9.5q0 -22 12 -22q6 0 14 5q42 27 89 96q17 26 23 22q4 -3 4 -9q0 -37 -74 -112q-80 -81 -140 -81q-16 0 -22.5 11t-6.5 29q0 16 2 23.5l3 11.5l76 247l7 26l-8 -13q-93 -145 -181 -230q-108 -105 -193 -105
q-42 0 -69.5 40t-27.5 84q0 166 143.5 310.5t295.5 144.5q47 0 74 -19l25 -24l8 29q4 13 10.5 19t21.5 6h39q8 0 14 -6zM584 466q2 12 2 18q0 62 -76 62q-21 0 -53 -8q-86 -23 -183 -143q-110 -136 -110 -266q0 -33 18.5 -53.5t47.5 -20.5q24 0 45 14q82 52 189.5 188.5
t119.5 208.5zM713 743q5 -17 -5 -28t-28 -17l-217 -75q-7 -2 -11 -3q-8 -2 -12 -2q-9 0 -12 7q-4 8 6 16q4 4 20 12l200 104q12 6 26 6q27 0 33 -20z" />
    <glyph glyph-name="agrave" unicode="&#xe0;" horiz-adv-x="682" 
d="M708 574q4 -4 1.5 -13t-5.5 -17l-130 -423l-3.5 -20.5t-1.5 -9.5q0 -22 12 -22q6 0 14 5q42 27 89 96q17 26 23 22q4 -3 4 -9q0 -37 -74 -112q-80 -81 -140 -81q-16 0 -22.5 11t-6.5 29q0 16 2 23.5l3 11.5l76 247l7 26l-8 -13q-93 -145 -181 -230q-108 -105 -193 -105
q-42 0 -69.5 40t-27.5 84q0 166 143.5 310.5t295.5 144.5q47 0 74 -19l25 -24l8 29q4 13 10.5 19t21.5 6h39q8 0 14 -6zM595 466q2 12 2 18q0 62 -76 62q-21 0 -53 -8q-86 -23 -183 -143q-110 -136 -110 -266q0 -33 18.5 -53.5t47.5 -20.5q24 0 45 14q82 52 189.5 188.5
t119.5 208.5zM706 622q-3 -7 -12 -7q-7 0 -11 1l-12 4l-218 75q-14 5 -23.5 13.5t-9.5 21.5q0 7 1 10q3 10 12 15t21 5q14 0 25 -6l201 -104q13 -7 19 -12q10 -9 7 -16z" />
    <glyph glyph-name="acircumflex" unicode="&#xe2;" horiz-adv-x="680" 
d="M708 574q4 -4 1.5 -13t-5.5 -17l-130 -423l-3.5 -20.5t-1.5 -9.5q0 -22 12 -22q6 0 14 5q42 27 89 96q17 26 23 22q4 -3 4 -9q0 -37 -74 -112q-80 -81 -140 -81q-16 0 -22.5 11t-6.5 29q0 16 2 23.5l3 11.5l76 247l7 26l-8 -13q-93 -145 -181 -230q-108 -105 -193 -105
q-42 0 -69.5 40t-27.5 84q0 166 143.5 310.5t295.5 144.5q47 0 74 -19l25 -24l8 29q4 13 10.5 19t21.5 6h39q8 0 14 -6zM595 466q2 12 2 18q0 62 -76 62q-21 0 -53 -8q-86 -23 -183 -143q-110 -136 -110 -266q0 -33 18.5 -53.5t47.5 -20.5q24 0 45 14q82 52 189.5 188.5
t119.5 208.5zM720 623q-4 -8 -10 -8h-33q-3 0 -14 9q-3 3 -12 20l-64 131l-169 -142l-16 -13q-4 -3 -13 -3h-26q-12 0 -15 8q-2 6 1 11q2 3 9 9l191 155q8 8 15 10t19 2h26q8 0 18 -8l9 -14l79 -148q1 -4 3 -7q4 -8 2 -12z" />
    <glyph glyph-name="adieresis" unicode="&#xe4;" horiz-adv-x="689" 
d="M708 574q4 -4 1.5 -13t-5.5 -17l-130 -423l-3.5 -20.5t-1.5 -9.5q0 -22 12 -22q6 0 14 5q42 27 89 96q17 26 23 22q4 -3 4 -9q0 -37 -74 -112q-80 -81 -140 -81q-16 0 -22.5 11t-6.5 29q0 16 2 23.5l3 11.5l76 247l7 26l-8 -13q-93 -145 -181 -230q-108 -105 -193 -105
q-42 0 -69.5 40t-27.5 84q0 166 143.5 310.5t295.5 144.5q47 0 74 -19l25 -24l8 29q4 13 10.5 19t21.5 6h39q8 0 14 -6zM595 466q2 12 2 18q0 62 -76 62q-21 0 -53 -8q-86 -23 -183 -143q-110 -136 -110 -266q0 -33 18.5 -53.5t47.5 -20.5q24 0 45 14q82 52 189.5 188.5
t119.5 208.5zM722 684q0 -28 -19 -50t-45 -18q-19 3 -29 12t-10 27q0 28 17.5 50.5t42.5 22.5q8 0 17 -3q26 -11 26 -41zM512 684q0 -28 -19 -50t-45 -18q-18 2 -28 11.5t-10 27.5q0 28 17.5 50.5t42.5 22.5q8 0 16 -3q26 -11 26 -41z" />
    <glyph glyph-name="atilde" unicode="&#xe3;" horiz-adv-x="682" 
d="M722 574q4 -4 1.5 -13t-5.5 -17l-130 -423l-3.5 -20.5t-1.5 -9.5q0 -22 12 -22q6 0 14 5q42 27 89 96q17 26 23 22q4 -3 4 -9q0 -37 -74 -112q-80 -81 -140 -81q-16 0 -22.5 11t-6.5 29q0 16 2 23.5l3 11.5l76 247l7 26l-8 -13q-93 -145 -181 -230q-108 -105 -193 -105
q-42 0 -69.5 40t-27.5 84q0 166 143.5 310.5t295.5 144.5q47 0 74 -19l25 -24l8 29q4 13 10.5 19t21.5 6h39q8 0 14 -6zM609 466q2 12 2 18q0 62 -76 62q-21 0 -53 -8q-86 -23 -183 -143q-110 -136 -110 -266q0 -33 18.5 -53.5t47.5 -20.5q24 0 45 14q82 52 189.5 188.5
t119.5 208.5zM767 708q-30 -43 -52 -61q-31 -25 -72 -25q-29 0 -131 41q-50 20 -84 20t-61 -30q-8 -9 -28 -37l-39 25q30 46 52 64q32 27 74 27q39 0 85 -18q105 -41 132 -41q30 0 50 18q4 3 36 43z" />
    <glyph glyph-name="aring" unicode="&#xe5;" horiz-adv-x="682" 
d="M708 574q4 -4 1.5 -13t-5.5 -17l-130 -423l-3.5 -20.5t-1.5 -9.5q0 -22 12 -22q6 0 14 5q42 27 89 96q17 26 23 22q4 -3 4 -9q0 -37 -74 -112q-80 -81 -140 -81q-16 0 -22.5 11t-6.5 29q0 16 2 23.5l3 11.5l76 247l7 26l-8 -13q-93 -145 -181 -230q-108 -105 -193 -105
q-42 0 -69.5 40t-27.5 84q0 166 143.5 310.5t295.5 144.5q47 0 74 -19l25 -24l8 29q4 13 10.5 19t21.5 6h39q8 0 14 -6zM595 466q2 12 2 18q0 62 -76 62q-21 0 -53 -8q-86 -23 -183 -143q-110 -136 -110 -266q0 -33 18.5 -53.5t47.5 -20.5q24 0 45 14q82 52 189.5 188.5
t119.5 208.5zM604 752q31 0 48.5 -19.5t17.5 -47.5t-17 -48t-50 -20q-31 0 -48.5 19.5t-17.5 47.5t17 48t50 20zM605 733q-24 0 -37.5 -15.5t-13.5 -35.5t13 -34t36 -14q24 0 37.5 15.5t13.5 35.5t-13 34t-36 14z" />
    <glyph glyph-name="ccedilla" unicode="&#xe7;" horiz-adv-x="538" 
d="M613 512q0 -19 -14.5 -30.5t-35.5 -11.5q-25 0 -47 20l-49 50q-11 4 -26 4q-79 0 -162.5 -114t-83.5 -223q0 -80 36 -120q31 -34 83 -34q12 -1 17 -1q68 0 152 69l77 67q5 -1 5 -9q0 -36 -92 -108q-100 -79 -175 -79q-12 0 -18 1l-27 5l-34 -51h47q34 0 57.5 -21.5
t23.5 -53.5q0 -48 -43 -79.5t-99 -31.5q-54 0 -90 23.5t-31 40.5q6 22 22 22q17 0 31 -19q31 -43 73 -43q31 0 56.5 21.5t25.5 57.5q0 22 -17.5 34.5t-40.5 12.5h-71l61 95l-18 10q-56 33 -78 69q-25 42 -25 116q0 116 100 228q112 126 269 141q6 1 19 1q47 0 84.5 -16
t37.5 -43z" />
    <glyph glyph-name="eacute" unicode="&#xe9;" horiz-adv-x="520" 
d="M609 485q3 -18 3 -36q0 -105 -133 -164q-108 -48 -241 -48l-43 -3l-1 -37q0 -61 28 -104q32 -49 87 -49q79 0 135 39l88 83q6 -2 6 -8q0 -34 -83 -98q-93 -72 -177 -72q-79 0 -129 55t-50 148q0 125 96 243q112 137 277 137h-3q3 0 6 1q45 0 86 -24t48 -63zM528 464
q0 35 -9 52q-13 24 -49 29q-5 1 -16 1q-71 0 -143.5 -78t-100.5 -177l-9 -34l43 4q120 12 193 55q91 54 91 148zM602 741q5 -17 -5 -28t-28 -17l-217 -75q-7 -2 -11 -3q-8 -2 -12 -2q-9 0 -12 7q-4 8 6 16q4 4 20 12l200 104q12 6 26 6q27 0 33 -20z" />
    <glyph glyph-name="egrave" unicode="&#xe8;" horiz-adv-x="519" 
d="M609 485q3 -18 3 -36q0 -105 -133 -164q-108 -48 -241 -48l-43 -3l-1 -37q0 -61 28 -104q32 -49 87 -49q79 0 135 39l88 83q6 -2 6 -8q0 -34 -83 -98q-93 -72 -177 -72q-79 0 -129 55t-50 148q0 125 96 243q112 137 277 137h-3q3 0 6 1q45 0 86 -24t48 -63zM528 464
q0 35 -9 52q-13 24 -49 29q-5 1 -16 1q-71 0 -143.5 -78t-100.5 -177l-9 -34l43 4q120 12 193 55q91 54 91 148zM585 622q-3 -7 -12 -7q-7 0 -11 1l-12 4l-218 75q-14 5 -23.5 13.5t-9.5 21.5q0 7 1 10q3 10 12 15t21 5q14 0 25 -6l201 -104q13 -7 19 -12q10 -9 7 -16z" />
    <glyph glyph-name="ecircumflex" unicode="&#xea;" horiz-adv-x="519" 
d="M609 485q3 -18 3 -36q0 -105 -133 -164q-108 -48 -241 -48l-43 -3l-1 -37q0 -61 28 -104q32 -49 87 -49q79 0 135 39l88 83q6 -2 6 -8q0 -34 -83 -98q-93 -72 -177 -72q-79 0 -129 55t-50 148q0 125 96 243q112 137 277 137h-3q3 0 6 1q45 0 86 -24t48 -63zM528 464
q0 35 -9 52q-13 24 -49 29q-5 1 -16 1q-71 0 -143.5 -78t-100.5 -177l-9 -34l43 4q120 12 193 55q91 54 91 148zM646 623q-4 -8 -10 -8h-33q-3 0 -14 9q-3 3 -12 20l-64 131l-169 -142l-16 -13q-4 -3 -13 -3h-26q-12 0 -15 8q-2 6 1 11q2 3 9 9l191 155q8 8 15 10t19 2h26
q8 0 18 -8l9 -14l79 -148q1 -4 3 -7q4 -8 2 -12z" />
    <glyph glyph-name="edieresis" unicode="&#xeb;" horiz-adv-x="516" 
d="M609 485q3 -18 3 -36q0 -105 -133 -164q-108 -48 -241 -48l-43 -3l-1 -37q0 -61 28 -104q32 -49 87 -49q79 0 135 39l88 83q6 -2 6 -8q0 -34 -83 -98q-93 -72 -177 -72q-79 0 -129 55t-50 148q0 125 96 243q112 137 277 137h-3q3 0 6 1q45 0 86 -24t48 -63zM528 464
q0 35 -9 52q-13 24 -49 29q-5 1 -16 1q-71 0 -143.5 -78t-100.5 -177l-9 -34l43 4q120 12 193 55q91 54 91 148zM635 686q0 -28 -19 -50t-45 -18q-19 3 -29 12t-10 27q0 28 17.5 50.5t42.5 22.5q8 0 17 -3q26 -11 26 -41zM425 686q0 -28 -19 -50t-45 -18q-18 2 -28 11.5
t-10 27.5q0 28 17.5 50.5t42.5 22.5q8 0 16 -3q26 -11 26 -41z" />
    <glyph glyph-name="iacute" unicode="&#xed;" horiz-adv-x="395" 
d="M405 201q8 0 8 -8q0 -34 -77 -112q-82 -84 -135 -84q-29 0 -29 53q0 17 3 33.5t9 37.5l106 346q3 8 3 17q0 22 -15 22q-8 0 -23 -9q-37 -23 -80 -78q-17 -22 -24 -22q-4 0 -7 4q-21 26 102 123q65 51 104 51q20 0 31 -12q7 -7 7 -32q0 -11 -3 -22l-119 -395q-2 -6 -2 -13
q0 -8 3.5 -18.5t14.5 -10.5q12 0 27 15q39 39 65.5 76.5t30.5 37.5zM512 741q5 -17 -5 -28t-28 -17l-217 -75q-7 -2 -11 -3q-8 -2 -12 -2q-9 0 -12 7q-4 8 6 16q4 4 20 12l200 104q12 6 26 6q27 0 33 -20z" />
    <glyph glyph-name="igrave" unicode="&#xec;" horiz-adv-x="392" 
d="M408 201q8 0 8 -8q0 -34 -77 -113q-82 -84 -134 -84q-29 3 -29 53q0 17 3 33.5t9 38.5l105 345q3 8 3 18q0 20 -15 20q-10 0 -23 -8q-28 -18 -55 -48q-46 -52 -49 -52t-6 4q-14 18 67 95q85 80 138 80q20 0 32 -13q7 -9 7 -33q0 -10 -3 -21l-120 -395q-1 -3 -1 -11
q0 -12 4.5 -21.5t14.5 -9.5q9 0 26 15q40 39 65.5 77t29.5 38zM528 627q-3 -7 -12 -7q-7 0 -11 1l-12 4l-218 75q-14 5 -23.5 13.5t-9.5 21.5q0 7 1 10q3 10 12 15t21 5q14 0 25 -6l201 -104q13 -7 19 -12q10 -9 7 -16z" />
    <glyph glyph-name="icircumflex" unicode="&#xee;" horiz-adv-x="392" 
d="M411 201q8 0 8 -8q0 -33 -77 -112q-83 -85 -135 -85q-29 3 -29 54q0 18 1.5 28.5t10.5 42.5l106 345q2 10 2 17q0 22 -15 22q-7 0 -22 -9q-35 -21 -80 -78q-18 -22 -25 -22q-3 0 -6 4q-21 28 101 125q63 50 104 50q20 0 32 -13q7 -7 7 -31q0 -12 -3 -23l-120 -395
q-1 -3 -1 -11q0 -12 4.5 -21.5t14.5 -9.5q9 0 26 15q39 38 65.5 76.5t30.5 38.5zM567 617q-4 -8 -10 -8h-33q-3 0 -14 9q-3 3 -12 20l-64 131l-169 -142l-16 -13q-4 -3 -13 -3h-26q-12 0 -15 8q-2 6 1 11q2 3 9 9l191 155q8 8 15 10t19 2h26q8 0 18 -8l9 -14l79 -148
q1 -4 3 -7q4 -8 2 -12z" />
    <glyph glyph-name="idieresis" unicode="&#xef;" horiz-adv-x="383" 
d="M401 201q8 0 8 -8q0 -34 -77 -113q-82 -84 -134 -84q-29 3 -29 53q0 17 3 33.5t9 38.5l105 345q3 8 3 18q0 20 -15 20q-10 0 -23 -8q-28 -18 -55 -48q-46 -52 -49 -52t-6 4q-14 18 67 95q85 80 138 80q20 0 32 -13q7 -9 7 -33q0 -10 -3 -21l-120 -395q-1 -3 -1 -11
q0 -12 4.5 -21.5t14.5 -9.5q9 0 26 15q40 39 65.5 77t29.5 38zM524 685q0 -28 -19 -50t-45 -18q-19 3 -29 12t-10 27q0 28 17.5 50.5t42.5 22.5q8 0 17 -3q26 -11 26 -41zM314 685q0 -28 -19 -50t-45 -18q-18 2 -28 11.5t-10 27.5q0 28 17.5 50.5t42.5 22.5q8 0 16 -3
q26 -11 26 -41z" />
    <glyph glyph-name="ntilde" unicode="&#xf1;" horiz-adv-x="763" 
d="M765 176l-58 -100q-80 -93 -137 -93q-36 0 -50.5 15.5t-14.5 45.5q0 18 4.5 38t11.5 39l104 274q8 21 12.5 42t4.5 34q0 26 -13.5 34.5t-34.5 8.5q-68 -7 -170 -130.5t-160 -264.5q-11 -27 -17 -43q-20 -50 -30 -72q-2 -4 -13 -4h-40q-12 0 -15 5q-4 6 -3 11l121 407
q7 25 7 42t-4.5 26t-16.5 9q-13 0 -36 -19q-40 -33 -63 -66q-30 -42 -36 -39l57 97q80 89 137 89q18 0 32 -12q10 -8 15 -21.5t5 -27.5q0 -11 -2.5 -23.5t-7.5 -30.5l-68 -229l25 41q56 90 100 145q60 75 115 113q65 45 130 45q40 0 58 -21t18 -57q0 -35 -16 -77l-114 -287
q-6 -18 -6 -38q0 -16 4.5 -25t16.5 -9q16 0 44 24q37 31 71 79q21 30 33 25zM784 712q-30 -43 -52 -61q-31 -25 -72 -25q-29 0 -131 41q-50 20 -84 20t-61 -30q-8 -9 -28 -37l-39 25q30 46 52 64q32 27 74 27q39 0 85 -18q105 -41 132 -41q30 0 50 18q4 3 36 43z" />
    <glyph glyph-name="oacute" unicode="&#xf3;" horiz-adv-x="605" 
d="M655 319q0 -142 -124 -240q-107 -85 -219 -85q-27 0 -48 8q-69 26 -104 70t-48 123q-2 9 -2 18.5v14.5q0 118 94 227q100 116 227 116q37 0 75 -12q67 -21 108 -89t41 -151zM570 340q3 17 3 40q0 58 -19 100q-25 55 -75 63q-17 3 -33 3q-104 0 -176 -98.5t-72 -250.5
q0 -71 24 -119.5t71 -56.5q8 -1 15 -2h15q92 0 159 93q63 87 88 228zM613 745q5 -17 -5 -28t-28 -17l-217 -75q-7 -2 -11 -3q-8 -2 -12 -2q-9 0 -12 7q-4 8 6 16q4 4 20 12l200 104q12 6 26 6q27 0 33 -20z" />
    <glyph glyph-name="ograve" unicode="&#xf2;" horiz-adv-x="601" 
d="M655 319q0 -142 -124 -240q-107 -85 -219 -85q-27 0 -48 8q-69 26 -104 70t-48 123q-2 9 -2 18.5v14.5q0 118 94 227q100 116 227 116q37 0 75 -12q67 -21 108 -89t41 -151zM570 340q3 17 3 40q0 58 -19 100q-25 55 -75 63q-17 3 -33 3q-104 0 -176 -98.5t-72 -250.5
q0 -71 24 -119.5t71 -56.5q8 -1 15 -2h15q92 0 159 93q63 87 88 228zM609 624q-3 -7 -12 -7q-7 0 -11 1l-12 4l-218 75q-14 5 -23.5 13.5t-9.5 21.5q0 7 1 10q3 10 12 15t21 5q14 0 25 -6l201 -104q13 -7 19 -12q10 -9 7 -16z" />
    <glyph glyph-name="ocircumflex" unicode="&#xf4;" horiz-adv-x="605" 
d="M655 319q0 -142 -124 -240q-107 -85 -219 -85q-27 0 -48 8q-69 26 -104 70t-48 123q-2 9 -2 18.5v14.5q0 118 94 227q100 116 227 116q37 0 75 -12q67 -21 108 -89t41 -151zM570 340q3 17 3 40q0 58 -19 100q-25 55 -75 63q-17 3 -33 3q-104 0 -176 -98.5t-72 -250.5
q0 -71 24 -119.5t71 -56.5q8 -1 15 -2h15q92 0 159 93q63 87 88 228zM648 623q-4 -8 -10 -8h-33q-3 0 -14 9q-3 3 -12 20l-64 131l-169 -142l-16 -13q-4 -3 -13 -3h-26q-12 0 -15 8q-2 6 1 11q2 3 9 9l191 155q8 8 15 10t19 2h26q8 0 18 -8l9 -14l79 -148q1 -4 3 -7
q4 -8 2 -12z" />
    <glyph glyph-name="odieresis" unicode="&#xf6;" horiz-adv-x="598" 
d="M655 319q0 -142 -124 -240q-107 -85 -219 -85q-27 0 -48 8q-69 26 -104 70t-48 123q-2 9 -2 18.5v14.5q0 118 94 227q100 116 227 116q37 0 75 -12q67 -21 108 -89t41 -151zM570 340q3 17 3 40q0 58 -19 100q-25 55 -75 63q-17 3 -33 3q-104 0 -176 -98.5t-72 -250.5
q0 -71 24 -119.5t71 -56.5q8 -1 15 -2h15q92 0 159 93q63 87 88 228zM633 685q0 -28 -19 -50t-45 -18q-19 3 -29 12t-10 27q0 28 17.5 50.5t42.5 22.5q8 0 17 -3q26 -11 26 -41zM423 685q0 -28 -19 -50t-45 -18q-18 2 -28 11.5t-10 27.5q0 28 17.5 50.5t42.5 22.5q8 0 16 -3
q26 -11 26 -41z" />
    <glyph glyph-name="otilde" unicode="&#xf5;" horiz-adv-x="597" 
d="M655 319q0 -142 -124 -240q-107 -85 -219 -85q-27 0 -48 8q-69 26 -104 70t-48 123q-2 9 -2 18.5v14.5q0 118 94 227q100 116 227 116q37 0 75 -12q67 -21 108 -89t41 -151zM570 340q3 17 3 40q0 58 -19 100q-25 55 -75 63q-17 3 -33 3q-104 0 -176 -98.5t-72 -250.5
q0 -71 24 -119.5t71 -56.5q8 -1 15 -2h15q92 0 159 93q63 87 88 228zM703 711q-30 -43 -52 -61q-31 -25 -72 -25q-29 0 -131 41q-50 20 -84 20t-61 -30q-8 -9 -28 -37l-39 25q30 46 52 64q32 27 74 27q39 0 85 -18q105 -41 132 -41q30 0 50 18q4 3 36 43z" />
    <glyph glyph-name="uacute" unicode="&#xfa;" horiz-adv-x="763" 
d="M787 194q8 0 8 -8q0 -34 -83 -111q-90 -84 -152 -84q-31 0 -31 48q0 29 10 62l45 153l24 72l-34 -53q-74 -117 -173 -196q-107 -85 -194 -85q-22 0 -33 17.5t-11 45.5q0 30 11 63l121 349q3 8 3 17q0 22 -16 22q-8 0 -21 -8q-37 -23 -91 -98q-17 -23 -26 -15
q-17 16 63.5 101t135.5 85q20 0 33 -13q9 -9 9 -40q0 -25 -7 -45l-120 -354q-6 -17 -6 -32q0 -41 35 -41q15 0 34 8.5t44 27.5q109 83 185 194q56 82 93 176l37 106q1 11 6 16t17 5h43q13 0 15 -10q1 -5 -3 -20l-135 -438q-3 -9 -3 -20q0 -14 5.5 -22.5t17.5 -8.5t29 13
q60 47 96 103q12 18 19 18zM741 742q5 -17 -5 -28t-28 -17l-217 -75q-7 -2 -11 -3q-8 -2 -12 -2q-9 0 -12 7q-4 8 6 16q4 4 20 12l200 104q12 6 26 6q27 0 33 -20z" />
    <glyph glyph-name="ugrave" unicode="&#xf9;" horiz-adv-x="771" 
d="M787 194q8 0 8 -8q0 -34 -83 -111q-90 -84 -152 -84q-31 0 -31 48q0 29 10 62l45 153l24 72l-34 -53q-74 -117 -173 -196q-107 -85 -194 -85q-22 0 -33 17.5t-11 45.5q0 30 11 63l121 349q3 8 3 17q0 22 -16 22q-8 0 -21 -8q-37 -23 -91 -98q-17 -23 -26 -15
q-17 16 63.5 101t135.5 85q20 0 33 -13q9 -9 9 -40q0 -25 -7 -45l-120 -354q-6 -17 -6 -32q0 -41 35 -41q15 0 34 8.5t44 27.5q109 83 185 194q56 82 93 176l37 106q1 11 6 16t17 5h43q13 0 15 -10q1 -5 -3 -20l-135 -438q-3 -9 -3 -20q0 -14 5.5 -22.5t17.5 -8.5t29 13
q60 47 96 103q12 18 19 18zM747 623q-3 -7 -12 -7q-7 0 -11 1l-12 4l-218 75q-14 5 -23.5 13.5t-9.5 21.5q0 7 1 10q3 10 12 15t21 5q14 0 25 -6l201 -104q13 -7 19 -12q10 -9 7 -16z" />
    <glyph glyph-name="ucircumflex" unicode="&#xfb;" horiz-adv-x="767" 
d="M787 194q8 0 8 -8q0 -34 -83 -111q-90 -84 -152 -84q-31 0 -31 48q0 29 10 62l45 153l24 72l-34 -53q-74 -117 -173 -196q-107 -85 -194 -85q-22 0 -33 17.5t-11 45.5q0 30 11 63l121 349q3 8 3 17q0 22 -16 22q-8 0 -21 -8q-37 -23 -91 -98q-17 -23 -26 -15
q-17 16 63.5 101t135.5 85q20 0 33 -13q9 -9 9 -40q0 -25 -7 -45l-120 -354q-6 -17 -6 -32q0 -41 35 -41q15 0 34 8.5t44 27.5q109 83 185 194q56 82 93 176l37 106q1 11 6 16t17 5h43q13 0 15 -10q1 -5 -3 -20l-135 -438q-3 -9 -3 -20q0 -14 5.5 -22.5t17.5 -8.5t29 13
q60 47 96 103q12 18 19 18zM771 623q-4 -8 -10 -8h-33q-3 0 -14 9q-3 3 -12 20l-64 131l-169 -142l-16 -13q-4 -3 -13 -3h-26q-12 0 -15 8q-2 6 1 11q2 3 9 9l191 155q8 8 15 10t19 2h26q8 0 18 -8l9 -14l79 -148q1 -4 3 -7q4 -8 2 -12z" />
    <glyph glyph-name="udieresis" unicode="&#xfc;" horiz-adv-x="767" 
d="M787 194q8 0 8 -8q0 -34 -83 -111q-90 -84 -152 -84q-31 0 -31 48q0 29 10 62l45 153l24 72l-34 -53q-74 -117 -173 -196q-107 -85 -194 -85q-22 0 -33 17.5t-11 45.5q0 30 11 63l121 349q3 8 3 17q0 22 -16 22q-8 0 -21 -8q-37 -23 -91 -98q-17 -23 -26 -15
q-17 16 63.5 101t135.5 85q20 0 33 -13q9 -9 9 -40q0 -25 -7 -45l-120 -354q-6 -17 -6 -32q0 -41 35 -41q15 0 34 8.5t44 27.5q109 83 185 194q56 82 93 176l37 106q1 11 6 16t17 5h43q13 0 15 -10q1 -5 -3 -20l-135 -438q-3 -9 -3 -20q0 -14 5.5 -22.5t17.5 -8.5t29 13
q60 47 96 103q12 18 19 18zM743 686q0 -28 -19 -50t-45 -18q-19 3 -29 12t-10 27q0 28 17.5 50.5t42.5 22.5q8 0 17 -3q26 -11 26 -41zM533 686q0 -28 -19 -50t-45 -18q-18 2 -28 11.5t-10 27.5q0 28 17.5 50.5t42.5 22.5q8 0 16 -3q26 -11 26 -41z" />
    <glyph glyph-name="dagger" unicode="&#x2020;" horiz-adv-x="506" 
d="M611 474q-5 -21 -15 -34t-26 -10l-120 25q-12 2 -16 2q-11 0 -23 -6q-18 -10 -24 -35l-136 -570q-9 -37 -57 -37q-30 0 -42 6.5t-12 19.5q0 8 5 20l215 565q4 8 4 17t-6 15t-14 6q-15 -3 -23 -4l-136 -22q-15 -1 -15 24q0 8 2 18q6 24 18 36t30 8l124 -28q5 -1 12.5 0.5
t17.5 8.5t13 20t4 21l42 209q3 15 18.5 23.5t34.5 8.5q14 0 25.5 -10.5t7.5 -21.5l-90 -216q-7 -16 -7 -27q0 -6 3 -11q7 -7 15 -7q4 0 8 1l8 2l135 27q23 5 23 -26q0 -7 -3 -18z" />
    <glyph glyph-name="degree" unicode="&#xb0;" horiz-adv-x="258" 
d="M320 778q43 0 67 -27t24 -65q0 -37 -24.5 -64.5t-67.5 -27.5t-67 27t-24 65q0 37 24.5 64.5t67.5 27.5zM321 753q-33 0 -51 -20t-18 -49q0 -27 17 -46.5t49 -19.5q33 0 51 20t18 49q0 27 -17 46.5t-49 19.5z" />
    <glyph glyph-name="cent" unicode="&#xa2;" horiz-adv-x="539" 
d="M594 539q-2 -18 -15 -28t-30 -10q-28 0 -51 31q-28 38 -31 39q-11 4 -24 4q-7 0 -11 -1l-165 -440q10 -6 25 -11t24.5 -6.5t20.5 -1.5q47 0 99 36l103 85l-16 -43q-39 -48 -95 -86q-69 -47 -125 -47q-11 0 -19.5 1.5t-21 4.5t-19.5 5l-37 -99l-3 -5l-6 -1h-10l-4 4
q-1 4 4 18l35 93q-86 46 -86 183q0 98 76 194q82 104 202 134l56 147l4 6l5 2h8q5 -1 5 -3q3 -5 -1 -13l-50 -134l35 4q43 0 82 -17.5t36 -44.5zM405 566q-68 -30 -126 -120q-61 -94 -61 -180q0 -84 30 -117z" />
    <glyph glyph-name="sterling" unicode="&#xa3;" horiz-adv-x="704" 
d="M709 138q0 -60 -52 -107t-121 -47q-40 0 -80 21q-28 14 -76 52l-11 9l-7 -6q-38 -38 -85.5 -57t-92.5 -19q-38 0 -73 21q-46 28 -46 75q0 49 47 78.5t106 29.5q32 0 58 -7q16 -4 86 -36l24 -12l12 23q11 21 14.5 40t3.5 47q0 41 -8 82l-4 22h-116q-13 0 -9 14q6 18 20 15
h99l-4 25q-5 24 -6 46.5t-1 49.5v30q0 84 55 165q64 94 157 94q33 0 54 -16q18 -13 22 -37q3 -16 -11 -30t-29 -10q-17 4 -45 43q-12 16 -30 16q-44 5 -75 -64q-27 -60 -27 -127t4 -95q8 -40 17 -79l2 -12h125q13 0 8 -15q-5 -14 -19 -14h-113v-20q0 -40 -13 -88
q-9 -30 -17.5 -49t-28.5 -54l-10 -17l14 -10q46 -30 91 -49t71 -16q56 7 80 38q17 22 17 58q0 12 -1 21.5l-2 18.5q0 7 3 9q10 6 16.5 -12t6.5 -38zM351 84l-10 10q-29 29 -56 44t-59 15h-10q-31 0 -52.5 -22.5t-21.5 -53.5t20 -47.5t53 -16.5q30 0 68 18.5t63 46.5z" />
    <glyph glyph-name="section" unicode="&#xa7;" horiz-adv-x="469" 
d="M635 699q0 -21 -15.5 -34.5t-38.5 -16.5q-28 -4 -56 24q-65 64 -78 64q-26 0 -43 -31.5t-17 -72.5q0 -51 46 -238q22 -89 22 -158q0 -162 -89 -295q-98 -146 -240 -146q-47 0 -81 22q-41 27 -41 73q0 24 21.5 44.5t42.5 17.5q45 -7 70.5 -57t55.5 -50q67 0 67 104
q0 62 -19 129t-38 141.5t-19 156.5q0 142 83 263q97 141 248 141q47 0 80 -19q39 -23 39 -62zM400 215q0 65 -12 127q-8 39 -33 128q-7 26 -12 91t-17 70q-19 7 -47.5 -78.5t-28.5 -153.5q0 -69 10 -123q17 -71 27 -117q5 -22 16.5 -93t26.5 -76q19 -7 44.5 76.5t25.5 148.5
z" />
    <glyph glyph-name="bullet" unicode="&#x2022;" horiz-adv-x="312" 
d="M293 455q44 0 68 -24q21 -21 21 -57q0 -57 -46 -107q-51 -55 -120 -55q-44 0 -66.5 22.5t-22.5 58.5q0 57 46 107q51 55 120 55z" />
    <glyph glyph-name="paragraph" unicode="&#xb6;" horiz-adv-x="771" 
d="M945 740q-3 -16 -19.5 -25.5t-37.5 -9.5h-80l-265 -864q-7 -28 -34 -28q-3 0 -9 2q-19 6 -19 24q0 5 4 19l262 853h-84l-266 -877q-6 -21 -30 -21q-8 0 -11 2q-19 8 -19 25q0 8 3 17l127 412l-34 5q-104 15 -176 66q-82 58 -82 142q0 11 1 17q10 118 101.5 193t215.5 75
h426q11 0 19.5 -8t6.5 -19zM602 712l-44 1q-119 0 -196 -47q-91 -56 -91 -163q-1 -15 -1 -19q0 -62 59 -109q55 -44 133 -55l20 -3z" />
    <glyph glyph-name="germandbls" unicode="&#xdf;" horiz-adv-x="717" 
d="M847 647q0 -84 -80 -124q-29 -15 -150 -42q-81 -18 -81 -51q0 -27 49 -79q76 -82 91 -101q50 -66 50 -121q0 -71 -59 -117t-138 -46q-56 0 -117 27t-70 51q-5 15 -2 23l21 70q2 8 20 8q10 0 45 -77.5t115 -77.5q43 0 77 30q38 33 38 85q-5 51 -55 105l-92 90
q-49 54 -49 100q0 63 79 86l147 36q79 31 79 113q0 52 -40 87t-95 35q-91 0 -170 -80q-69 -70 -101 -170l-178 -559q-30 -97 -92 -157q-67 -65 -150 -65q-42 4 -66 17q-32 18 -32 51q0 18 13.5 28.5t32.5 10.5q20 0 34 -27q30 -59 49 -59q35 0 59 28q20 23 33 64l205 640
l4 16h-89q-5 0 -8.5 6.5t-1.5 11.5q6 19 27 19h86l8 17q50 110 146 169.5t211 59.5q80 0 133 -29q64 -35 64 -102z" />
    <glyph glyph-name="registered" unicode="&#xae;" horiz-adv-x="839" 
d="M649 773q146 0 222 -78q69 -70 69 -188q0 -182 -143 -337q-157 -170 -377 -170q-145 0 -221 78q-69 71 -69 188q0 182 142 337q156 170 377 170zM637 732q-197 0 -337 -152q-127 -138 -127 -301q0 -105 61 -168q68 -70 198 -70q197 0 337 151q128 138 128 302
q0 105 -61 168q-68 70 -199 70zM729 539q0 -79 -88 -128q-14 -8 -38 -15q-9 -3 -26 -7l-5 -1l83 -180q2 -3 3 -4q4 -5 9 -8l15 -4l-2 -18h-5l-35 2l-34 -2l-9 -1l-104 220l6 10l20 -1q45 0 87 25q47 28 55 68q3 12 3 24q0 22 -11.5 36.5t-28 17t-22.5 2.5h-10q-16 0 -30 -1
t-28 -5l-10 -2l-100 -340q-3 -9 -3 -15q0 -4 3 -9q4 -6 12.5 -7.5t18.5 -1.5l15 -2l-5 -17h-10l-74 3l-77 -3h-11l5 18l18 1q10 0 17.5 1t17 9t14.5 23l94 318q3 12 3 16q0 5 -3 11t-14.5 7.5t-24.5 1.5h-7l6 18h10l76 -2q26 0 59 0.5t55 1.5h10q40 0 66 -12q34 -16 34 -48z
" />
    <glyph glyph-name="copyright" unicode="&#xa9;" horiz-adv-x="835" 
d="M646 773q145 0 221 -78q69 -71 69 -188q0 -182 -142 -337q-156 -170 -377 -170q-146 0 -222 78q-69 70 -69 188q0 182 143 337q157 170 377 170zM634 732q-198 0 -337 -151q-127 -138 -127 -302q0 -105 61 -168q68 -70 198 -70q197 0 337 152q127 138 127 301
q0 105 -61 168q-68 70 -198 70zM749 578l-40 -91h-18l11 38l1 6q4 13 -17 26.5t-36.5 16.5t-27.5 4.5t-30 1.5q-17 0 -34 -3q-83 -17 -134 -80q-45 -55 -59 -135q-3 -18 -3 -35q0 -58 35.5 -95.5t93.5 -37.5q43 0 75.5 8t61.5 22l17 7l2 -6l-18 -26l-16 -7
q-24 -10 -62.5 -19.5t-72.5 -9.5q-87 0 -135.5 40.5t-48.5 111.5q0 22 4 41q19 106 100 175q66 57 150 71q10 2 30.5 3t21.5 1q20 0 34 -1.5t39 -6t28 -5.5l40 -12z" />
    <glyph glyph-name="trademark" unicode="&#x2122;" horiz-adv-x="886" 
d="M559 770l-30 -90h-16l6 35q3 10 0 19q-4 5 -13 5l-86 2l-90 -306q-5 -13 -1 -22q3 -6 11.5 -7t16.5 -1l13 -1l-5 -16h-9l-31.5 2.5t-34.5 1.5q-14 0 -32 -1.5t-37 -2.5h-10l5 17l16 1q21 0 31 8t14 21l90 306l-86 -3q-10 -1 -12 -3l-11 -15l-18 -40h-16l23 89h9
q16 0 74 -1t73 -1l146 2zM1074 769l-5 -17h-7q-11 0 -23 -1.5t-17 -6.5q-5 -4 -8 -9q-4 -6 -7 -15l-84 -285q-2 -10 -2 -12q0 -5 3 -10q3 -6 13.5 -6.5t14.5 -1.5l12 -1l-4 -16h-9q-1 0 -26 2t-40 2t-33 -1.5t-37 -2.5h-9l5 17l16 1q6 0 14.5 0.5t14.5 6t11 13.5q2 4 4 9
l79 266l-245 -319h-11l-55 317l-78 -264q-2 -10 -2 -12q0 -4 2 -10q3 -6 11.5 -7t16.5 -1l13 -1l-5 -16h-8q-1 0 -26 2t-41 2l-46 -4h-10l5 17l16 1q21 0 31 8.5t13 20.5l85 285q3 11 3 14q0 2 -3 8.5t-14 8t-22 1.5h-6l5 17h9l36 -3q17 0 30 1t24 2h6l53 -304l91 116l59 74
l49 65l27 39l7 10h7l46 -3l44 3h7z" />
    <glyph glyph-name="acute" unicode="&#xb4;" horiz-adv-x="326" 
d="M507 774q5 -17 -5 -28t-28 -17l-217 -75q-7 -2 -11 -3q-8 -2 -12 -2q-9 0 -12 7q-4 8 6 16q4 4 20 12l200 104q12 6 26 6q27 0 33 -20z" />
    <glyph glyph-name="dieresis" unicode="&#xa8;" horiz-adv-x="379" 
d="M545 730q0 -28 -19 -50t-45 -18q-19 3 -29 12t-10 27q0 28 17.5 50.5t42.5 22.5q8 0 17 -3q26 -11 26 -41zM335 730q0 -28 -19 -50t-45 -18q-18 2 -28 11.5t-10 27.5q0 28 17.5 50.5t42.5 22.5q8 0 16 -3q26 -11 26 -41z" />
    <glyph glyph-name="notequal" unicode="&#x2260;" horiz-adv-x="708" 
d="M818 469l-21 -69l-237 -2l-148 -168h335l-20 -68h-371l-169 -200l-51 35l139 166l-189 -1l20 68h226l145 170h-318l18 69l359 -2l173 207l50 -36l-144 -169h203z" />
    <glyph glyph-name="AE" unicode="&#xc6;" horiz-adv-x="1235" 
d="M1311 732l-36 -110q-2 -9 -5 -18t-12 -9q-15 0 -16.5 46t-21.5 67.5t-45 27.5t-63 6h-104q-8 0 -15.5 -0.5t-15 -5.5t-11 -12t-7.5 -20l-86 -284h155q22 0 42.5 6t31 13t18.5 20l31 53q4 7 9.5 14.5t14.5 5.5q12 -4 12 -12q0 -4 -2 -9l-4 -8q-23 -55 -39 -109
q-9 -31 -16 -57.5t-10.5 -46.5t-5.5 -24q-5 -10 -19 -10q-10 0 -10 18q1 12 1 17v55q0 18 -13 30.5t-36 12.5l-171 1l-85 -280q-5 -18 -5 -33q0 -22 10 -33q18 -21 53 -21l90 1q120 0 184 49l85 107q14 0 14 -11q0 -3 -1 -7q-2 -7 -4 -13l-33 -109q-2 -6 -5 -16.5t-6 -14.5
q-3 -5 -15.5 -10t-24.5 -5l-442 7q-5 0 -42 -4t-58 -4q-24 0 -35.5 4t-9.5 15q2 15 40.5 17.5t55.5 15.5q11 8 18 19.5t11 23.5l75 206h-277l-195 -172q-14 -12 -23.5 -27.5t-9.5 -27.5q0 -7 3 -13q7 -11 69 -21q24 -4 19 -16q-4 -10 -12.5 -13t-15.5 -3q-4 0 -13 1t-12 1
q-4 -1 -25 0q-65 4 -73 4q-28 0 -58 -1t-55 -3q-9 -1 -14 -1q-19 0 -15 12q4 13 27 18q39 8 70 25l42 25l686 593q8 12 8 28q0 15 -12 26q-8 7 -23 9t-30 2q-9 0 -21 1t-12 12q0 15 17 15q12 -1 18 -1l486 5q11 0 16 -2q7 -3 12 -10.5t5 -13.5t-3 -14zM836 627l-341 -298
l249 1z" />
    <glyph glyph-name="Oslash" unicode="&#xd8;" horiz-adv-x="852" 
d="M942 436q0 -224 -163 -349q-135 -104 -310 -104q-62 0 -108 17l-20 8l-36 -57l-5 -5q-2 -2 -10 -2h-19q-8 3 -8 5q-1 4 2.5 10.5t5.5 9.5l36 56q-73 42 -115 113q-52 87 -52 208q0 146 123 282q140 155 335 155q60 0 116 -14q16 -4 25 -7.5t29 -14.5l26 41l8 7q3 2 10 2
h14q8 0 10 -3q4 -5 -2 -15l-34 -53q64 -47 103 -124t39 -166zM746 713q-9 6 -26 14.5t-36 14.5t-40 9.5t-46 3.5q-148 0 -250.5 -139t-102.5 -331q0 -73 17 -123q21 -61 69 -99zM834 444q1 11 2 24t1 30q0 53 -11 94q-15 57 -51 95l-412 -645l23 -11q47 -18 94 -18
q130 0 229 114q106 122 125 317z" />
    <glyph glyph-name="infinity" unicode="&#x221e;" horiz-adv-x="846" 
d="M906 280q-21 -77 -87 -127q-61 -46 -127 -46q-43 0 -86 20t-72 58l-37 48l-66 -48q-52 -39 -106 -58.5t-98 -19.5q-52 0 -86 31t-34 85q0 27 9 57q21 66 83 112t130 46q42 0 77.5 -18.5t64.5 -55.5l47 -58l82 58q50 35 98 54.5t89 19.5q55 0 90 -33t35 -85q0 -19 -6 -40z
M847 275q3 14 3 25q0 36 -22.5 56.5t-63.5 20.5q-33 0 -64 -13q-19 -8 -62 -35l-94 -57l52 -66q34 -45 104 -45q53 0 95 33t52 81zM473 272l-59 57q-21 20 -32 28q-28 20 -67 20q-46 0 -86 -28t-57 -74q-8 -21 -8 -38q0 -34 24 -55t64 -21q36 0 66 10t65 35z" />
    <glyph glyph-name="plusminus" unicode="&#xb1;" horiz-adv-x="480" 
d="M567 363l-15 -52h-187l-55 -186h-47l55 186h-185l16 52h184l55 186h50l-55 -186h184zM467 38l-12 -39h-423l12 39h423z" />
    <glyph glyph-name="lessequal" unicode="&#x2264;" horiz-adv-x="470" 
d="M601 542l-13 -45l-408 -164l309 -165l-14 -46l-357 190l12 41zM465 47l-14 -46h-428l14 46h428z" />
    <glyph glyph-name="greaterequal" unicode="&#x2265;" horiz-adv-x="470" 
d="M548 353l-12 -41l-470 -190l13 46l407 165l-311 162l14 47zM469 45l-14 -46h-428l14 46h428z" />
    <glyph glyph-name="yen" unicode="&#xa5;" horiz-adv-x="797" 
d="M980 759q0 -9 -9 -12.5t-24 -3.5h-33q-10 -2 -24 -16q-3 -3 -45 -52l-126 -146h113l-16 -62h-151l-115 -130l-8 -26h242l-13 -63h-251l-44 -161q-2 -8 -2 -12q0 -26 17 -37q4 -2 12 -4t22 -2h17q14 0 21.5 -3.5t7.5 -14.5q0 -13 -36 -13q-24 0 -47 2q-81 7 -87 7
q-20 0 -79 -7q-34 -4 -43 -4q-29 0 -29 13t6.5 17.5t18.5 4.5q18 -1 28 -1q14 0 25 4q35 15 47 56l48 159h-206l18 61h207l11 41l-36 112h-144l16 62h110l-52 156q-4 13 -12 25q-1 2 -13.5 17.5t-46.5 17.5t-34 17q0 16 17 16q29 -2 63.5 -3.5t61.5 -1.5q36 0 76 2t47 2
q13 0 20.5 -2t7.5 -13q1 -10 -7 -13q-5 -2 -22 -2q-22 0 -34.5 -1.5t-22 -9.5t-9.5 -21q0 -8 4 -22l104 -318l272 308q18 21 18 45q-1 11 -12.5 14.5t-29.5 3.5h-16q-15 0 -20 2q-8 3 -10 13q0 16 16 16q26 -3 49 -5t54 -2q25 0 55 3t36 3q21 0 21 -16z" />
    <glyph glyph-name="mu" unicode="&#xb5;" horiz-adv-x="627" 
d="M644 112l-17 -34q-23 -45 -79 -76q-52 -28 -86 -23q-31 5 -50.5 28.5t-19.5 57.5q0 11 3 25l-37 -28q-43 -34 -90.5 -56.5t-76.5 -22.5t-59 15q-36 18 -50 50l-12 -40q-5 -16 -7 -31.5t-2 -27.5q0 -14 1.5 -36.5t1.5 -23.5q0 -21 -1 -31t-8.5 -35.5t-29.5 -48.5t-48 -23
q-18 0 -27.5 12.5t-9.5 31.5q0 11 3 22q11 42 37 81q33 50 41 70q3 8 6 15t5 17l167 563h96l-115 -388q-6 -21 -6 -40q0 -35 19 -58t54 -23q45 0 101 36q61 39 75 84l115 389h93l-130 -438q-6 -20 -6 -39q0 -25 9 -39.5t29 -14.5q6 0 9 1q42 7 64 49l18 30h20z" />
    <glyph glyph-name="partialdiff" unicode="&#x2202;" horiz-adv-x="543" 
d="M633 419q-34 -156 -148 -293q-122 -147 -242 -147q-12 0 -17 1q-73 7 -110 46.5t-37 102.5q0 24 1.5 34t6.5 29q24 94 108 165.5t177 71.5q40 0 65.5 -12t55.5 -39l26 -23l25 54q21 45 32 91.5t11 92.5q0 69 -29 109q-32 45 -95 45q-25 0 -55 -9l-58 -18l-22 -6l-25 50
l50 14q32 9 55 12.5t51 3.5q98 0 146 -71q43 -63 43 -172q0 -66 -15 -132zM498 315l-20 28q-11 15 -25.5 24.5t-30.5 13t-29 3.5q-53 0 -108 -46q-49 -40 -85 -104q-40 -69 -40 -131q0 -35 13.5 -58t44.5 -33q15 -5 28 -5q45 0 92 45q61 58 121 180z" />
    <glyph glyph-name="summation" unicode="&#x3a3;" horiz-adv-x="785" 
d="M911 773l-49 -172h-23q7 21 7 41q0 30 -17.5 51t-38.5 26t-60 5h-316l196 -366l-434 -365h434q22 0 39 5.5t40 20.5q30 18 49 41t31 53h23q-21 -34 -36 -61q-18 -32 -32 -61.5t-25 -57.5t-21 -58l-72 15h-618l507 420l-237 470l68 -7h585z" />
    <glyph glyph-name="product" unicode="&#x220f;" horiz-adv-x="910" 
d="M1111 772l-7 -24l-24 -1q-11 0 -23 -3.5t-36 -19t-39 -39.5q-11 -17 -22 -53l-187 -635l-6 -23t-3 -20q0 -16 9.5 -28.5t23 -16.5t32.5 -4l25 -1l-5 -18h-337l6 21l28 1q25 0 37.5 2.5t29.5 15.5t25 33l12 40l211 711h-395l-209 -705q-3 -9 -6 -24t-3 -23q0 -20 14 -34
q10 -10 22.5 -12.5t34.5 -2.5h22l-7 -23h-337l7 24h27q26 0 36.5 2t29 14t30.5 35q5 10 16 45l190 642q5 20 5 32q0 23 -17 45q-10 12 -19 16.5t-26 6.5l-17 2l6 22h846z" />
    <glyph glyph-name="pi" unicode="&#x3c0;" horiz-adv-x="650" 
d="M778 564l-28 -94h-151l-97 -276q-7 -17 -7 -37q0 -26 13.5 -43t39.5 -17q28 0 52 18t39 48l11 19h22l-11 -25q-27 -66 -81 -111.5t-113 -45.5q-34 0 -49.5 22t-15.5 60q0 33 8.5 67t24.5 74l100 247h-134l-155 -366q-19 -43 -46 -74q-33 -37 -64 -37q-4 0 -14 2
q-15 5 -21 9q-17 11 -15 31q0 36 39 66q58 45 67 58l20 28q10 15 16 29l101 250h-38q-14 0 -26.5 -0.5t-32.5 -7t-45 -29.5q-19 -17 -28 -31l-18 7l13 17q50 67 55 73q30 34 71 51.5t81 17.5h417z" />
    <glyph glyph-name="integral" unicode="&#x222b;" horiz-adv-x="364" 
d="M554 832q-17 -39 -58 -39q-10 0 -19 8q-13 12 -15 13q-19 10 -35 -35q-11 -32 -28 -115.5t-26 -113.5l-99 -334q-39 -128 -76 -202q-65 -129 -132 -129q-10 0 -22.5 3.5t-21 12.5t-8.5 23q0 5 3 13q7 17 21.5 28.5t31.5 11.5q14 0 21 -14t14 -16q30 -9 63 108l30 112
l137 464q41 137 88 198q40 52 86 52q19 0 33.5 -9.5t14.5 -25.5q0 -6 -3 -14z" />
    <glyph glyph-name="ordfeminine" unicode="&#xaa;" horiz-adv-x="377" 
d="M465 411h-314v18h314v-18zM498 767q-1 -8 -2 -15l-65 -211q-2 -8 -2 -16q0 -5 1 -7q3 -6 11 -1q23 14 45 48q8 13 11 11q9 -6 -13 -36q-48 -65 -92 -65q-14 0 -14 20q0 8 2 18l38 123l4 13l-4 -6q-46 -71 -91 -115q-54 -53 -96 -53q-21 0 -35 20t-14 42q0 82 72 155
t148 73q28 0 41 -13q4 -5 8 -9l4 15l5 9q3 3 11 3h20zM441 713q8 40 -37 40q-13 0 -26 -4q-44 -12 -92 -71q-55 -68 -55 -133q0 -37 33 -37q12 0 23 7q41 25 94.5 93.5t59.5 104.5z" />
    <glyph glyph-name="ordmasculine" unicode="&#xba;" horiz-adv-x="329" 
d="M427 413h-271v18h271v-18zM458 643q0 -70 -62 -120q-54 -43 -109 -43q-15 0 -24 4q-35 14 -52.5 35.5t-23.5 61.5q-1 6 -1 17q0 59 47 113q51 58 114 58q17 0 37 -6q33 -10 53.5 -44t20.5 -76zM416 653q2 12 2 20q0 28 -10 50q-13 28 -28 30.5t-26 2.5q-52 0 -88 -49
t-36 -125q0 -36 11.5 -60t35.5 -28q5 -1 16 -1q45 0 77.5 44.5t45.5 115.5z" />
    <glyph glyph-name="Omega" unicode="&#x3a9;" horiz-adv-x="817" 
d="M883 410q-35 -107 -120.5 -184t-193.5 -95l-9 -32h173q20 0 35.5 5.5t30 21.5t20.5 37h21l-49 -165h-317l62 157q86 35 142.5 100t82.5 153q8 28 13 55t5 50q0 62 -36 94q-42 37 -137 37q-121 0 -200 -70q-68 -60 -100 -166q-16 -51 -16 -98q0 -107 91 -155l-31 -157
h-317l49 165h20q-4 -11 -4 -21q0 -8 4 -19.5t17 -17.5t31 -6h173l9 32q-76 14 -117.5 66.5t-41.5 130.5q0 38 11 82q32 124 156 197q117 69 274 69q134 0 209 -47.5t75 -136.5q0 -37 -15 -82z" />
    <glyph glyph-name="ae" unicode="&#xe6;" horiz-adv-x="957" 
d="M1038 485q3 -18 3 -36q0 -105 -133 -164q-108 -48 -241 -48l-43 -3l-1 -37q0 -61 28 -104q32 -49 87 -49q79 0 135 39l88 83q6 -2 6 -8q0 -34 -83 -98q-93 -72 -177 -72q-41 0 -72 14q-12 5 -43 27q-20 -13 -43.5 -26t-51.5 -13q-16 0 -22.5 11t-6.5 29q0 16 2 23.5
l3 11.5l76 247l7 26l-8 -13q-93 -145 -181 -230q-108 -105 -193 -105q-42 0 -69.5 40t-27.5 84q0 166 143.5 310.5t295.5 144.5q47 0 74 -19l25 -24l8 29q4 13 10.5 19t21.5 6h39q6 0 14 -6q7 -5 -8 -45q-11 -29 -13 -41q52 39 79 53q60 30 129 30q6 1 9 1q45 0 86 -24
t48 -63zM957 464q0 35 -9 52q-13 24 -49 29q-5 1 -16 1q-71 0 -143.5 -78t-100.5 -177l-9 -34l43 4q120 12 193 55q91 54 91 148zM595 466q2 12 2 18q0 62 -76 62q-21 0 -53 -8q-86 -23 -183 -143q-110 -136 -110 -266q0 -33 18.5 -53.5t47.5 -20.5q24 0 45 14
q82 52 189.5 188.5t119.5 208.5z" />
    <glyph glyph-name="oslash" unicode="&#xf8;" horiz-adv-x="597" 
d="M655 319q0 -142 -124 -240q-107 -85 -219 -85q-27 0 -48 8l-23 10l-64 -96l-4 -4q-2 -2 -9 -2h-17l-7 4q-1 3 1 7l6 10l65 96q-80 49 -100 168q-2 9 -2 18.5v14.5q0 118 94 227q100 116 227 116q37 0 75 -12q13 -4 20.5 -7t26.5 -16l60 90l7 6q3 2 9 2h12q7 0 9 -3
q4 -4 -2 -13l-69 -103q37 -34 56.5 -85t19.5 -111zM535 510q-21 27 -47 31.5t-42 4.5q-104 0 -176 -98.5t-72 -250.5q0 -43 8.5 -78.5t26.5 -59.5zM570 340q3 17 3 40q0 26 -4.5 51.5t-14.5 47.5l-297 -443q17 -12 30.5 -14l20.5 -3h15q92 0 159 93q63 87 88 228z" />
    <glyph glyph-name="questiondown" unicode="&#xbf;" horiz-adv-x="383" 
d="M473 525q0 -33 -17 -55.5t-43 -22.5q-8 0 -16 3q-26 10 -26 41q0 28 19.5 50t46.5 18q36 -5 36 -34zM388 339q-5 -31 -10 -50.5l-11 -42.5q-1 -4 -11 -47q-6 -27 -8 -30q-7 -24 -28 -42q-123 -61 -188 -114.5t-65 -120.5q0 -42 23 -70t61 -28q36 0 77 40q52 51 54 52
q18 9 29 9q16 0 16 -16q0 -3 -2 -9l-20 -65q-6 -17 -20 -24q-35 -18 -85 -18h-17q-12 2 -18 2q-62 6 -102 56t-40 114q0 68 49 123q35 39 112 85l116 69q27 18 42 60q9 31 19 62q3 8 7 16.5t13 8.5q8 0 8 -10q-1 -7 -1 -10z" />
    <glyph glyph-name="exclamdown" unicode="&#xa1;" horiz-adv-x="217" 
d="M328 484q-15 -35 -50 -35q-11 0 -19 4q-23 12 -23 41q0 19 9 36q17 36 51 36q8 0 17 -3q23 -11 23 -42q0 -18 -8 -37zM237 328l-144 -506q-15 -55 -68 -55q-20 0 -29.5 10.5t-9.5 25.5q0 8 2.5 16t4.5 13l219 503q7 15 9 18q7 9 15 5q6 -3 6 -10q0 -3 -1 -7q-1 -3 -4 -13
z" />
    <glyph glyph-name="logicalnot" unicode="&#xac;" horiz-adv-x="839" 
d="M908 330l-98 -330h-64l80 270h-711l18 60h775z" />
    <glyph glyph-name="radical" unicode="&#x221a;" horiz-adv-x="576" 
d="M772 864l-420 -914l-101 482l-106 -48l-6 33l163 67l82 -385l355 769z" />
    <glyph glyph-name="florin" unicode="&#x192;" horiz-adv-x="425" 
d="M613 826q-27 -40 -68 -40q-9 0 -16 8q-10 12 -13 14q-5 3 -9 3q-23 0 -71 -120q-26 -66 -49 -107l-12 -22h107l-19 -44h-112l-161 -323q-37 -75 -70 -129q-52 -86 -102 -138q-62 -65 -111 -65q-13 0 -28.5 4.5t-15.5 29.5q0 9 6 20q12 18 28 28.5t34 10.5q13 0 17 -14
t11 -16q30 -10 89 107l55 113l185 373h-117l16 44h131l14 29q59 117 114 188q74 95 132 95q17 0 28.5 -9.5t11.5 -23.5q0 -8 -5 -16z" />
    <glyph glyph-name="approxequal" unicode="&#x2248;" horiz-adv-x="693" 
d="M785 414l-31 -27q-80 -68 -166 -68q-30 0 -57 9t-53 19l-88 26q-18 5 -37 11t-35 6q-11 0 -25 -3q-50 -9 -99 -48l-26 -21l-41 33l22 17q75 60 157 73q21 3 37 3q21 0 43 -5q9 -2 44 -13l77 -26l46 -15.5t50 -7.5q61 0 116 44l28 22zM730 227l-32 -26q-79 -69 -165 -69
q-30 0 -57 9t-53 19l-89 27l-36.5 10.5t-35.5 5.5q-6 0 -13 -1t-11 -1q-50 -10 -100 -49l-25 -21l-41 33l21 17q41 33 76 49t82 24q20 3 36 3q21 0 43 -5q9 -2 44 -13l78 -26l44.5 -15.5t51.5 -7.5q38 3 62 11.5t54 32.5l28 23z" />
    <glyph glyph-name="Delta" unicode="&#x2206;" horiz-adv-x="762" 
d="M734 0h-703l609 789zM610 51l-70 550l-421 -550h491z" />
    <glyph glyph-name="guillemotleft" unicode="&#xab;" horiz-adv-x="568" 
d="M697 528l-33 -110l-194 -115l124 -111l-34 -116l-171 174l33 111zM414 528l-33 -110l-194 -115l124 -111l-34 -116l-171 174l33 111z" />
    <glyph glyph-name="guillemotright" unicode="&#xbb;" horiz-adv-x="571" 
d="M653 361l-33 -111l-274 -174l35 116l189 111l-126 115l33 110zM370 361l-33 -111l-274 -174l34 116l190 111l-126 115l32 110z" />
    <glyph glyph-name="ellipsis" unicode="&#x2026;" horiz-adv-x="471" 
d="M459 61q0 -28 -20 -50t-47 -18q-35 5 -35 40q0 28 17.5 50t42.5 22q8 0 16 -3q26 -11 26 -41zM305 61q0 -28 -20 -50t-47 -18q-32 4 -36 37q-3 29 16 52t44 23q8 0 17 -3q26 -11 26 -41zM155 61q0 -28 -20 -50t-47 -18q-35 5 -35 40q0 28 17.5 50t42.5 22q8 0 16 -3
q26 -11 26 -41z" />
    <glyph glyph-name="nonbreakingspace" unicode="&#xa0;" horiz-adv-x="750" 
 />
    <glyph glyph-name="Agrave" unicode="&#xc0;" horiz-adv-x="849" 
d="M837 15q0 -8 -3 -11q-5 -5 -19 -5q-16 1 -22 1q-6 -2 -25 0q-69 7 -74 7q-25 0 -54.5 -2.5t-58.5 -4.5q-8 -1 -13 -1q-21 0 -21 13q0 15 38.5 17.5t52 18t13.5 40.5l-2 206h-276l-131 -175q-15 -20 -15 -41q0 -17 11.5 -28.5t43.5 -16.5q57 -9 57 -19q0 -16 -22 -16
q-7 0 -16 1t-10 1q-4 -1 -25 0q-66 4 -74 4q-33 0 -62.5 -1.5l-49.5 -2.5q-9 -1 -15 -1q-19 0 -19 12q0 13 22 18q35 8 60 25q5 3 21 16l12 9l550 702q6 8 17 6q7 -2 7 -14v-13l13 -672q0 -22 12 -41q9 -14 43 -17t34 -15zM648 330l-12 302l-236 -303zM881 814q-3 -7 -12 -7
q-7 0 -11 1l-12 4l-218 75q-14 5 -23.5 13.5t-9.5 21.5q0 7 1 10q3 10 12 15t21 5q14 0 25 -6l201 -104q13 -7 19 -12q10 -9 7 -16z" />
    <glyph glyph-name="Atilde" unicode="&#xc3;" 
d="M834 15q0 -8 -3 -11q-5 -5 -19 -5q-16 1 -22 1q-6 -2 -25 0q-69 7 -74 7q-25 0 -54.5 -2.5t-58.5 -4.5q-8 -1 -13 -1q-21 0 -21 13q0 15 38.5 17.5t52 18t13.5 40.5l-2 206h-276l-131 -175q-15 -20 -15 -41q0 -17 11.5 -28.5t43.5 -16.5q57 -9 57 -19q0 -16 -22 -16
q-7 0 -16 1t-10 1q-4 -1 -25 0q-66 4 -74 4q-33 0 -62.5 -1.5l-49.5 -2.5q-9 -1 -15 -1q-19 0 -19 12q0 13 22 18q35 8 60 25q5 3 21 16l12 9l550 702q6 8 17 6q7 -2 7 -14v-13l13 -672q0 -22 12 -41q9 -14 43 -17t34 -15zM645 330l-12 302l-236 -303zM958 904
q-30 -43 -52 -61q-31 -25 -72 -25q-29 0 -131 41q-50 20 -84 20t-61 -30q-8 -9 -28 -37l-39 25q30 46 52 64q32 27 74 27q39 0 85 -18q105 -41 132 -41q30 0 50 18q4 3 36 43z" />
    <glyph glyph-name="Otilde" unicode="&#xd5;" horiz-adv-x="856" 
d="M900 436q0 -224 -163 -349q-135 -104 -310 -104q-62 0 -108 17q-90 33 -147 107q-74 96 -74 239q0 146 123 282q140 155 335 155q60 0 116 -14q87 -21 155 -115q73 -100 73 -218zM792 444q1 11 2 24t1 30q0 78 -26 135q-37 80 -123 108q-23 7 -44 10.5t-46 3.5
q-148 0 -250.5 -139t-102.5 -331q0 -89 28 -149q35 -73 113 -105q47 -18 94 -18q130 0 229 114q106 122 125 317zM821 899q-30 -43 -52 -61q-31 -25 -72 -25q-29 0 -131 41q-50 20 -84 20t-61 -30q-8 -9 -28 -37l-39 25q30 46 52 64q32 27 74 27q39 0 85 -18
q105 -41 132 -41q30 0 50 18q4 3 36 43z" />
    <glyph glyph-name="OE" unicode="&#x152;" horiz-adv-x="1204" 
d="M1325 732l-36 -110q-3 -9 -4 -13q-4 -14 -13 -14q-16 0 -17.5 46t-21 67.5t-44 27.5t-63.5 6h-104h-14t-15.5 -5t-11.5 -12.5t-8 -20.5l-86 -284h154q23 0 43.5 6t31 13t18.5 20l31 53q4 7 9.5 14.5t14.5 5.5q12 -4 12 -12q0 -4 -2 -9l-4 -8q-23 -55 -39 -109
q-9 -31 -16 -57.5t-10 -41.5t-5 -24q-5 -15 -20 -15q-10 0 -10 16q1 13 1 19v55q0 18 -13.5 30.5t-35.5 12.5l-171 1l-85 -280q-5 -18 -5 -34q0 -20 9 -32q18 -21 53 -21l90 1q120 0 184 49l85 107q14 0 14 -12q-3 -14 -4 -19l-33 -109q-2 -6 -5 -16.5t-6 -14.5
q-4 -5 -13 -7t-22 -2l-513 -2q-31 0 -82 -9t-78 -9q-24 0 -48.5 4.5t-55.5 15.5q-90 33 -147 107q-74 96 -74 239q0 155 129 291q139 147 326 147q56 0 139.5 -9.5t147.5 -9.5q126 0 223 1t179 2h10h1q17 0 20 -1q4 -1 8 -7t4 -15q0 -3 -2 -13zM829 557q0 59 -36 110.5
t-105 73.5q-23 7 -44 10.5t-46 3.5q-148 0 -250.5 -139t-102.5 -331q0 -89 28 -149q35 -74 113 -105q26 -10 49 -14t48 -4q76 0 145 42q55 33 62 55z" />
    <glyph glyph-name="oe" unicode="&#x153;" horiz-adv-x="958" 
d="M1059 503q3 -18 3 -36q0 -105 -133 -164q-108 -48 -241 -48l-43 -3l-1 -37q0 -61 28 -104q32 -49 87 -49q79 0 135 39l88 83q6 -2 6 -8q0 -34 -83 -98q-93 -72 -177 -72q-55 0 -98.5 29t-64.5 81q-55 -57 -127 -91q-67 -31 -126 -31q-26 0 -48 8q-69 26 -104 70t-48 123
q-2 9 -2 18.5v14.5q0 118 94 227q100 116 227 116q37 0 77.5 -12.5t74.5 -46t53 -80.5q52 69 115 108q78 49 166 49q3 1 8 1q45 0 86 -24t48 -63zM978 482q0 35 -9 52q-13 24 -49 29q-5 1 -16 1q-71 0 -143.5 -78t-100.5 -177l-9 -34l43 4q120 12 193 55q91 54 91 148z
M570 340q3 17 3 40q0 58 -19 100q-25 55 -75 63q-17 3 -33 3q-104 0 -176 -98.5t-72 -250.5q0 -71 24 -119.5t71 -56.5q8 -1 15 -2h15q92 0 159 93q63 87 88 228z" />
    <glyph glyph-name="endash" unicode="&#x2013;" horiz-adv-x="460" 
d="M541 327l-20 -65h-403l19 65h404z" />
    <glyph glyph-name="emdash" unicode="&#x2014;" horiz-adv-x="831" 
d="M909 327l-17 -65h-774l19 65h772z" />
    <glyph glyph-name="quotedblleft" unicode="&#x201c;" horiz-adv-x="391" 
d="M374 764q3 -9 -12 -15q-45 -25 -87 -78t-42 -84q0 -11 8 -17q5 -3 14 -3q13 1 20 1q16 0 25 -7.5t9 -32.5q2 -25 -19 -44.5t-46 -19.5t-39 19t-17 47q0 46 35 109q47 85 129 126q8 4 15 4q5 0 7 -5zM569 759q1 -3 -1 -6q-2 -4 -10 -9q-45 -25 -87.5 -77.5t-42.5 -83.5
q0 -12 8 -18q5 -3 13 -3q14 1 22 1q16 0 24.5 -7.5t8.5 -31.5q0 -25 -20.5 -44.5t-44.5 -19.5q-25 0 -40 19t-15 47q0 44 35 108q47 86 128 126q8 4 14 4q7 0 8 -5z" />
    <glyph glyph-name="quotedblright" unicode="&#x201d;" horiz-adv-x="389" 
d="M356 714q0 -46 -35 -109q-48 -86 -129 -127q-8 -4 -15 -4t-8 5q-2 8 12 15q46 26 88 78t42 84q0 12 -6.5 16.5t-14.5 4.5q-14 -1 -21 -1q-17 0 -24 6q-10 9 -10 34q-2 25 19 44.5t46 19.5t39 -19t17 -47zM552 709q0 -45 -35 -109q-47 -86 -129 -127q-8 -4 -15 -4
q-6 0 -8 5q-2 7 12 16q46 25 88 77t42 84q0 12 -5.5 16.5t-16.5 4.5q-13 -1 -20 -1q-16 0 -23 6q-11 9 -11 34t20.5 44.5t44.5 19.5q25 0 40.5 -19.5t15.5 -46.5z" />
    <glyph glyph-name="quoteleft" unicode="&#x2018;" horiz-adv-x="195" 
d="M379 763q2 -7 -12 -16q-46 -25 -88 -77t-42 -84q0 -12 8 -18q5 -3 14 -3q13 1 20 1q16 0 25 -7.5t9 -32.5q2 -25 -19 -44.5t-46 -19.5t-39 19t-17 47q0 45 35 109q47 86 129 127q8 4 15 4q6 0 8 -5z" />
    <glyph glyph-name="quoteright" unicode="&#x2019;" horiz-adv-x="202" 
d="M357 708q0 -45 -35 -109q-47 -86 -129 -127q-8 -4 -15 -4q-5 0 -7 5q-2 8 12 16q44 24 86.5 77.5t42.5 84.5q0 11 -6 15.5t-15 4.5q-13 -1 -20 -1q-17 0 -24 6q-11 9 -11 34t20.5 44.5t45.5 19.5q26 0 40.5 -19t14.5 -47z" />
    <glyph glyph-name="divide" unicode="&#xf7;" horiz-adv-x="719" 
d="M524 566q27 0 39.5 -13t12.5 -35q0 -33 -26.5 -62.5t-67.5 -29.5q-27 0 -39.5 13t-12.5 35q0 33 26.5 62.5t67.5 29.5zM797 361l-21 -75h-658l22 75h657zM422 222q27 0 39.5 -13t12.5 -35q0 -33 -27 -62.5t-67 -29.5q-27 0 -39.5 13t-12.5 35q0 33 26.5 62.5t67.5 29.5z
" />
    <glyph glyph-name="lozenge" unicode="&#x25ca;" horiz-adv-x="530" 
d="M606 388l-316 -389h-67l-87 395l316 376h66zM546 388l-78 326l-270 -322l74 -345z" />
    <glyph glyph-name="ydieresis" unicode="&#xff;" horiz-adv-x="601" 
d="M684 482q0 -73 -60 -179q-51 -90 -149 -213q-59 -74 -190 -224q-49 -57 -114 -100t-106 -43q-39 0 -67 16q-33 19 -36 50q0 18 13 31t31 13q19 0 56 -42q19 -22 40 -26q24 -5 64 22q58 39 93 122q48 113 48 290q0 119 -6 179q-13 134 -52 134q-25 0 -51 -37
q-63 -90 -65 -90l35 87q61 93 113 100q73 10 98 -183q11 -85 11 -180l-8 -190l27 33l99 123.5t77 116.5q32 64 32 119q0 19 -10 39q-23 46 -23 65q0 22 12.5 37.5t32.5 15.5q29 0 42 -26t13 -60zM657 684q0 -28 -19 -50t-45 -18q-19 3 -29 12t-10 27q0 28 17.5 50.5
t42.5 22.5q8 0 17 -3q26 -11 26 -41zM447 684q0 -28 -19 -50t-45 -18q-18 2 -28 11.5t-10 27.5q0 28 17.5 50.5t42.5 22.5q8 0 16 -3q26 -11 26 -41z" />
    <glyph glyph-name="Ydieresis" unicode="&#x178;" horiz-adv-x="783" 
d="M985 754q0 -15 -22 -16.5t-39 -2.5q-11 -3 -22.5 -13.5t-45.5 -50.5l-304 -346l-74 -243q-2 -6 -2 -11q0 -12 5.5 -22t14.5 -16q4 -2 12 -4t22 -2h17q14 0 21.5 -3.5t7.5 -14.5q0 -13 -37 -13q-24 0 -47 2q-81 7 -87 7q-19 0 -78 -7q-34 -4 -43 -4q-12 0 -21 2t-9 11
q0 13 6.5 17.5t18.5 4.5q17 -1 26 -1q17 0 28 5q37 15 46 49l81 264l-112 336q-4 14 -13.5 26.5t-18.5 19t-19 9.5t-27 3q-13 0 -17 2q-7 3 -7 14q0 15 19 15q3 0 42 -2t81 -2q36 0 76 2t47 2q13 0 20.5 -2t7.5 -13q0 -9 -7 -12q-5 -2 -19 -2h-16q-14 0 -26 -2.5
t-19.5 -10.5t-7.5 -20q0 -8 4 -22l105 -318l270 308q20 24 18 45q0 11 -11 14.5t-30 3.5h-17q-15 0 -22 2.5t-7 12.5q-1 16 14 16q25 -3 48.5 -5t55.5 -2q30 0 48.5 1.5t43.5 4.5q21 0 21 -16zM820 880q0 -28 -19 -50t-45 -18q-19 3 -29 12t-10 27q0 28 17.5 50.5t42.5 22.5
q8 0 17 -3q26 -11 26 -41zM610 880q0 -28 -19 -50t-45 -18q-18 2 -28 11.5t-10 27.5q0 28 17.5 50.5t42.5 22.5q8 0 16 -3q26 -11 26 -41z" />
    <glyph glyph-name="periodcentered" unicode="&#xb7;" horiz-adv-x="170" 
d="M238 397q0 -28 -19.5 -50t-46.5 -18q-36 5 -36 40q0 28 17.5 50t42.5 22q8 0 16 -3q26 -11 26 -41z" />
    <glyph glyph-name="periodcentered" unicode="&#x2219;" horiz-adv-x="170" 
d="M238 397q0 -28 -19.5 -50t-46.5 -18q-36 5 -36 40q0 28 17.5 50t42.5 22q8 0 16 -3q26 -11 26 -41z" />
    <glyph glyph-name="quotesinglbase" unicode="&#x201a;" horiz-adv-x="202" 
d="M201 33q0 -45 -35 -109q-47 -86 -129 -127q-8 -4 -15 -4q-5 0 -7 5q-2 8 12 16q44 24 86.5 77.5t42.5 84.5q0 11 -6 15.5t-15 4.5q-13 -1 -20 -1q-17 0 -24 6q-11 9 -11 34t20.5 44.5t45.5 19.5q26 0 40.5 -19t14.5 -47z" />
    <glyph glyph-name="quotedblbase" unicode="&#x201e;" horiz-adv-x="389" 
d="M194 34q0 -46 -35 -109q-48 -86 -129 -127q-8 -4 -15 -4t-8 5q-2 8 12 15q46 26 88 78t42 84q0 12 -6.5 16.5t-14.5 4.5q-14 -1 -21 -1q-17 0 -24 6q-10 9 -10 34q-2 25 19 44.5t46 19.5t39 -19t17 -47zM390 29q0 -45 -35 -109q-47 -86 -129 -127q-8 -4 -15 -4q-6 0 -8 5
q-2 7 12 16q46 25 88 77t42 84q0 12 -5.5 16.5t-16.5 4.5q-13 -1 -20 -1q-16 0 -23 6q-11 9 -11 34t20.5 44.5t44.5 19.5q25 0 40.5 -19.5t15.5 -46.5z" />
    <glyph glyph-name="Acircumflex" unicode="&#xc2;" horiz-adv-x="879" 
d="M836 15q0 -8 -3 -11q-5 -5 -19 -5q-16 1 -22 1q-6 -2 -25 0q-69 7 -74 7q-25 0 -54.5 -2.5t-58.5 -4.5q-8 -1 -13 -1q-21 0 -21 13q0 15 38.5 17.5t52 18t13.5 40.5l-2 206h-276l-131 -175q-15 -20 -15 -41q0 -17 11.5 -28.5t43.5 -16.5q57 -9 57 -19q0 -16 -22 -16
q-7 0 -16 1t-10 1q-4 -1 -25 0q-66 4 -74 4q-33 0 -62.5 -1.5l-49.5 -2.5q-9 -1 -15 -1q-19 0 -19 12q0 13 22 18q35 8 60 25q5 3 21 16l12 9l550 702q6 8 17 6q7 -2 7 -14v-13l13 -672q0 -22 12 -41q9 -14 43 -17t34 -15zM647 330l-12 302l-236 -303zM883 819q-4 -8 -10 -8
h-33q-3 0 -14 9q-3 3 -12 20l-64 131l-169 -142l-16 -13q-4 -3 -13 -3h-26q-12 0 -15 8q-2 6 1 11q2 3 9 9l191 155q8 8 15 10t19 2h26q8 0 18 -8l9 -14l79 -148q1 -4 3 -7q4 -8 2 -12z" />
    <glyph glyph-name="Ecircumflex" unicode="&#xca;" horiz-adv-x="746" 
d="M805 732l-36 -110q-2 -9 -5 -18t-12 -9q-15 0 -16.5 45t-21.5 66.5t-45 27.5t-63 6h-104q-8 0 -15.5 -0.5t-15 -5.5t-11 -12t-7.5 -20l-86 -282h155q22 0 42.5 6t31 13t18.5 20l31 53q4 7 9.5 14.5t14.5 5.5q12 -4 12 -12q0 -4 -2 -9l-4 -8q-23 -55 -39 -109
q-9 -31 -16 -57.5t-10.5 -46.5t-5.5 -24q-5 -10 -19 -10q-10 0 -10 18q1 12 1 17v55q0 18 -13.5 31t-35.5 13h-171l-85 -280q-5 -18 -5 -33q0 -22 10 -33q18 -21 53 -21h90q121 0 184 49l85 108q14 0 14 -11q0 -3 -1 -7q-2 -7 -4 -13l-33 -109q-2 -6 -5 -16.5t-6 -14.5
q-3 -5 -12.5 -7t-21.5 -2h-514q-7 0 -25 -3t-25 -3q-18 0 -18 14q-2 15 40 19t57 18t20 21.5t10 23.5l180 585l4 16t2 15q0 14 -9 22t-24 10t-30 2q-9 0 -21 1t-12 12q0 15 17 15q12 -1 18 -1h486q8 0 16 -0.5t12.5 -6.5t4.5 -14q0 -6 -3 -14zM817 819q-4 -8 -10 -8h-33
q-3 0 -14 9q-3 3 -12 20l-64 131l-169 -142l-16 -13q-4 -3 -13 -3h-26q-12 0 -15 8q-2 6 1 11q2 3 9 9l191 155q8 8 15 10t19 2h26q8 0 18 -8l9 -14l79 -148q1 -4 3 -7q4 -8 2 -12z" />
    <glyph glyph-name="Aacute" unicode="&#xc1;" horiz-adv-x="879" 
d="M836 15q0 -8 -3 -11q-5 -5 -19 -5q-16 1 -22 1q-6 -2 -25 0q-69 7 -74 7q-25 0 -54.5 -2.5t-58.5 -4.5q-8 -1 -13 -1q-21 0 -21 13q0 15 38.5 17.5t52 18t13.5 40.5l-2 206h-276l-131 -175q-15 -20 -15 -41q0 -17 11.5 -28.5t43.5 -16.5q57 -9 57 -19q0 -16 -22 -16
q-7 0 -16 1t-10 1q-4 -1 -25 0q-66 4 -74 4q-33 0 -62.5 -1.5l-49.5 -2.5q-9 -1 -15 -1q-19 0 -19 12q0 13 22 18q35 8 60 25q5 3 21 16l12 9l550 702q6 8 17 6q7 -2 7 -14v-13l13 -672q0 -22 12 -41q9 -14 43 -17t34 -15zM647 330l-12 302l-236 -303zM855 936q5 -17 -5 -28
t-28 -17l-217 -75q-7 -2 -11 -3q-8 -2 -12 -2q-9 0 -12 7q-4 8 6 16q4 4 20 12l200 104q12 6 26 6q27 0 33 -20z" />
    <glyph glyph-name="Edieresis" unicode="&#xcb;" horiz-adv-x="746" 
d="M805 732l-36 -110q-2 -9 -5 -18t-12 -9q-15 0 -16.5 45t-21.5 66.5t-45 27.5t-63 6h-104q-8 0 -15.5 -0.5t-15 -5.5t-11 -12t-7.5 -20l-86 -282h155q22 0 42.5 6t31 13t18.5 20l31 53q4 7 9.5 14.5t14.5 5.5q12 -4 12 -12q0 -4 -2 -9l-4 -8q-23 -55 -39 -109
q-9 -31 -16 -57.5t-10.5 -46.5t-5.5 -24q-5 -10 -19 -10q-10 0 -10 18q1 12 1 17v55q0 18 -13.5 31t-35.5 13h-171l-85 -280q-5 -18 -5 -33q0 -22 10 -33q18 -21 53 -21h90q121 0 184 49l85 108q14 0 14 -11q0 -3 -1 -7q-2 -7 -4 -13l-33 -109q-2 -6 -5 -16.5t-6 -14.5
q-3 -5 -12.5 -7t-21.5 -2h-514q-7 0 -25 -3t-25 -3q-18 0 -18 14q-2 15 40 19t57 18t20 21.5t10 23.5l180 585l4 16t2 15q0 14 -9 22t-24 10t-30 2q-9 0 -21 1t-12 12q0 15 17 15q12 -1 18 -1h486q8 0 16 -0.5t12.5 -6.5t4.5 -14q0 -6 -3 -14zM725 880q0 -28 -19 -50
t-45 -18q-19 3 -29 12t-10 27q0 28 17.5 50.5t42.5 22.5q8 0 17 -3q26 -11 26 -41zM515 880q0 -28 -19 -50t-45 -18q-18 2 -28 11.5t-10 27.5q0 28 17.5 50.5t42.5 22.5q8 0 16 -3q26 -11 26 -41z" />
    <glyph glyph-name="Egrave" unicode="&#xc8;" horiz-adv-x="746" 
d="M805 732l-36 -110q-2 -9 -5 -18t-12 -9q-15 0 -16.5 45t-21.5 66.5t-45 27.5t-63 6h-104q-8 0 -15.5 -0.5t-15 -5.5t-11 -12t-7.5 -20l-86 -282h155q22 0 42.5 6t31 13t18.5 20l31 53q4 7 9.5 14.5t14.5 5.5q12 -4 12 -12q0 -4 -2 -9l-4 -8q-23 -55 -39 -109
q-9 -31 -16 -57.5t-10.5 -46.5t-5.5 -24q-5 -10 -19 -10q-10 0 -10 18q1 12 1 17v55q0 18 -13.5 31t-35.5 13h-171l-85 -280q-5 -18 -5 -33q0 -22 10 -33q18 -21 53 -21h90q121 0 184 49l85 108q14 0 14 -11q0 -3 -1 -7q-2 -7 -4 -13l-33 -109q-2 -6 -5 -16.5t-6 -14.5
q-3 -5 -12.5 -7t-21.5 -2h-514q-7 0 -25 -3t-25 -3q-18 0 -18 14q-2 15 40 19t57 18t20 21.5t10 23.5l180 585l4 16t2 15q0 14 -9 22t-24 10t-30 2q-9 0 -21 1t-12 12q0 15 17 15q12 -1 18 -1h486q8 0 16 -0.5t12.5 -6.5t4.5 -14q0 -6 -3 -14zM673 821q-3 -7 -12 -7
q-7 0 -11 1l-12 4l-218 75q-14 5 -23.5 13.5t-9.5 21.5q0 7 1 10q3 10 12 15t21 5q14 0 25 -6l201 -104q13 -7 19 -12q10 -9 7 -16z" />
    <glyph glyph-name="Iacute" unicode="&#xcd;" horiz-adv-x="382" 
d="M555 751q0 -15 -37.5 -16t-54 -14.5t-23.5 -37.5l-180 -600q-3 -9 -3 -18q0 -15 7 -24t17 -11.5t25 -2.5q18 1 26 1q22 0 22 -15t-24 -15q-11 0 -58.5 2.5t-78.5 2.5q-44 0 -76 -2.5l-56 -4.5q-22 0 -22 14q0 13 40 16t57 15t26 40l181 602q3 9 3 18q0 13 -7.5 22
t-20 11.5t-34.5 2.5q-12 0 -27 1t-15 14q0 15 23 15q9 0 68 -3t72 -3q41 0 66.5 1.5l57.5 3.5q26 0 26 -15zM561 936q5 -17 -5 -28t-28 -17l-217 -75q-7 -2 -11 -3q-8 -2 -12 -2q-9 0 -12 7q-4 8 6 16q4 4 20 12l200 104q12 6 26 6q27 0 33 -20z" />
    <glyph glyph-name="Icircumflex" unicode="&#xce;" horiz-adv-x="382" 
d="M555 751q0 -15 -37.5 -16t-54 -14.5t-23.5 -37.5l-180 -600q-3 -9 -3 -18q0 -15 7 -24t17 -11.5t25 -2.5q18 1 26 1q22 0 22 -15t-24 -15q-11 0 -58.5 2.5t-78.5 2.5q-44 0 -76 -2.5l-56 -4.5q-22 0 -22 14q0 13 40 16t57 15t26 40l181 602q3 9 3 18q0 13 -7.5 22
t-20 11.5t-34.5 2.5q-12 0 -27 1t-15 14q0 15 23 15q9 0 68 -3t72 -3q41 0 66.5 1.5l57.5 3.5q26 0 26 -15zM619 819q-4 -8 -10 -8h-33q-3 0 -14 9q-3 3 -12 20l-64 131l-169 -142l-16 -13q-4 -3 -13 -3h-26q-12 0 -15 8q-2 6 1 11q2 3 9 9l191 155q8 8 15 10t19 2h26
q8 0 18 -8l9 -14l79 -148q1 -4 3 -7q4 -8 2 -12z" />
    <glyph glyph-name="Idieresis" unicode="&#xcf;" horiz-adv-x="382" 
d="M555 751q0 -15 -37.5 -16t-54 -14.5t-23.5 -37.5l-180 -600q-3 -9 -3 -18q0 -15 7 -24t17 -11.5t25 -2.5q18 1 26 1q22 0 22 -15t-24 -15q-11 0 -58.5 2.5t-78.5 2.5q-44 0 -76 -2.5l-56 -4.5q-22 0 -22 14q0 13 40 16t57 15t26 40l181 602q3 9 3 18q0 13 -7.5 22
t-20 11.5t-34.5 2.5q-12 0 -27 1t-15 14q0 15 23 15q9 0 68 -3t72 -3q41 0 66.5 1.5l57.5 3.5q26 0 26 -15zM611 880q0 -28 -19 -50t-45 -18q-19 3 -29 12t-10 27q0 28 17.5 50.5t42.5 22.5q8 0 17 -3q26 -11 26 -41zM401 880q0 -28 -19 -50t-45 -18q-18 2 -28 11.5
t-10 27.5q0 28 17.5 50.5t42.5 22.5q8 0 16 -3q26 -11 26 -41z" />
    <glyph glyph-name="Igrave" unicode="&#xcc;" horiz-adv-x="382" 
d="M555 751q0 -15 -37.5 -16t-54 -14.5t-23.5 -37.5l-180 -600q-3 -9 -3 -18q0 -15 7 -24t17 -11.5t25 -2.5q18 1 26 1q22 0 22 -15t-24 -15q-11 0 -58.5 2.5t-78.5 2.5q-44 0 -76 -2.5l-56 -4.5q-22 0 -22 14q0 13 40 16t57 15t26 40l181 602q3 9 3 18q0 13 -7.5 22
t-20 11.5t-34.5 2.5q-12 0 -27 1t-15 14q0 15 23 15q9 0 68 -3t72 -3q41 0 66.5 1.5l57.5 3.5q26 0 26 -15zM607 815q-3 -7 -12 -7q-7 0 -11 1l-12 4l-218 75q-14 5 -23.5 13.5t-9.5 21.5q0 7 1 10q3 10 12 15t21 5q14 0 25 -6l201 -104q13 -7 19 -12q10 -9 7 -16z" />
    <glyph glyph-name="Oacute" unicode="&#xd3;" horiz-adv-x="819" 
d="M942 436q0 -224 -163 -349q-135 -104 -310 -104q-62 0 -108 17q-90 33 -147 107q-74 96 -74 239q0 146 123 282q140 155 335 155q60 0 116 -14q87 -21 155 -115q73 -100 73 -218zM834 444q1 11 2 24t1 30q0 78 -26 135q-37 80 -123 108q-23 7 -44 10.5t-46 3.5
q-148 0 -250.5 -139t-102.5 -331q0 -89 28 -149q35 -73 113 -105q47 -18 94 -18q130 0 229 114q106 122 125 317zM765 930q5 -17 -5 -28t-28 -17l-217 -75q-7 -2 -11 -3q-8 -2 -12 -2q-9 0 -12 7q-4 8 6 16q4 4 20 12l200 104q12 6 26 6q27 0 33 -20z" />
    <glyph glyph-name="Ocircumflex" unicode="&#xd4;" horiz-adv-x="819" 
d="M942 436q0 -224 -163 -349q-135 -104 -310 -104q-62 0 -108 17q-90 33 -147 107q-74 96 -74 239q0 146 123 282q140 155 335 155q60 0 116 -14q87 -21 155 -115q73 -100 73 -218zM834 444q1 11 2 24t1 30q0 78 -26 135q-37 80 -123 108q-23 7 -44 10.5t-46 3.5
q-148 0 -250.5 -139t-102.5 -331q0 -89 28 -149q35 -73 113 -105q47 -18 94 -18q130 0 229 114q106 122 125 317zM811 819q-4 -8 -10 -8h-33q-3 0 -14 9q-3 3 -12 20l-64 131l-169 -142l-16 -13q-4 -3 -13 -3h-26q-12 0 -15 8q-2 6 1 11q2 3 9 9l191 155q8 8 15 10t19 2h26
q8 0 18 -8l9 -14l79 -148q1 -4 3 -7q4 -8 2 -12z" />
    <glyph glyph-name="Ograve" unicode="&#xd2;" horiz-adv-x="819" 
d="M942 436q0 -224 -163 -349q-135 -104 -310 -104q-62 0 -108 17q-90 33 -147 107q-74 96 -74 239q0 146 123 282q140 155 335 155q60 0 116 -14q87 -21 155 -115q73 -100 73 -218zM834 444q1 11 2 24t1 30q0 78 -26 135q-37 80 -123 108q-23 7 -44 10.5t-46 3.5
q-148 0 -250.5 -139t-102.5 -331q0 -89 28 -149q35 -73 113 -105q47 -18 94 -18q130 0 229 114q106 122 125 317zM793 815q-3 -7 -12 -7q-7 0 -11 1l-12 4l-218 75q-14 5 -23.5 13.5t-9.5 21.5q0 7 1 10q3 10 12 15t21 5q14 0 25 -6l201 -104q13 -7 19 -12q10 -9 7 -16z" />
    <glyph glyph-name="Uacute" unicode="&#xda;" horiz-adv-x="807" 
d="M996 749q0 -10 -10 -12.5t-17 -2.5q-22 1 -32 1q-15 0 -23 -4q-14 -9 -26 -39q-5 -13 -19 -59l-141 -456q-26 -85 -105.5 -139t-185.5 -54q-126 0 -190 55q-57 49 -57 132q0 36 13 78l130 434q3 11 3 22q0 14 -6 23q-7 7 -15 9.5t-23 2.5q-17 -1 -24 -1q-26 0 -26 16
q0 14 19 14q34 -3 66.5 -5t74.5 -2q38 0 82 3t51 3q26 0 26 -14q0 -15 -41.5 -16.5t-56 -12t-21.5 -19t-11 -21.5l-138 -466q-13 -41 -13 -75q0 -59 36 -90q43 -37 138 -37q90 0 158 50q61 45 81 110l142 460l7.5 27.5t4.5 28.5q0 21 -12 33q-6 6 -14.5 8.5t-20.5 2.5
q-10 0 -22 -1t-13 -1q-21 0 -21 16q0 14 24 14q5 0 49 -4t61 -4q25 0 59 4.5t37 4.5q22 0 22 -17zM807 936q5 -17 -5 -28t-28 -17l-217 -75q-7 -2 -11 -3q-8 -2 -12 -2q-9 0 -12 7q-4 8 6 16q4 4 20 12l200 104q12 6 26 6q27 0 33 -20z" />
    <glyph glyph-name="Ucircumflex" unicode="&#xdb;" horiz-adv-x="806" 
d="M996 749q0 -10 -10 -12.5t-17 -2.5q-22 1 -32 1q-15 0 -23 -4q-14 -9 -26 -39q-5 -13 -19 -59l-141 -456q-26 -85 -105.5 -139t-185.5 -54q-126 0 -190 55q-57 49 -57 132q0 36 13 78l130 434q3 11 3 22q0 14 -6 23q-7 7 -15 9.5t-23 2.5q-17 -1 -24 -1q-26 0 -26 16
q0 14 19 14q34 -3 66.5 -5t74.5 -2q38 0 82 3t51 3q26 0 26 -14q0 -15 -41.5 -16.5t-56 -12t-21.5 -19t-11 -21.5l-138 -466q-13 -41 -13 -75q0 -59 36 -90q43 -37 138 -37q90 0 158 50q61 45 81 110l142 460l7.5 27.5t4.5 28.5q0 21 -12 33q-6 6 -14.5 8.5t-20.5 2.5
q-10 0 -22 -1t-13 -1q-21 0 -21 16q0 14 24 14q5 0 49 -4t61 -4q25 0 59 4.5t37 4.5q22 0 22 -17zM835 819q-4 -8 -10 -8h-33q-3 0 -14 9q-3 3 -12 20l-64 131l-169 -142l-16 -13q-4 -3 -13 -3h-26q-12 0 -15 8q-2 6 1 11q2 3 9 9l191 155q8 8 15 10t19 2h26q8 0 18 -8
l9 -14l79 -148q1 -4 3 -7q4 -8 2 -12z" />
    <glyph glyph-name="Ugrave" unicode="&#xd9;" horiz-adv-x="806" 
d="M996 749q0 -10 -10 -12.5t-17 -2.5q-22 1 -32 1q-15 0 -23 -4q-14 -9 -26 -39q-5 -13 -19 -59l-141 -456q-26 -85 -105.5 -139t-185.5 -54q-126 0 -190 55q-57 49 -57 132q0 36 13 78l130 434q3 11 3 22q0 14 -6 23q-7 7 -15 9.5t-23 2.5q-17 -1 -24 -1q-26 0 -26 16
q0 14 19 14q34 -3 66.5 -5t74.5 -2q38 0 82 3t51 3q26 0 26 -14q0 -15 -41.5 -16.5t-56 -12t-21.5 -19t-11 -21.5l-138 -466q-13 -41 -13 -75q0 -59 36 -90q43 -37 138 -37q90 0 158 50q61 45 81 110l142 460l7.5 27.5t4.5 28.5q0 21 -12 33q-6 6 -14.5 8.5t-20.5 2.5
q-10 0 -22 -1t-13 -1q-21 0 -21 16q0 14 24 14q5 0 49 -4t61 -4q25 0 59 4.5t37 4.5q22 0 22 -17zM823 815q-3 -7 -12 -7q-7 0 -11 1l-12 4l-218 75q-14 5 -23.5 13.5t-9.5 21.5q0 7 1 10q3 10 12 15t21 5q14 0 25 -6l201 -104q13 -7 19 -12q10 -9 7 -16z" />
    </font>
</defs>
</svg>
